<svg width="71" height="78" viewBox="0 0 71 78" fill="none" xmlns="http://www.w3.org/2000/svg">
<path fill-rule="evenodd" clip-rule="evenodd" d="M16.4089 2.35964C14.334 3.86266 12.8472 6.02762 12.1997 8.48893C11.5522 10.9502 11.7837 13.5571 12.8549 15.8692C9.24135 16.5435 5.97936 18.4443 3.63232 21.2434C1.28528 24.0425 0.000546619 27.5641 0 31.2001V46.8001C0 47.8344 0.415574 48.8264 1.1553 49.5578C1.89503 50.2892 2.89831 50.7001 3.94444 50.7001C4.99058 50.7001 5.99386 50.2892 6.73359 49.5578C7.47331 48.8264 7.88889 47.8344 7.88889 46.8001V39.0001H31.5556V70.2H15.7778C13.6855 70.2 11.6789 69.3782 10.1995 67.9154C8.72004 66.4527 7.88889 64.4687 7.88889 62.4C7.88889 61.3657 7.47331 60.3737 6.73359 59.6423C5.99386 58.9109 4.99058 58.5 3.94444 58.5C2.89831 58.5 1.89503 58.9109 1.1553 59.6423C0.415574 60.3737 0 61.3657 0 62.4C0 66.5374 1.6623 70.5053 4.6212 73.4309C7.58011 76.3564 11.5933 78 15.7778 78H55.2222C59.4067 78 63.4199 76.3564 66.3788 73.4309C69.3377 70.5053 71 66.5374 71 62.4V31.2001C70.9995 27.5641 69.7147 24.0425 67.3677 21.2434C65.0206 18.4443 61.7586 16.5435 58.1451 15.8692C60.3145 11.2282 58.9813 5.60833 54.5951 2.35964C52.5123 0.821145 49.9805 -0.00689242 47.3807 0.000143925C43.8583 0.000143925 40.3753 1.50554 38.0521 4.37594C36.8608 5.84233 36.0522 8.49433 35.4961 11.4856C34.9399 8.49433 34.1313 5.84233 32.9401 4.37594C31.8172 3.00184 30.3961 1.89508 28.782 1.13763C27.1678 0.380168 25.4021 -0.00858865 23.6154 0.000143925C21.0949 0.000143925 18.5547 0.768443 16.4089 2.35964ZM24.4792 15.6001H28.1397C27.7452 12.4411 27.2048 9.93733 26.6211 8.93113C26.2509 8.50142 25.7899 8.1572 25.2706 7.92271C24.7513 7.68822 24.1863 7.56917 23.6154 7.57393C22.7639 7.57055 21.9344 7.84163 21.2527 8.34613C20.8532 8.63798 20.5172 9.0062 20.2644 9.42894C20.0117 9.85168 19.8474 10.3203 19.7814 10.807C19.6552 11.749 19.9103 12.7021 20.4914 13.459C21.1304 14.0401 22.5622 14.7889 24.4792 15.6001V15.6001ZM42.8603 15.6001H46.5089C48.4338 14.785 49.8696 14.0362 50.5086 13.4551C50.8011 13.0715 51.0136 12.6342 51.1337 12.1686C51.2539 11.7031 51.2793 11.2186 51.2085 10.7432C51.1376 10.2679 50.972 9.81123 50.7212 9.39972C50.4703 8.98822 50.1393 8.63009 49.7473 8.34613C49.0674 7.84054 48.2393 7.56805 47.3886 7.57003C46.8177 7.56553 46.2528 7.68471 45.7336 7.91918C45.2143 8.15365 44.7533 8.49773 44.3829 8.92723C43.7991 9.93343 43.2587 12.4372 42.8603 15.6001V15.6001ZM31.5556 31.2001H7.88889C7.88889 29.1314 8.72004 27.1474 10.1995 25.6847C11.6789 24.2219 13.6855 23.4001 15.7778 23.4001H55.2222C57.3145 23.4001 59.3211 24.2219 60.8005 25.6847C62.28 27.1474 63.1111 29.1314 63.1111 31.2001H31.5556ZM39.4444 39.0001H63.1111V62.4C63.1111 64.4687 62.28 66.4527 60.8005 67.9154C59.3211 69.3782 57.3145 70.2 55.2222 70.2H39.4444V39.0001Z" fill="#6200EE"/>
</svg>
