<svg width="69" height="66" viewBox="0 0 69 66" fill="none" xmlns="http://www.w3.org/2000/svg">
<path d="M28.98 0C25.6896 0.0116039 22.5373 1.32011 20.2106 3.64012C17.8839 5.96014 16.5716 9.10342 16.56 12.3844C16.56 14.5861 17.1865 16.6309 18.1994 18.406C13.2287 21.3067 9.33708 25.4238 7.245 30.273H6.9C6.71764 30.2771 6.53633 30.2443 6.36703 30.1766C6.19772 30.109 6.04393 30.0077 5.91495 29.8791C5.78597 29.7505 5.68447 29.5972 5.61659 29.4284C5.54871 29.2595 5.51585 29.0787 5.52 28.8969C5.52 28.4125 5.7684 28.0272 6.12444 27.7796L2.93112 23.3074C2.02682 23.9344 1.28799 24.7702 0.777611 25.7435C0.267234 26.7167 0.000448595 27.7986 0 28.8969C0 32.282 2.53368 35.0561 5.77944 35.6065C5.63868 36.5697 5.52 37.5302 5.52 38.5292C5.52 45.3874 9.17424 51.3319 14.49 55.7298C13.8221 58.4818 14.156 61.4156 16.3006 63.5567C17.8838 65.1218 20.023 66 22.2525 66C24.482 66 26.6212 65.1218 28.2044 63.5567L29.2394 62.5247C31.395 62.921 33.5616 63.298 35.88 63.298C38.1984 63.298 40.365 62.921 42.5206 62.5247L43.5556 63.5567C45.1388 65.1218 47.278 66 49.5075 66C51.737 66 53.8762 65.1218 55.4594 63.5567C57.5598 61.4596 57.8744 58.6112 57.27 55.9004C59.4832 54.108 61.3782 51.957 62.8756 49.5376H69V27.5209H62.7044C61.7023 25.8988 60.5149 24.3981 59.1661 23.0487L60.72 14.5338V11.0083H57.96C57.96 11.0083 51.3305 11.1184 45.7111 15.3099C44.2357 14.8855 42.7385 14.54 41.2261 14.2751C41.3365 13.6641 41.4 13.0284 41.4 12.3844C41.4 5.57848 35.8055 0 28.98 0ZM28.98 5.50417C32.8164 5.50417 35.88 8.55899 35.88 12.3844C35.88 12.8577 35.7944 13.3091 35.7061 13.7604C31.2542 13.7824 27.0508 14.6411 23.2033 16.0832C22.4705 14.9881 22.0796 13.7009 22.08 12.3844C22.08 8.55899 25.1436 5.50417 28.98 5.50417ZM54.51 17.0299C54.5542 17.0189 54.5542 17.0382 54.5956 17.0299L53.5606 23.3047L53.3039 24.7688L54.51 25.8008C56.3529 27.3923 57.875 29.3191 58.995 31.4784L59.7706 33.025H63.48V44.0334H59.7706L58.995 45.5828C57.6481 48.2358 55.5229 50.5696 52.785 52.5456L50.8006 54.0097L52.0094 56.2471C52.6663 57.3535 52.5476 58.7185 51.5761 59.6873C51.3141 59.9596 50.9996 60.1764 50.6515 60.3244C50.3033 60.4725 49.9288 60.5488 49.5503 60.5488C49.1718 60.5488 48.7972 60.4725 48.4491 60.3244C48.1009 60.1764 47.7864 59.9596 47.5244 59.6873L45.54 57.7058L44.4194 56.6765L42.9511 57.0205C40.71 57.5351 38.3281 57.7938 35.88 57.7938C33.5004 57.8024 31.1274 57.543 28.8061 57.0205L27.3433 56.6765L26.22 57.7085L24.2356 59.6845C23.9735 59.9573 23.6589 60.1744 23.3105 60.3227C22.9621 60.471 22.5872 60.5475 22.2083 60.5475C21.8295 60.5475 21.4546 60.471 21.1062 60.3227C20.7578 60.1744 20.4431 59.9573 20.1811 59.6845C19.7269 59.2459 19.4365 58.6657 19.3582 58.0401C19.2799 57.4144 19.4183 56.7809 19.7506 56.2444L20.9594 54.0097L18.975 52.5483C13.9822 48.9321 11.04 44.0004 11.04 38.5292C11.04 28.2309 21.8316 19.2646 35.88 19.2646C39.2748 19.2646 42.5095 19.771 45.4544 20.726L46.92 21.2434L48.1289 20.2113C50.0995 18.4582 52.5366 17.5143 54.51 17.0299V17.0299ZM52.44 33.025C50.922 33.025 49.68 34.2635 49.68 35.7771C49.68 37.2908 50.922 38.5292 52.44 38.5292C53.958 38.5292 55.2 37.2908 55.2 35.7771C55.2 34.2635 53.958 33.025 52.44 33.025Z" fill="white"/>
</svg>
