<svg width="168" height="168" viewBox="0 0 168 168" fill="none" xmlns="http://www.w3.org/2000/svg">
<path d="M86.4268 135.871C113.914 135.871 136.197 113.588 136.197 86.1006C136.197 58.6133 113.914 36.3306 86.4268 36.3306C58.9395 36.3306 36.6567 58.6133 36.6567 86.1006C36.6567 113.588 58.9395 135.871 86.4268 135.871Z" fill="#E8E8E8"/>
<path d="M86.4281 119.372C104.804 119.372 119.7 104.476 119.7 86.1C119.7 67.7244 104.804 52.8281 86.4281 52.8281C68.0526 52.8281 53.1562 67.7244 53.1562 86.1C53.1562 104.476 68.0526 119.372 86.4281 119.372Z" fill="url(#paint0_linear)"/>
<path d="M85.7199 119.582C103.276 119.582 117.509 105.35 117.509 87.7934C117.509 70.2369 103.276 56.0046 85.7199 56.0046C68.1635 56.0046 53.9312 70.2369 53.9312 87.7934C53.9312 105.35 68.1635 119.582 85.7199 119.582Z" fill="white"/>
<path d="M86.6012 117.836C103.679 117.836 117.524 103.992 117.524 86.914C117.524 69.8359 103.679 55.9915 86.6012 55.9915C69.5232 55.9915 55.6787 69.8359 55.6787 86.914C55.6787 103.992 69.5232 117.836 86.6012 117.836Z" fill="#E8E8E8"/>
<path opacity="0.2" d="M86.4267 38.9556C112.414 38.9556 133.572 60.0999 133.572 86.1006C133.572 112.101 112.427 133.246 86.4267 133.246C60.4261 133.246 39.2949 112.088 39.2949 86.1006C39.2949 60.1131 60.4392 38.9556 86.4267 38.9556V38.9556ZM86.4267 36.3306C58.943 36.3306 36.6567 58.6168 36.6567 86.1006C36.6567 113.584 58.943 135.871 86.4267 135.871C113.911 135.871 136.197 113.584 136.197 86.1006C136.197 58.6168 113.911 36.3306 86.4267 36.3306Z" fill="#424242"/>
<path d="M32.4212 25.0425C32.29 22.26 31.66 21 30.5181 21C29.2581 21 28.6281 22.26 28.4969 25.0425L26.9875 47.2763C26.9875 48.5363 26.2262 49.4287 25.2156 49.4287C24.3362 49.4287 23.575 48.5494 23.575 47.2763L21.8031 25.0425C21.5537 22.1419 21.055 21 19.9131 21C18.7712 21 18.1412 22.1419 18.0231 25.0425L16.2512 47.2763C16.0019 48.5363 15.2406 49.4287 14.4794 49.4287C13.7181 49.4287 12.97 48.5494 12.7075 47.2763L11.3294 25.0425C11.08 22.26 10.5681 21 9.30812 21C8.04812 21 7.53625 22.26 7.28687 25.0425C6.65687 36.0281 5.26562 47.0137 5.26562 64.7062C5.26562 68.7487 6.52562 72.03 8.9275 73.9331L13.4819 77.595C14.6237 78.4744 15.3719 79.9969 15.2537 82.5169L13.4162 145.136C13.3637 148.772 16.2906 151.764 19.9262 151.764C23.575 151.764 26.5019 148.759 26.4362 145.11L24.4675 82.5169C24.3362 79.9837 25.0975 78.3431 26.2394 77.4638L30.7806 73.9331C33.1825 72.0431 34.5737 68.6306 34.5737 64.7062C34.5606 47.0269 33.1694 36.0281 32.4212 25.0425V25.0425Z" fill="url(#paint1_radial)"/>
<path opacity="0.2" d="M30.505 34.2169C31.1875 42.4725 31.9356 51.87 31.9356 64.7062C31.9356 67.8037 30.8856 70.4813 29.1531 71.8594L24.6119 75.39C23.4831 76.2694 21.6194 78.3825 21.8294 82.5956L23.7981 145.162C23.8112 146.226 23.4175 147.223 22.6694 147.971C21.9344 148.719 20.95 149.139 19.9 149.139C18.85 149.139 17.8656 148.732 17.1306 147.984C16.3956 147.236 15.9887 146.239 16.0019 145.215L17.8394 82.6481C18.0362 78.6975 16.435 76.5844 15.0962 75.5475L10.5287 71.8725C8.80938 70.5075 7.86437 67.9744 7.86437 64.7062C7.86437 52.1587 8.57312 42.9187 9.20312 34.7812L9.2425 34.2431L10.0694 47.4469C10.0825 47.565 10.0956 47.6831 10.1219 47.8012C10.6206 50.3081 12.4056 52.0537 14.4662 52.0537C16.5269 52.0537 18.3119 50.3081 18.8106 47.7881C18.8369 47.6831 18.85 47.5913 18.85 47.4863L19.9 34.335L20.9369 47.3944C20.9894 50.0063 22.84 52.0406 25.2025 52.0406C27.67 52.0406 29.5469 50.0456 29.5994 47.3681L30.505 34.2169V34.2169ZM30.5181 21C29.2581 21 28.6281 22.26 28.4969 25.0425L26.9875 47.2763C26.9875 48.5363 26.2262 49.4287 25.2156 49.4287C24.3362 49.4287 23.575 48.5494 23.575 47.2763L21.8031 25.0425C21.5537 22.1419 21.055 21 19.9131 21C18.7712 21 18.1412 22.1419 18.0231 25.0425L16.2512 47.2763C16.0019 48.5363 15.2406 49.4287 14.4794 49.4287C13.7181 49.4287 12.97 48.5494 12.7075 47.2763L11.3294 25.0425C11.08 22.26 10.5681 21 9.30812 21C8.04812 21 7.53625 22.26 7.28687 25.0425C6.65687 36.0281 5.26562 47.0137 5.26562 64.7062C5.26562 68.7487 6.52562 72.03 8.9275 73.9331L13.4819 77.595C14.6237 78.4744 15.3719 79.9969 15.2537 82.5169L13.4162 145.136C13.3637 148.772 16.2906 151.764 19.9262 151.764C23.575 151.764 26.5019 148.759 26.4362 145.11L24.4675 82.5169C24.3362 79.9837 25.0975 78.3431 26.2394 77.4638L30.7806 73.9331C33.1825 72.0431 34.5737 68.6306 34.5737 64.7062C34.5737 47.0269 33.1825 36.0413 32.4212 25.0425C32.29 22.26 31.66 21 30.5181 21V21Z" fill="#424242"/>
<path d="M160.123 83.4357V26.3682C160.123 21.5776 158.731 20.2782 155.975 22.0895C148.966 26.6963 142.181 49.1138 142.181 76.5713C142.181 86.6907 152.182 85.3257 152.628 88.3444L149.531 145.464C149.478 149.1 152.444 152.093 156.08 152.093C159.729 152.093 162.052 149.087 161.986 145.438L160.123 83.4357Z" fill="url(#paint2_radial)"/>
<path opacity="0.2" d="M157.366 24.3213C157.445 24.7544 157.498 25.4107 157.498 26.3688V83.5151L159.361 145.491C159.388 146.738 158.994 147.867 158.285 148.602C157.721 149.179 156.973 149.468 156.093 149.468C155.03 149.468 154.033 149.048 153.284 148.287C152.56 147.558 152.154 146.571 152.156 145.544L155.253 88.4763C155.266 88.3057 155.253 88.1351 155.227 87.9644C154.859 85.4182 152.444 84.4601 150.515 83.6857C147.575 82.5176 144.806 81.4019 144.806 76.5719C144.806 47.9463 152.077 27.8913 157.366 24.3213V24.3213ZM157.996 21.3157C157.432 21.3157 156.763 21.5782 155.975 22.09C148.966 26.6969 142.181 49.1144 142.181 76.5719C142.181 86.6913 152.182 85.3263 152.628 88.3451L149.531 145.465C149.478 149.101 152.444 152.093 156.08 152.093C159.729 152.093 162.052 149.088 161.986 145.439L160.123 83.4363V26.3688C160.123 22.9563 159.414 21.3157 157.996 21.3157V21.3157Z" fill="#424242"/>
<defs>
<linearGradient id="paint0_linear" x1="102.624" y1="66.2721" x2="66.5306" y2="110.46" gradientUnits="userSpaceOnUse">
<stop stop-color="#BDBDBD"/>
<stop offset="0.121" stop-color="#C8C8C8"/>
<stop offset="0.423" stop-color="#DDDDDD"/>
<stop offset="0.718" stop-color="#EAEAEA"/>
<stop offset="0.995" stop-color="#EEEEEE"/>
</linearGradient>
<radialGradient id="paint1_radial" cx="0" cy="0" r="1" gradientUnits="userSpaceOnUse" gradientTransform="translate(19.9144 86.3782) scale(47.376)">
<stop stop-color="#A8A8A8"/>
<stop offset="0.168" stop-color="#BFBFBF"/>
<stop offset="0.4" stop-color="#D9D9D9"/>
<stop offset="0.61" stop-color="#E9E9E9"/>
<stop offset="0.775" stop-color="#EEEEEE"/>
</radialGradient>
<radialGradient id="paint2_radial" cx="0" cy="0" r="1" gradientUnits="userSpaceOnUse" gradientTransform="translate(152.09 86.6986) scale(37.1266)">
<stop offset="0.002" stop-color="#A3A3A3"/>
<stop offset="0.185" stop-color="#B7B7B7"/>
<stop offset="0.516" stop-color="#D5D5D5"/>
<stop offset="0.799" stop-color="#E7E7E7"/>
<stop offset="1" stop-color="#EEEEEE"/>
</radialGradient>
</defs>
</svg>
