<svg width="95" height="130" viewBox="0 0 95 130" fill="none" xmlns="http://www.w3.org/2000/svg">
<path d="M42.8073 0C35.0021 0 28.5729 6.29107 28.5729 13.9286V21.0368L27.9798 19.1518C25.7166 11.8439 17.6552 7.65143 10.1868 9.86607C2.71855 12.0807 -1.566 19.9689 0.697266 27.2768L13.0053 66.4532C12.1132 66.7968 11.1548 67.1961 10.1868 67.7532C6.2202 70.0746 1.73637 74.7732 0.398343 82.2668C-0.598063 87.815 0.49324 92.6946 1.29037 95.3225V95.4711L4.99605 107.078C7.08957 113.715 11.3007 119.522 17.0122 123.647C22.7237 127.772 29.6352 129.998 36.734 130H61.7865C80.0776 130 95 115.398 95 97.5V51.5079V50.9275V50.635V50.4911C94.962 50.3471 94.9051 50.1986 94.8529 50.0546C94.4259 44.9429 91.2564 40.17 86.1035 38.1596C82.5259 36.7621 78.7633 36.9618 75.4277 38.3036C73.8747 35.3531 71.2998 33.0392 68.1635 31.7757C66.3855 31.0879 64.4837 30.7589 62.5725 30.8083C60.6613 30.8578 58.78 31.2848 57.0417 32.0636V13.9286C57.0417 6.29107 50.6125 0 42.8073 0ZM42.8073 9.28571C45.4928 9.28571 47.5521 11.3007 47.5521 13.9286V44.5436L42.6602 56.7311C41.972 58.4403 41.6195 60.2611 41.6211 62.0982L22.1959 64.5636L9.88793 24.5189C9.69286 23.9379 9.61911 23.3244 9.67109 22.715C9.72306 22.1055 9.89969 21.5125 10.1905 20.9711C10.4813 20.4298 10.8803 19.9511 11.3638 19.5636C11.8474 19.1761 12.4056 18.8876 13.0053 18.7154C15.5627 17.9539 18.1581 19.4071 18.9362 21.9096L28.72 53.6807L34.0579 52.0882H38.0625V13.9286C38.0625 11.3007 40.1217 9.28571 42.8073 9.28571ZM62.6785 40.0446C63.2858 40.0261 63.9928 40.1004 64.6049 40.3371C67.0864 41.3121 68.2726 44.0004 67.2714 46.4286L62.2325 58.76V58.9039L60.3013 63.6954C60.2112 63.9461 59.9882 64.0575 59.8601 64.2757C57.4046 62.377 54.3863 61.3084 51.2578 61.23C51.3147 60.8818 51.2578 60.5568 51.4096 60.2086L58.5268 42.9464C59.267 41.1125 60.8422 40.0818 62.6785 40.0446ZM80.6138 46.4286C81.2496 46.4286 81.9139 46.4843 82.5449 46.7211C83.4147 47.0484 84.1631 47.6251 84.6923 48.3757C85.2214 49.1262 85.5066 50.0157 85.5104 50.9275V51.0714C85.5104 51.6332 85.4345 52.2507 85.2115 52.8125L79.8736 65.7243C78.8772 68.1571 76.13 69.3179 73.6484 68.3382C71.1669 67.3586 70.1278 64.6704 71.129 62.2421L76.1679 49.9107C76.2438 49.725 76.2438 49.5114 76.3197 49.3304C76.818 48.1139 77.7242 47.1946 78.8345 46.7164C79.4038 46.4997 80.013 46.4017 80.6233 46.4286H80.6138ZM49.9245 70.3671C50.509 70.2257 51.1165 70.2004 51.7112 70.2925C52.3059 70.3846 52.8757 70.5924 53.3869 70.9036C53.8982 71.2147 54.3406 71.623 54.6879 72.1042C55.0353 72.5854 55.2806 73.1298 55.4095 73.7054C55.7795 75.2096 55.5755 75.9711 55.1153 76.7511C54.6503 77.5311 53.6681 78.4921 51.5567 79.2211L28.5729 85.0246C27.882 85.2047 27.2416 85.5351 26.6996 85.9914C26.1575 86.4476 25.7279 87.0178 25.4427 87.6594C25.1576 88.301 25.0243 88.9973 25.0528 89.6964C25.0813 90.3954 25.2709 91.0791 25.6074 91.6964L29.9062 99.385C30.2068 99.92 30.6126 100.392 31.1003 100.772C31.5879 101.153 32.1478 101.436 32.7476 101.604C33.3473 101.773 33.9752 101.823 34.5951 101.753C35.2149 101.683 35.8144 101.494 36.3591 101.196C36.9046 100.902 37.3854 100.505 37.7739 100.028C38.1623 99.552 38.4508 99.0051 38.6227 98.4193C38.7947 97.8335 38.8467 97.2202 38.7758 96.6147C38.7049 96.0092 38.5125 95.4233 38.2096 94.8907L36.8763 92.5693L54.3751 88.0657C54.5174 88.0332 54.6693 87.9775 54.8164 87.9264C58.4888 86.6729 61.4353 84.5325 63.2716 81.5425C64.7709 79.0911 65.345 76.245 65.0509 73.4175C66.4364 74.8846 68.2156 76.1011 70.2369 76.8996C72.8075 77.9174 75.6278 78.1704 78.3447 77.627C81.0616 77.0836 83.5542 75.7678 85.5104 73.8446V97.5C85.5104 110.375 74.9438 120.714 61.7865 120.714H36.7292C26.2907 120.714 17.119 114.075 14.0444 104.32L10.4858 92.7132C10.092 91.4596 9.31381 87.0721 9.88793 83.8593C10.7799 78.8729 13.0053 76.9507 15.0787 75.7343C17.1569 74.5225 18.6373 74.4343 18.6373 74.4343H18.9362L49.4785 70.5111C49.6303 70.4786 49.7774 70.4229 49.9245 70.3718V70.3671Z" fill="#580CE5"/>
</svg>
