<svg width="169" height="169" viewBox="0 0 169 169" fill="none" xmlns="http://www.w3.org/2000/svg">
<path d="M127.302 41.3571L123.996 41.0771L110.188 46.9367C110.188 46.9367 116.502 47.8451 116.758 47.9718C117.02 48.1039 123.605 44.0162 124.348 43.8445C125.074 43.6702 127.302 41.3571 127.302 41.3571" fill="#BE1E2D"/>
<path d="M158.861 43.9032L127.306 41.3577L114.578 47.9804L130.079 52.612L145.215 56.1848L156.643 46.4171L158.861 43.9032Z" fill="#C1BFC0"/>
<path d="M141.167 52.8124L113.023 46.6782L114.681 58.0646L134.069 65.9865L140.137 67.1985L142.751 60.3804L141.167 52.8124Z" fill="#E0D9DB"/>
<path d="M145.655 53.5758L165.183 44.7007C165.183 44.7007 157.535 52.7018 158.206 63.9086L145.655 68.1547V53.5758" fill="#CC293D"/>
<path d="M140.139 52.6123V66.9007L145.658 68.155L147.775 65.2187L147.287 54.9281L147.775 53.6131L144.398 52.6123H140.139Z" fill="#BE1E2D"/>
<path d="M147.979 67.2015C147.594 66.7922 127.335 61.738 127.335 61.738L120.173 68.1917L126.495 76.6048L130.641 83.4862L138.798 81.8279L145.296 75.0706L147.979 67.2015" fill="#737475"/>
<path d="M141.167 89.9654L105.968 106.881L106.1 99.4743L110.462 96.1101L120.174 93.8048L129.147 89.3475L138.289 84.7105L147.056 82.334L141.167 89.9654Z" fill="#243438"/>
<path d="M123.737 54.714L128.321 57.1935V63.7713L120.621 69.079L110.866 69.8712L105.559 65.9895L110.993 56.5492L123.032 53.7449L123.737 54.714Z" fill="#BE1E2D"/>
<path d="M91.0225 49.4483C91.0225 49.4483 115.805 41.2914 125.969 52.1444L116.235 54.4364L104.078 56.5516L91.0225 49.4483" fill="#CC293D"/>
<path d="M105.257 51.2363C105.257 51.2363 112.585 45.1259 125.965 52.1447V55.6224L105.257 65.9895V51.2363" fill="#D3314C"/>
<path d="M91.0225 49.4487L106.79 50.5155V65.8391L91.0225 62.1079V49.4487Z" fill="#BE1E2D"/>
<path d="M105.967 100.74L115.589 96.6098V98.8279L141.166 85.7384V77.9644L132.241 81.4051L120.297 87.563L111.723 89.1263L106.785 90.4149L105.967 100.74Z" fill="#243438"/>
<path d="M73.9373 62.6147L92.2078 58.7251L117.827 67.5342L112.303 72.8683L95.8809 74.3074C95.8809 74.3074 81.3179 74.3946 80.4386 72.3085C79.5672 70.225 72.757 70.2012 72.5827 69.0579C72.3952 67.9092 73.9373 62.6147 73.9373 62.6147" fill="#243438"/>
<path d="M108.245 77.3704L88.7384 77.9645L55.9814 94.7404V103.935L81.0067 109.243L104.131 90.6527L108.245 77.3704Z" fill="#939598"/>
<path d="M17.3291 114.154C17.3291 114.154 26.0933 122.556 41.2796 120.441L40.8439 119.762V114.632L38.9585 114.785L23.1306 110.451H18.0474L17.3291 114.154" fill="#BF3413"/>
<path d="M6.62582 94.7403C6.62582 94.7403 3.68152 80.8216 16.5915 74.3072C16.5915 74.3072 18.9179 72.773 24.6956 73.7579C24.6956 73.7579 39.2587 76.182 39.2587 79.8921C39.2587 83.5916 37.3601 84.5766 37.3601 84.5766L26.5414 92.3189L19.8263 96.1134H14.5873L6.61261 94.7403" fill="#2E4044"/>
<path d="M20.1514 94.7407C20.1514 94.7407 21.8652 80.5156 29.9824 77.9331C29.9824 77.9331 36.7504 75.2291 40.5449 81.6221C44.3606 88.015 31.8097 90.109 31.8097 90.109L20.1382 94.7407" fill="#243438"/>
<path d="M0.644043 99.895L11.9776 94.7405L34.8771 96.3724L35.4422 106.576L21.7506 116.346L1.58146 109.618L0.644043 99.895Z" fill="#CC293D"/>
<path d="M18.7605 111.065L1.58057 106.338L1.908 109.243L18.6152 114.497L18.7605 111.065Z" fill="#D0C9CC"/>
<path d="M61.4312 63.56C61.4312 63.56 70.367 59.8341 83.7365 63.0688C83.7365 63.0688 74.9274 64.1409 73.8183 65.9999L71.8273 67.5499C71.8273 67.5499 66.9263 65.5985 66.6649 65.5325C66.4167 65.4639 61.4312 63.56 61.4312 63.56" fill="#CC293D"/>
<path d="M61.4312 63.5605L61.8669 70.8513L75.3103 66.0956L61.4312 63.5605Z" fill="#BE1E2D"/>
<path d="M117.058 85.9231L134.212 78.5347V85.4901L117.058 92.9498V85.9231Z" fill="#E0D9DB"/>
<path d="M102.192 69.87C102.192 69.87 126.806 62.4974 136.903 72.479L127.244 75.4233L115.171 77.3668L102.192 69.87Z" fill="#CC293D"/>
<path d="M0 96.3613L0.644313 101.629L14.5868 105.366L13.9293 98.8277L0 96.3613Z" fill="#D0C9CC"/>
<path d="M14.5872 105.366L20.7161 102.744L19.8236 96.1106L13.9297 98.8278L14.5872 105.366Z" fill="#A5A2A3"/>
<path d="M74.2516 65.5193L102.184 69.871V82.752C102.184 82.752 57.3886 101.421 53.2217 104.693L41.7931 115.211C41.7931 115.211 29.8178 118.115 18.0274 110.859L16.583 96.9005C16.583 96.9005 35.989 73.4966 74.2516 65.5193" fill="#BE1E2D"/>
<path d="M18.0469 101.63C18.0469 101.63 23.0641 104.476 33.7639 105.089C33.7639 105.089 35.7391 105.762 36.1484 107.729L37.3578 116.343L23.0614 114.508L19.6682 113.225L18.5116 111.152L18.0469 101.627" fill="#243438"/>
<path d="M18.0465 111.065C18.0465 111.065 24.0064 115.808 39.2507 115.776L39.4989 119.739C39.4989 119.739 27.3468 121.289 18.4584 114.405L18.0386 111.065" fill="#D0C9CC"/>
<path d="M22.6222 93.2135L14.0296 90.6521L0 96.3611L13.9293 98.8275L22.6222 94.7398V93.2135Z" fill="#D8D4D5"/>
<path d="M16.5913 96.9322C16.5913 96.9322 20.032 104.778 38.1679 101.149C38.1679 101.149 78.4374 73.8188 102.203 69.2241L74.2705 64.875C74.2705 64.8724 36.8528 73.4122 16.6019 96.9296" fill="#DB3A0E"/>
<path d="M117.112 72.482C117.112 72.482 124.781 66.8575 138.805 73.3217V76.5143L117.112 86.0522V72.482" fill="#BE1E2D"/>
<path d="M102.192 69.8704L117.112 72.4819V86.0521L102.192 82.7566V69.8704Z" fill="#BE1E2D"/>
<path d="M105.38 80.1296C105.38 80.1296 96.1616 81.2704 100.645 91.722L104.77 96.1978L112.409 92.2448L117.065 92.9499V85.9232L111.881 84.8722C111.879 84.8722 111.092 79.8603 105.38 80.1296" fill="#C1BFC0"/>
<path d="M87.6681 85.723C87.6681 85.723 79.7911 85.3242 77.8212 87.8276C77.8212 87.8276 70.1739 93.2224 71.3543 108.232L72.1412 118.628L72.6693 119.943C72.6693 119.943 87.4278 125.208 93.2108 124.81C93.2108 124.81 98.455 123.885 101.481 120.732C101.481 120.732 110.032 113.098 107.143 95.4643C107.143 95.4643 105.608 88.1603 96.1339 86.7264L87.6681 85.723" fill="#2E4044"/>
<path d="M103.775 107.878C102.73 113.375 99.545 117.381 96.6641 116.821C93.7832 116.277 92.3018 111.379 93.3475 105.887C94.3932 100.389 97.5857 96.383 100.467 96.9375C103.35 97.4868 104.829 102.382 103.775 107.878Z" fill="#D0C9CC"/>
<path d="M152.23 61.5001C152.23 61.5001 145.959 61.1594 144.382 63.301C144.382 63.301 138.298 67.9247 139.244 80.7793L139.864 89.6888L140.279 90.819C140.279 90.819 152.032 95.3265 156.632 94.9885C156.632 94.9885 160.81 94.1963 163.223 91.4923C163.223 91.4923 170.023 84.9488 167.723 69.8418C167.723 69.8418 166.498 63.5835 158.959 62.3556L152.23 61.5001" fill="#2E4044"/>
<path d="M165.065 80.4841C164.215 85.1897 161.685 88.6225 159.396 88.1525C157.107 87.6772 155.926 83.4786 156.755 78.773C157.595 74.0674 160.125 70.6346 162.425 71.1072C164.714 71.5773 165.895 75.7785 165.065 80.4841Z" fill="#D0C9CC"/>
<path d="M40.1285 112.43L51.4621 107.275L73.8678 110.053L78.2195 118.363L61.2905 126.048L39.8486 120.603L40.1285 112.43Z" fill="#CC293D"/>
<path d="M45.2617 105.469L58.3328 100.396L75.9722 103.116L73.8676 110.053L61.2903 115.411L45.5601 111.751L45.2617 105.469Z" fill="#D8D4D5"/>
<path d="M39.2383 115.786L39.505 119.753L60.997 124.823V120.796L39.2383 115.786Z" fill="#D0C9CC"/>
<path d="M45.2588 105.469L60.9969 109.164L61.2874 115.411L45.5572 111.752L45.2588 105.469Z" fill="#D0C9CC"/>
<path d="M60.998 109.163L75.9704 103.116L73.8658 110.053L61.2885 115.411L60.998 109.163Z" fill="#A5A2A3"/>
<path d="M85.0029 63.8233C85.0029 63.8233 85.1667 52.466 95.8639 52.1385C95.8639 52.1385 105.658 51.3991 103.928 63.4166C102.209 75.4315 102.291 64.4834 101.792 64.5706C101.296 64.6498 87.9657 65.9701 87.9657 65.9701L85.0029 63.8233" fill="#2E3192"/>
<path d="M85.2392 60.5969C85.2392 60.5969 86.0605 58.6455 89.8524 58.7274C89.8524 58.7274 99.9555 58.7274 100.579 61.1145C100.579 61.1145 101.904 65.0675 85.6723 64.3255C85.675 64.3255 83.9453 63.3326 85.2392 60.5969" fill="#939598"/>
<path d="M165.172 44.7008L158.861 43.9033L140.139 52.6121L146.996 53.9615L165.172 44.7008Z" fill="#BE1E2D"/>
<path d="M81.8465 66.0685L74.2599 64.8882C74.2599 64.8882 36.8423 73.428 16.5913 96.9454C16.5913 96.9454 17.0798 98.0492 18.6431 99.2454C41.0593 75.0546 72.3745 67.7823 81.8465 66.0685" fill="#CC293D"/>
<path d="M25.1318 101.777C28.2715 102.295 32.5045 102.279 38.1712 101.149C38.1712 101.149 78.4408 73.8182 102.206 69.2235L93.2388 67.824C56.9329 73.7839 32.1084 95.1228 25.1424 101.775" fill="#CC293D"/>
<path d="M81.8471 66.0684C72.3752 67.7821 41.06 75.0544 18.6411 99.2452C19.9429 100.23 22 101.278 25.1291 101.791C32.1057 95.139 56.9223 73.8001 93.2256 67.8402L81.8471 66.0684" fill="white"/>
<path d="M123.264 48.7718L134.6 41.9458L143.94 42.6984L129.944 50.3298L123.264 48.7718Z" fill="#CC293D"/>
<path d="M78.2193 90.9768C78.2193 90.9768 74.5514 94.9245 74.3745 99.5535L88.1084 102.429C88.1084 102.429 89.4842 96.6858 93.2259 93.2715L78.2193 90.9768" fill="#939598"/>
<path d="M144.491 65.9043C144.491 65.9043 141.33 69.3186 141.174 73.3112L153.028 75.7987C153.028 75.7987 154.222 70.837 157.446 67.89L144.491 65.9043Z" fill="#939598"/>
<path d="M13.4046 77.9644C13.0508 77.996 9.36182 82.493 9.36182 84.2992L20.1514 86.7233C20.1514 86.7233 22.3167 80.9588 24.4794 79.525L13.4046 77.9644Z" fill="#939598"/>
</svg>
