<svg width="168" height="168" viewBox="0 0 168 168" fill="none" xmlns="http://www.w3.org/2000/svg">
<path d="M24.9375 82.6875H143.062V148.05H24.9375V82.6875Z" fill="#4D4D4D"/>
<path d="M5.25 157.763H162.75V162.75H5.25V157.763Z" fill="#ACB8BF"/>
<path d="M24.9375 148.05H143.062V153.038H24.9375V148.05Z" fill="#ACB8BF"/>
<path d="M44.625 138.075H123.375V143.063H44.625V138.075Z" fill="#ACB8BF"/>
<path d="M107.625 96.8623H126V128.362H107.625V96.8623Z" fill="#89664C"/>
<path d="M110.25 99.4873H123.375V125.737H110.25V99.4873Z" fill="#B4D7EE"/>
<path d="M115.5 98.1748H118.125V127.05H115.5V98.1748Z" fill="#89664C"/>
<path d="M42 96.8623H60.375V128.362H42V96.8623Z" fill="#89664C"/>
<path d="M44.625 99.4873H57.75V125.737H44.625V99.4873Z" fill="#B4D7EE"/>
<path d="M49.875 98.1748H52.5V127.05H49.875V98.1748Z" fill="#89664C"/>
<path d="M15.2246 152.775H153.037V157.763H15.2246V152.775Z" fill="#DAE3EA"/>
<path d="M34.6504 143.062H133.088V148.05H34.6504V143.062Z" fill="#DAE3EA"/>
<path d="M12.5996 72.9749H155.4V77.9624H12.5996V72.9749Z" fill="#94989B"/>
<path d="M5.25 77.7002H162.75V82.6877H5.25V77.7002Z" fill="#DAE3EA"/>
<path d="M84 12.5999L5.25 55.6499L11.8125 65.6249L84 17.5874L156.188 65.6249L162.75 55.6499L84 12.5999Z" fill="#94989B"/>
<path d="M84 5.25L5.25 55.65V63.2625L84 12.6L162.75 63.2625V55.65L84 5.25Z" fill="#DAE3EA"/>
<path d="M84 17.5876L5.25 67.9877V72.9752H162.75V67.9877L84 17.5876Z" fill="#DAE3EA"/>
<path d="M83.9992 24.9375L18.6367 67.9875H149.362L83.9992 24.9375Z" fill="#ACB8BF"/>
<path d="M84.0008 45.6748C81.3758 45.6748 79.2758 43.8373 79.2758 41.4748C79.2758 39.1123 81.3758 37.2748 84.0008 37.2748C86.6258 37.2748 88.7258 39.1123 88.7258 41.4748H93.4508C93.4508 37.5373 90.5633 34.3873 86.3633 33.5998V31.2373H81.6383V33.5998C77.7008 34.6498 74.5508 37.7998 74.5508 41.4748C74.5508 45.9373 78.7508 49.6123 84.0008 49.6123C86.6258 49.6123 88.7258 51.4498 88.7258 53.8123C88.7258 56.1748 86.6258 58.0123 84.0008 58.0123C81.3758 58.0123 79.2758 56.1748 79.2758 53.8123H74.5508C74.5508 57.7498 77.4383 60.8998 81.6383 61.6873V64.0498H86.3633V61.6873C90.3008 60.6373 93.4508 57.4873 93.4508 53.8123C93.4508 49.3498 89.2508 45.6748 84.0008 45.6748" fill="white"/>
<path d="M17.0625 87.9375H32.8125V147.525H17.0625V87.9375Z" fill="#DAE3EA"/>
<path d="M15.2246 147.525H34.9121V152.775H15.2246V147.525Z" fill="#94989B"/>
<path d="M15.2246 82.6875H34.9121V87.9375H15.2246V82.6875Z" fill="#94989B"/>
<path d="M18.6367 90.2998H20.4742V145.425H18.6367V90.2998Z" fill="#C8D0D6"/>
<path d="M29.3984 90.2998H31.2359V145.425H29.3984V90.2998Z" fill="#C8D0D6"/>
<path d="M25.7246 90.2998H27.5621V145.425H25.7246V90.2998Z" fill="#C8D0D6"/>
<path d="M22.3125 90.2998H24.15V145.425H22.3125V90.2998Z" fill="#C8D0D6"/>
<path d="M135.188 87.9375H150.938V147.525H135.188V87.9375Z" fill="#DAE3EA"/>
<path d="M133.35 147.525H153.037V152.775H133.35V147.525Z" fill="#94989B"/>
<path d="M133.35 82.6875H153.037V87.9375H133.35V82.6875Z" fill="#94989B"/>
<path d="M136.762 90.2998H138.599V145.425H136.762V90.2998Z" fill="#C8D0D6"/>
<path d="M147.523 90.2998H149.361V145.425H147.523V90.2998Z" fill="#C8D0D6"/>
<path d="M143.85 90.2998H145.687V145.425H143.85V90.2998Z" fill="#C8D0D6"/>
<path d="M140.438 90.2998H142.275V145.425H140.438V90.2998Z" fill="#C8D0D6"/>
<path d="M69.8242 111.038V136.763H97.9117V111.038C98.1742 91.8755 69.8242 92.4005 69.8242 111.038" fill="#89664C"/>
<path d="M71.9258 112.087V136.762H96.0758V112.087C96.0758 94.4995 71.9258 94.762 71.9258 112.087" fill="#594640"/>
<path d="M72.4492 112.349V136.761H95.8117V112.349C95.5492 94.7615 72.4492 95.024 72.4492 112.349Z" fill="#A37D64"/>
<path d="M68.5117 136.763H99.7492V138.338H68.5117V136.763Z" fill="#94989B"/>
<path d="M85.5742 111.562H93.7117C93.4492 105.787 89.7742 102.637 85.5742 101.85V111.562Z" fill="#594640"/>
<path d="M82.95 111.562V101.85C79.0125 102.375 75.075 105.787 74.8125 111.562H82.95Z" fill="#594640"/>
<path d="M85.3125 111.562H93.45C93.1875 105.787 89.5125 102.637 85.3125 101.85V111.562Z" fill="#89664C"/>
<path d="M82.6883 111.562V101.85C78.7508 102.375 74.8133 105.787 74.5508 111.562H82.6883Z" fill="#89664C"/>
<path d="M85.5742 114.188H93.7117V122.062H85.5742V114.188Z" fill="#594640"/>
<path d="M74.8125 114.188H82.95V122.062H74.8125V114.188Z" fill="#594640"/>
<path d="M85.3125 114.188H93.45V122.062H85.3125V114.188Z" fill="#89664C"/>
<path d="M74.5508 114.188H82.6883V122.062H74.5508V114.188Z" fill="#89664C"/>
<path d="M85.5742 125.737H93.7117V133.612H85.5742V125.737Z" fill="#594640"/>
<path d="M74.8125 125.737H82.95V133.612H74.8125V125.737Z" fill="#594640"/>
<path d="M85.3125 125.475H93.45V133.35H85.3125V125.475Z" fill="#89664C"/>
<path d="M74.5508 125.475H82.6883V133.35H74.5508V125.475Z" fill="#89664C"/>
<path d="M91.6133 117.6H95.0258V124.425H91.6133V117.6Z" fill="#DAE3EA"/>
<path d="M91.875 117.862H94.7625V124.162H91.875V117.862Z" fill="#ACB8BF"/>
<path d="M93.7121 123.637L93.4496 122.325L93.7121 122.062C93.7121 121.8 93.4496 121.537 93.1871 121.537C92.9246 121.537 92.6621 121.8 92.6621 122.062C92.6621 122.325 92.6621 122.325 92.9246 122.325L92.6621 123.637H93.7121" fill="#3E4347"/>
<path d="M93.1875 121.013C93.9124 121.013 94.5 120.425 94.5 119.7C94.5 118.975 93.9124 118.388 93.1875 118.388C92.4626 118.388 91.875 118.975 91.875 119.7C91.875 120.425 92.4626 121.013 93.1875 121.013Z" fill="#94989B"/>
<path d="M93.1875 120.75C93.9124 120.75 94.5 120.162 94.5 119.438C94.5 118.713 93.9124 118.125 93.1875 118.125C92.4626 118.125 91.875 118.713 91.875 119.438C91.875 120.162 92.4626 120.75 93.1875 120.75Z" fill="#DAE3EA"/>
</svg>
