<svg width="169" height="168" viewBox="0 0 169 168" fill="none" xmlns="http://www.w3.org/2000/svg">
<g clip-path="url(#clip0)">
<path d="M18.8396 147.696L17.9418 146.541C17.3344 145.806 16.4498 144.717 15.3276 143.338C14.2053 142.052 12.8322 140.477 11.261 138.679C9.66342 136.907 7.78858 134.899 5.71569 132.773C3.6428 130.633 1.34545 128.363 -1.09713 125.961C-3.53971 123.559 -6.14072 121.052 -8.87377 118.48C-14.3135 113.335 -20.2285 107.914 -26.2227 102.546C-32.2169 97.1778 -38.3431 91.9016 -44.0997 86.9272C-46.9912 84.4466 -49.777 82.0447 -52.4309 79.761C-53.7512 78.6454 -55.0187 77.556 -56.2598 76.4928C-57.2819 75.6263 -58.3298 74.7903 -59.4021 73.986C-61.277 72.5947 -62.5841 71.8597 -63.6931 71.3872C-64.789 70.9147 -65.8584 70.6128 -66.7166 70.4422C-67.3731 70.2997 -68.0396 70.2076 -68.7103 70.1666C-69.1724 70.1272 -69.4101 70.1272 -69.4101 70.1272C-78.5466 70.101 -85.9404 62.7116 -85.914 53.6291C-85.8876 44.5466 -78.4542 37.1966 -69.3177 37.2228C-68.7367 37.2228 -68.169 37.2491 -67.6145 37.3147L-66.0697 37.4853C-66.0697 37.4853 -65.2907 37.5641 -63.8516 37.8135C-62.4124 38.0628 -60.3263 38.4828 -57.7517 39.2835C-55.1639 40.0841 -52.1272 41.2522 -48.8132 43.0766C-45.4992 44.8747 -42.1588 47.3291 -39.307 49.8228C-37.881 51.0697 -36.5211 52.3429 -35.2668 53.5635C-34.0653 54.7316 -32.8374 55.9391 -31.5567 57.1729C-29.0349 59.6272 -26.3811 62.1997 -23.6349 64.8772C-20.8886 67.5679 -18.0499 70.3504 -15.1585 73.1722C-12.2802 76.0204 -9.34908 78.921 -6.43119 81.8216C-0.582202 87.636 5.22717 93.5422 10.6008 99.1729C13.2943 101.982 15.8689 104.738 18.2851 107.376C20.7012 110.027 22.9722 112.534 25.0847 114.844C29.3229 119.503 32.8613 123.388 35.3303 126.118C36.545 127.418 37.4956 128.442 38.1558 129.15L39.1724 130.2C44.3216 135.529 44.1632 143.995 38.8027 149.127C33.4422 154.245 24.9262 154.088 19.7638 148.759C19.4337 148.418 19.1169 148.063 18.8396 147.696V147.696Z" fill="#E0BB95"/>
<path d="M87.6297 88.2919C87.6297 88.2919 81.2526 85.2206 71.6671 80.6269C69.2773 79.4719 66.6763 78.2381 63.9433 76.9125C63.2567 76.5844 62.5569 76.2431 61.8572 75.915C61.197 75.6131 60.5369 75.2981 59.8635 74.9831C58.4112 74.3006 56.9192 73.605 55.4141 72.8963C49.4066 70.0875 43.1484 67.1738 36.9693 64.5881C30.7902 62.0025 24.6904 59.7581 18.9998 58.1175C16.3056 57.3342 13.584 56.6469 10.8403 56.0569C8.52655 55.5734 6.19149 55.1967 3.84265 54.9281C-0.435165 54.4556 -3.82837 54.4819 -6.11251 54.6656C-7.26118 54.7444 -8.14579 54.8494 -8.73993 54.9281C-9.33407 55.0069 -9.65095 55.0463 -9.65095 55.0463L-9.8754 55.0725C-18.9195 56.28 -27.2243 49.9669 -28.439 40.9763C-29.6537 31.9856 -23.303 23.73 -14.2588 22.5225C-13.9288 22.4831 -13.5459 22.4438 -13.2026 22.4175C-13.2026 22.4175 -12.6349 22.3781 -11.5786 22.2994C-10.5224 22.2338 -8.96438 22.155 -7.02352 22.155C-3.1154 22.1288 2.3771 22.4569 8.60898 23.5594C11.7381 24.1106 14.9861 24.8325 18.4321 25.7906C21.7461 26.7094 25.2053 27.8119 28.6513 29.0456C35.583 31.5263 42.607 34.6369 49.301 37.9444C55.995 41.2519 62.3721 44.7169 68.2079 47.8931C69.6602 48.6806 71.0862 49.455 72.4725 50.2163C73.2251 50.6231 73.9645 51.03 74.7038 51.4238C75.3904 51.8044 76.0637 52.185 76.7239 52.5525C79.3777 54.0356 81.8863 55.44 84.2101 56.7263C93.4787 61.8975 99.6577 65.3494 99.6577 65.3494C105.916 68.8406 108.147 76.7288 104.635 82.9631C101.255 88.9613 93.7559 91.2188 87.6297 88.2919V88.2919Z" fill="#E0BB95"/>
<path d="M87.0737 60.2439L101.954 68.1058C113.176 74.0383 119.58 79.1833 115.909 86.0739C112.252 92.912 104.502 90.6414 93.1208 84.6302C88.7901 82.3464 86.2155 80.9814 78.2408 76.7683C78.2408 76.7683 77.7919 72.9226 80.6966 67.4758C83.7333 61.7926 87.0737 60.2439 87.0737 60.2439V60.2439Z" fill="#D7598B"/>
<path d="M29.0339 120.854L39.9925 133.586C48.2576 143.18 52.3242 150.307 46.3564 155.386C40.4414 160.413 34.0511 155.491 25.6803 145.753C22.4983 142.051 20.5971 139.846 14.7217 133.021C14.7217 133.021 15.7119 129.281 20.4386 125.264C25.3634 121.078 29.0339 120.854 29.0339 120.854Z" fill="#D7598B"/>
<path d="M143.347 59.9287C143.4 59.0756 143.175 58.2356 142.911 57.435C142.224 55.3481 141.208 53.3137 139.571 51.8437C137.933 50.3737 135.61 49.5337 133.471 50.0981C130.342 50.9119 128.665 54.2194 127.358 57.1594C125.998 60.2306 124.572 63.3412 122.407 65.9137C120.241 68.4862 120.281 71.61 116.914 71.8725C119.713 73.29 120.281 72.2006 123.08 73.6181C124.083 74.13 125.1 74.6419 126.196 74.9437C130.064 76.02 132.652 75.1275 135.491 72.2794C138.316 69.4444 140.838 66.2287 142.502 62.5931C142.885 61.7531 143.281 60.8606 143.347 59.9287V59.9287Z" fill="#2F2F2F"/>
<path d="M112.871 70.4684C113.927 70.7046 116.542 70.7834 117.439 70.1928C122.325 66.9509 126.576 62.5278 128.886 57.1596C128.86 59.8109 127.83 62.449 126.048 64.4309C129.401 61.5362 131.951 57.8352 133.455 53.6815C134.894 59.0759 132.887 64.7853 130.299 69.7334C133.574 66.8853 136.148 63.2496 137.733 59.2203C137.97 61.6484 136.056 69.589 134.907 70.8096C136.663 68.9721 142.222 63.5778 141.826 62.7903C142.486 65.5728 137.284 73.3559 132.029 75.2328C130.933 75.6265 129.784 75.9021 128.636 75.8628C125.665 75.7709 122.8 75.2721 120.12 73.999C118.166 73.054 113.98 71.7021 112.871 70.4684V70.4684Z" fill="#D7598B"/>
<path d="M169.002 -1.32601C172.29 0.524618 174.64 2.58524 174.244 3.28087L144.405 55.8727C144.009 56.5684 141.025 55.6365 137.737 53.799C134.449 51.9615 132.113 49.9009 132.509 49.2052L162.348 -3.38663C162.731 -4.09538 165.714 -3.17663 169.002 -1.32601V-1.32601Z" fill="#F48120"/>
<path d="M94.2451 67.1611C94.2451 67.1611 94.6016 67.253 95.209 67.463C95.5126 67.5549 95.8691 67.6993 96.2916 67.8568C96.7009 68.0011 97.1762 68.2243 97.6383 68.3949C98.6286 68.8018 99.8036 69.3661 100.979 70.0224C102.167 70.6918 103.395 71.453 104.583 72.293C105.785 73.1068 106.92 73.9993 107.976 74.8524C109.019 75.7186 109.957 76.5718 110.736 77.333C112.294 78.8555 113.192 80.0105 113.192 80.0105L112.32 81.008C112.32 81.008 111.066 80.2861 109.283 79.1311C107.514 77.9761 105.151 76.4405 102.801 74.9049C101.612 74.1436 100.451 73.3824 99.3547 72.6605C98.2589 71.9255 97.2686 71.2299 96.384 70.5999C95.9087 70.2455 95.539 69.983 95.1957 69.6943C94.8525 69.4186 94.562 69.1824 94.3243 68.9724C93.849 68.5655 93.585 68.303 93.585 68.303L94.2451 67.1611Z" fill="white"/>
<path d="M33.6562 133.127C33.6562 133.127 33.8938 133.285 34.3163 133.574C34.5144 133.718 34.7652 133.902 35.0425 134.099C35.3198 134.309 35.6234 134.545 35.9535 134.794C37.3134 135.844 39.0298 137.406 40.5614 139.126C42.1194 140.832 43.5321 142.656 44.4827 144.087C45.4333 145.531 45.9879 146.541 45.9879 146.541L44.9184 147.316C44.9184 147.316 44.1526 146.489 43.004 145.242C41.8685 143.995 40.3634 142.341 38.8318 140.727C37.287 139.112 35.7423 137.485 34.5804 136.277C34.2635 135.936 34.0259 135.674 33.7882 135.398C33.5637 135.136 33.3657 134.899 33.2073 134.716C32.8904 134.322 32.7188 134.099 32.7188 134.099L33.6562 133.127V133.127Z" fill="white"/>
<path d="M53.3933 135.227L52.4955 134.072C51.8882 133.337 51.0036 132.248 49.8813 130.87C48.759 129.583 47.3859 128.008 45.8147 126.21C44.2171 124.438 42.3423 122.43 40.2694 120.304C38.1965 118.165 35.8992 115.894 33.4566 113.492C31.014 111.09 28.413 108.583 25.68 106.011C20.2403 100.866 14.3253 95.4454 8.33106 90.0772C2.33684 84.7091 -3.78941 79.4329 -9.54598 74.4585C-12.4375 71.9779 -15.2233 69.576 -17.8772 67.2922C-19.1975 66.1766 -20.465 65.0872 -21.7061 64.0241C-22.7282 63.1576 -23.7761 62.3216 -24.8484 61.5172C-26.7232 60.126 -28.0304 59.391 -29.1394 58.9185C-30.2353 58.446 -31.3047 58.1441 -32.1629 57.9735C-32.8194 57.8309 -33.4859 57.7388 -34.1566 57.6978C-34.6187 57.6585 -34.8564 57.6585 -34.8564 57.6585C-43.9929 57.6322 -51.3867 50.2429 -51.3603 41.1603C-51.3339 32.0778 -43.9005 24.7278 -34.7639 24.7541C-34.183 24.7541 -33.6153 24.7803 -33.0607 24.846L-31.516 25.0166C-31.516 25.0166 -30.737 25.0953 -29.2979 25.3447C-27.8587 25.5941 -25.7726 26.0141 -23.198 26.8147C-20.6102 27.6153 -17.5735 28.7835 -14.2595 30.6078C-10.9455 32.406 -7.60512 34.8603 -4.75324 37.3541C-3.3273 38.601 -1.96739 39.8741 -0.713088 41.0947C0.488396 42.2628 1.71629 43.4704 2.99699 44.7041C5.51879 47.1585 8.17262 49.731 10.9189 52.4085C13.6651 55.0991 16.5038 57.8816 19.3953 60.7035C22.2736 63.5516 25.2046 66.4522 28.1225 69.3529C33.9715 75.1672 39.7809 81.0735 45.1546 86.7041C47.848 89.5129 50.4226 92.2691 52.8388 94.9072C55.255 97.5585 57.5259 100.065 59.6384 102.375C63.8766 107.035 67.415 110.92 69.884 113.65C71.0987 114.949 72.0493 115.973 72.7095 116.682L73.7261 117.732C78.8754 123.06 78.7169 131.526 73.3564 136.658C67.996 141.777 59.48 141.619 54.3175 136.29C53.9875 135.949 53.6706 135.595 53.3933 135.227V135.227Z" fill="#E0BB95"/>
<path d="M63.5876 108.386L74.5461 121.117C82.8113 130.711 86.8779 137.838 80.91 142.918C74.9951 147.945 68.6047 143.023 60.234 133.284C57.052 129.583 55.1508 127.378 49.2754 120.553C49.2754 120.553 50.2656 116.812 54.9923 112.796C59.9171 108.609 63.5876 108.386 63.5876 108.386V108.386Z" fill="#D7598B"/>
<path d="M68.1943 120.659C68.1943 120.659 68.4319 120.816 68.8544 121.105C69.0525 121.249 69.3033 121.433 69.5806 121.63C69.8579 121.84 70.1615 122.076 70.4916 122.326C71.8515 123.376 73.5679 124.937 75.0995 126.657C76.6575 128.363 78.0702 130.187 79.0208 131.618C79.9714 133.062 80.526 134.072 80.526 134.072L79.4565 134.847C79.4565 134.847 78.6907 134.02 77.5421 132.773C76.4066 131.526 74.9014 129.872 73.3699 128.258C71.8251 126.644 70.2804 125.016 69.1185 123.809C68.8016 123.467 68.5639 123.205 68.3263 122.929C68.1018 122.667 67.9038 122.431 67.7454 122.247C67.4285 121.853 67.2568 121.63 67.2568 121.63L68.1943 120.659V120.659Z" fill="white"/>
</g>
<defs>
<clipPath id="clip0">
<rect width="169" height="168" fill="white"/>
</clipPath>
</defs>
</svg>
