<svg width="177" height="164" viewBox="0 0 177 164" fill="none" xmlns="http://www.w3.org/2000/svg">
<g filter="url(#filter0_d)">
<path d="M153.988 6.16849C131.603 25.3899 112.665 43.6873 95.3259 67.56C87.6794 78.0894 79.1759 90.4825 73.6175 102.183C70.4443 108.388 64.724 118.083 62.7739 127.404C52.1081 117.559 40.6516 106.384 28.9298 97.6319C20.5749 91.3959 -3.48959 104.11 6.30599 111.423C23.8622 124.524 38.4627 140.842 55.5386 154.527C62.681 160.245 78.51 147.828 82.2297 142.619C94.4397 125.456 96.1086 104.476 105.007 85.7548C118.594 57.1228 142.691 33.6028 166.482 13.1784C182.244 -1.40739 165.965 -4.09765 154.012 6.16849" fill="#37B34A"/>
</g>
<defs>
<filter id="filter0_d" x="0" y="0" width="177" height="164" filterUnits="userSpaceOnUse" color-interpolation-filters="sRGB">
<feFlood flood-opacity="0" result="BackgroundImageFix"/>
<feColorMatrix in="SourceAlpha" type="matrix" values="0 0 0 0 0 0 0 0 0 0 0 0 0 0 0 0 0 0 127 0"/>
<feOffset dy="4"/>
<feGaussianBlur stdDeviation="2"/>
<feColorMatrix type="matrix" values="0 0 0 0 0 0 0 0 0 0 0 0 0 0 0 0 0 0 0.25 0"/>
<feBlend mode="normal" in2="BackgroundImageFix" result="effect1_dropShadow"/>
<feBlend mode="normal" in="SourceGraphic" in2="effect1_dropShadow" result="shape"/>
</filter>
</defs>
</svg>
