<svg width="169" height="168" viewBox="0 0 169 168" fill="none" xmlns="http://www.w3.org/2000/svg">
<path d="M21.125 31.5H142.594V120.75H21.125V31.5Z" fill="url(#paint0_radial)"/>
<path d="M50.6208 67.607C51.5186 66.6751 52.7201 66.0976 54.0008 65.927C55.638 65.717 57.526 65.9795 59.216 64.6408C60.9852 63.2364 69.7521 47.1714 73.8187 47.237C74.8881 47.2501 75.7727 48.182 76.5649 49.3501C77.9777 51.4501 79.0999 54.3639 80.5391 54.3639C83.5362 54.3639 83.5362 63.2626 87.2066 64.3258C90.5998 65.3101 91.7221 65.2576 94.8909 69.8514C98.4557 65.5333 101.572 62.2783 103.42 61.4514C103.724 61.3201 104.001 61.2283 104.225 61.2283C106.879 61.2283 109.626 68.2764 112.359 72.5945C115.092 76.9127 116.386 75.797 118.96 75.482C121.535 75.1801 137.312 99.7502 137.312 99.7502H31.6875C31.6875 99.7502 43.9664 74.432 50.6208 67.607V67.607Z" fill="url(#paint1_linear)"/>
<path d="M50.6208 67.607C51.5186 66.6751 52.7201 66.0976 54.0008 65.927C55.638 65.717 57.526 65.9795 59.216 64.6408C60.9852 63.2364 69.7521 47.1714 73.8187 47.237C74.8881 47.2501 75.7727 48.182 76.5649 49.3501C77.9777 51.4501 79.0999 54.3639 80.5391 54.3639C83.5362 54.3639 83.5362 63.2626 87.2066 64.3258C90.5998 65.3101 91.7221 65.2576 94.8909 69.8514C98.4557 65.5333 101.572 62.2783 103.42 61.4514C103.724 61.3201 104.001 61.2283 104.225 61.2283C106.879 61.2283 109.626 68.2764 112.359 72.5945C115.092 76.9127 116.386 75.797 118.96 75.482C121.535 75.1801 137.312 99.7502 137.312 99.7502H31.6875C31.6875 99.7502 43.9664 74.432 50.6208 67.607V67.607Z" fill="url(#paint2_linear)"/>
<path opacity="0.8" d="M95.6963 71.0721C91.8806 65.2577 90.8639 65.4021 87.1934 64.339C83.5362 63.2758 83.5362 54.3771 80.5259 54.3771C79.0867 54.3771 77.9645 51.4633 76.5517 49.3633C75.7595 48.1952 74.8881 47.2633 73.8055 47.2502C69.7389 47.1846 60.972 63.2364 59.2028 64.6539C57.526 65.9927 55.6248 65.7302 53.9876 65.9402C52.6937 66.1108 51.5054 66.6883 50.6076 67.6202C43.9664 74.4321 31.6875 99.7502 31.6875 99.7502H115.131C112.53 98.7396 102.588 81.5721 95.6963 71.0721Z" fill="url(#paint3_radial)"/>
<path d="M118.962 75.4952C116.387 75.8102 115.093 76.939 112.36 72.6077C109.627 68.2896 106.881 61.2415 104.227 61.2415C104.003 61.2415 103.726 61.3333 103.422 61.4646C97.3881 64.1683 77.689 92.8071 73.7017 99.7502H137.314C137.314 99.7502 121.537 75.1802 118.962 75.4952Z" fill="url(#paint4_radial)"/>
<path opacity="0.2" d="M99.3398 76.0596C99.4454 75.7971 99.0758 75.6002 98.9041 75.8233C96.6068 78.8552 87.8795 87.3339 84.5919 91.0483C84.2751 91.4158 84.6844 91.9408 85.1201 91.7439C86.4536 91.1271 89.147 89.6046 89.3979 89.0402C89.7543 88.2264 91.8536 86.1658 92.5138 85.5227C92.6458 85.3914 92.7779 85.2733 92.9099 85.1683L95.5505 82.9896C96.0654 82.5696 96.4879 82.0314 96.7652 81.4277L99.3398 76.0596Z" fill="#81C784"/>
<path opacity="0.2" d="M102.522 82.5964C102.654 82.4127 102.47 82.1764 102.258 82.2683L99.7365 83.3708C99.5441 83.4954 99.3926 83.6734 99.3008 83.8827L96.1453 90.3402C96.0925 90.6027 96.4621 90.7339 96.581 90.4977L102.522 82.5964V82.5964Z" fill="#81C784"/>
<path opacity="0.2" d="M68.9579 59.9811C69.0239 59.6136 68.509 59.4429 68.3373 59.7842C66.1192 64.2992 56.943 77.4767 53.6423 83.1204C53.3254 83.6717 53.9855 84.2623 54.5005 83.8948C56.0848 82.7661 59.1876 80.1148 59.3592 79.3142C59.6101 78.1592 61.815 74.9698 62.5147 73.9723C62.6468 73.7754 62.792 73.5917 62.9505 73.4079L65.8155 69.9167C66.3701 69.2342 66.7794 68.4336 67.0038 67.5936L68.9579 59.9811V59.9811Z" fill="#4DB6AC"/>
<path opacity="0.2" d="M57.9204 71.4266C58.1184 71.2034 57.894 70.8622 57.6035 70.9541L54.1443 72.1091C53.8802 72.2534 53.6558 72.4634 53.5105 72.7259L48.599 80.8503C48.4934 81.1916 48.9555 81.4147 49.1535 81.1128L57.9204 71.4266V71.4266Z" fill="#4DB6AC"/>
<path opacity="0.2" d="M117.443 88.1342C117.615 88.2392 117.799 88.0161 117.667 87.8717C115.885 85.8898 111.211 78.8023 109.085 76.0723C108.874 75.8098 108.452 76.0067 108.531 76.3348C108.768 77.3323 109.468 79.3667 109.825 79.6161C110.34 79.9704 111.475 81.6767 111.832 82.2148L112.03 82.5298L113.178 84.6167C113.403 85.0236 113.72 85.3779 114.089 85.6536L117.443 88.1342V88.1342Z" fill="#81C784"/>
<path opacity="0.2" d="M116.504 82.2944C116.425 82.15 116.557 82.1237 116.728 82.2419L119.567 84.3419C119.778 84.4469 119.976 84.6175 120.108 84.8013L123.04 89.0144L120.821 86.9669C120.716 86.875 120.597 86.8619 120.637 86.9538L121.944 90.3663C121.997 90.5106 121.746 90.445 121.297 90.3663L116.504 82.2944V82.2944Z" fill="#81C784"/>
<path opacity="0.2" d="M74.7167 60.8872C74.6639 60.6379 74.8752 60.6379 75.0732 60.8872L78.6248 65.1922C78.9021 65.4285 79.153 65.7697 79.2718 66.0979L82.1369 73.671L79.5226 69.681C79.4038 69.4972 79.2322 69.4447 79.2454 69.6022L79.9319 75.3378C79.9451 75.5872 79.5887 75.3903 78.9549 75.0885L74.7167 60.8872V60.8872Z" fill="#4DB6AC"/>
<path d="M107.987 99.8412C107.987 99.8412 106.812 99.08 106.205 97.9906C106.839 98.0693 107.869 98.1218 107.578 97.5181C107.578 97.5181 106.297 96.6387 105.822 95.4181C106.02 95.4443 106.218 95.4049 106.416 95.2868C106.416 95.2868 106.68 95.1031 105.954 94.4074C105.954 94.4074 105.32 93.8824 104.33 91.5068C104.159 91.1131 103.617 91.0868 103.446 91.4806C103.01 92.4124 102.31 93.7381 101.61 94.5781C101.61 94.5781 100.686 95.6674 102.204 95.2737C101.94 95.6281 100.924 96.9668 100.29 97.3081C100.29 97.3081 100.145 97.4656 100.171 97.6231C99.8015 97.2293 99.4054 96.7437 99.1546 96.1662C99.7883 96.2449 100.818 96.2843 100.528 95.7199C100.528 95.7199 99.4714 95.0375 98.9301 94.0531C99.4978 94.1187 100.422 94.1712 100.158 93.6331C100.158 93.6331 98.9961 92.8456 98.5736 91.7431C98.7453 91.7562 98.9301 91.7431 99.1017 91.6249C99.1017 91.6249 99.3394 91.4543 98.6792 90.8374C98.6792 90.8374 98.1115 90.3649 97.2269 88.2256C97.1948 88.147 97.1405 88.0794 97.0706 88.0309C97.0006 87.9824 96.918 87.9552 96.8328 87.9524C96.7476 87.9496 96.6633 87.9715 96.5903 88.0153C96.5173 88.0591 96.4587 88.123 96.4215 88.1993C96.0254 89.0262 95.4049 90.2337 94.7711 90.9818C94.7711 90.9818 93.9393 91.9662 95.3124 91.6118C95.0748 91.9268 94.1638 93.1343 93.596 93.4362C93.596 93.4362 92.9491 94.1449 94.7711 94.0531C94.3354 94.5649 93.6885 95.2868 93.2264 95.5231C93.2264 95.5231 92.4738 96.2843 94.6259 96.1662C94.3618 96.5074 93.9525 97.0193 93.53 97.4524C93.5168 97.4131 93.5168 97.3737 93.4904 97.3343C93.4904 97.3343 92.4342 96.6518 91.8928 95.6674C92.4606 95.7331 93.3848 95.7856 93.1207 95.2474C93.1207 95.2474 91.9589 94.4599 91.5364 93.3574C91.708 93.3706 91.8928 93.3574 92.0645 93.2393C92.0645 93.2393 92.3021 93.0687 91.642 92.4518C91.642 92.4518 91.0742 91.9793 90.1896 89.8399C90.1575 89.7614 90.1032 89.6938 90.0333 89.6453C89.9633 89.5968 89.8807 89.5695 89.7955 89.5668C89.7103 89.564 89.6261 89.5858 89.5531 89.6297C89.4801 89.6735 89.4214 89.7374 89.3842 89.8137C88.9881 90.6406 88.3676 91.8481 87.7338 92.5962C87.7338 92.5962 86.9021 93.5806 88.2752 93.2262C88.0375 93.5412 87.1265 94.7487 86.5588 95.0506C86.5588 95.0506 85.9118 95.7593 87.7338 95.6674C87.3245 96.1531 86.7172 96.8224 86.2683 97.0849C86.12 96.8558 85.9919 96.6142 85.8854 96.3631C86.1099 96.3893 86.3607 96.35 86.572 96.2056C86.572 96.2056 86.8889 95.9956 86.0307 95.1818C86.0307 95.1818 85.2913 94.5649 84.1426 91.7956C84.1019 91.6926 84.0315 91.6038 83.9403 91.5404C83.8491 91.4769 83.7411 91.4416 83.6298 91.4388C83.5185 91.436 83.4089 91.4658 83.3146 91.5246C83.2203 91.5834 83.1455 91.6685 83.0996 91.7693C82.5846 92.8456 81.7792 94.4074 80.9606 95.3787C80.9606 95.3787 79.878 96.6518 81.6604 96.1924C81.4756 96.4549 80.9474 97.1374 80.3929 97.7281C80.0496 97.3999 79.6535 96.9406 79.4291 96.4024C79.9308 96.4681 80.7626 96.4943 80.5249 96.0481C80.5249 96.0481 79.6799 95.4968 79.2442 94.7093C79.7063 94.7618 80.4457 94.8012 80.2345 94.3681C80.2345 94.3681 79.3103 93.7381 78.967 92.8587C79.1122 92.8718 79.2574 92.8587 79.3895 92.7668C79.3895 92.7668 79.5875 92.6356 79.0594 92.1368C79.0594 92.1368 78.6105 91.7562 77.8975 90.0499C77.8729 89.9852 77.8294 89.9292 77.7726 89.8893C77.7157 89.8493 77.6481 89.8272 77.5785 89.8258C77.5089 89.8244 77.4405 89.8438 77.382 89.8814C77.3236 89.919 77.2778 89.9731 77.2506 90.0368C76.9337 90.7062 76.432 91.6643 75.9303 92.2681C75.9303 92.2681 75.2569 93.0556 76.3528 92.7668C76.1679 93.0162 75.4285 93.9874 74.9796 94.2368C74.9796 94.2368 74.4515 94.8012 75.9303 94.7224C75.587 95.1293 75.0588 95.7068 74.6892 95.8906C74.6892 95.8906 74.095 96.5074 75.8114 96.4024C75.4285 96.8881 74.7024 97.7806 74.2138 98.0562C74.2138 98.0562 73.5405 98.7912 75.4417 98.6993C74.9928 99.2243 74.3195 99.9725 73.8442 100.222C73.8442 100.222 73.7649 100.314 73.7253 100.419C73.5141 100.209 73.2896 99.9462 73.118 99.6443C73.5801 99.6968 74.3195 99.7362 74.1082 99.3031C74.1082 99.3031 73.184 98.6731 72.8407 97.7937C72.986 97.8068 73.1312 97.7937 73.2632 97.7018C73.2632 97.7018 73.4613 97.5706 72.9331 97.0718C72.9331 97.0718 72.4842 96.6912 71.7713 94.9849C71.7467 94.9202 71.7032 94.8642 71.6463 94.8243C71.5895 94.7843 71.5219 94.7622 71.4523 94.7608C71.3826 94.7594 71.3142 94.7788 71.2558 94.8164C71.1973 94.854 71.1515 94.9081 71.1243 94.9718C70.8074 95.6412 70.3057 96.5993 69.804 97.2031C69.804 97.2031 69.1306 97.9906 70.2397 97.7018C70.0549 97.9512 69.3155 98.9224 68.8666 99.1718C68.8666 99.1718 68.3385 99.7362 69.8172 99.6575C69.6984 99.8018 69.5531 99.9593 69.4079 100.104C69.4079 100.064 69.3947 100.025 69.3683 99.9856C69.3683 99.9856 68.5233 99.4343 68.0876 98.6468C68.5497 98.6993 69.2891 98.7387 69.0778 98.3056C69.0778 98.3056 68.1536 97.6756 67.8103 96.7962C67.9556 96.8093 68.1008 96.7962 68.2328 96.7043C68.2328 96.7043 68.4309 96.5731 67.9028 96.0743C67.9028 96.0743 67.4538 95.6937 66.7409 93.9874C66.7163 93.9227 66.6728 93.8667 66.6159 93.8268C66.5591 93.7868 66.4915 93.7647 66.4219 93.7633C66.3523 93.7619 66.2838 93.7813 66.2254 93.8189C66.1669 93.8565 66.1211 93.9106 66.0939 93.9743C65.7771 94.6437 65.2753 95.6018 64.7736 96.2056C64.7736 96.2056 64.1003 96.9931 65.2093 96.7043C65.0245 96.9537 64.2851 97.925 63.8362 98.1743C63.8362 98.1743 63.3081 98.7387 64.7868 98.6599C64.4435 99.0668 63.9154 99.6443 63.5457 99.8281C63.5457 99.8281 62.9516 100.445 64.668 100.34C64.2851 100.826 63.5589 101.718 63.0704 101.994C63.0704 101.994 62.397 102.729 64.2983 102.637C63.8494 103.162 63.176 103.91 62.7007 104.159C62.7007 104.159 61.8161 105.065 64.6548 104.789C64.6548 104.789 64.8132 105.695 66.6088 104.894C66.6088 104.894 67.1898 105.196 67.6915 105.222C67.5463 105.419 67.2822 106.036 69.6984 105.787C69.6984 105.787 69.8568 106.692 71.6524 105.892C71.6524 105.892 73.2236 106.719 73.4085 105.761C73.4085 105.761 75.7454 106.207 75.3097 105.367C75.3097 105.367 74.2138 104.658 73.6461 103.634C74.2403 103.713 75.2041 103.752 74.9268 103.201C74.9268 103.201 73.8178 102.427 73.3424 101.351C73.8442 101.416 74.676 101.442 74.4383 100.996C74.4383 100.996 74.3723 100.957 74.2799 100.878C74.5967 100.931 75.0853 100.944 75.8378 100.865C75.8378 100.865 75.9963 101.771 77.7919 100.97C77.7919 100.97 78.4917 101.337 79.0066 101.298C78.9802 101.337 77.9503 102.427 81.4492 102.072C81.4492 102.072 81.634 103.214 83.8917 102.204C83.8917 102.204 84.5387 102.545 85.1328 102.611C84.9744 102.807 84.4595 103.661 87.615 103.346C87.615 103.346 87.7999 104.487 90.0576 103.477C90.0576 103.477 92.0249 104.514 92.2493 103.319C92.2493 103.319 95.1672 103.871 94.6259 102.834C94.6259 102.834 94.0317 102.44 93.4244 101.81C93.7545 101.81 94.1506 101.797 94.6391 101.744C94.6391 101.744 94.8239 102.886 97.0817 101.876C97.0817 101.876 99.0489 102.912 99.2734 101.718C99.2734 101.718 102.191 102.269 101.65 101.232C101.65 101.232 101.161 100.917 100.62 100.392C100.95 100.419 101.399 100.406 102.02 100.353C102.02 100.353 102.178 101.324 104.119 100.458C104.119 100.458 105.809 101.351 105.994 100.314C105.954 100.261 108.45 100.734 107.987 99.8412V99.8412ZM68.5761 100.786C68.5761 100.786 68.5761 100.799 68.5629 100.799C68.4573 100.642 68.3649 100.471 68.2856 100.301C68.5761 100.34 68.959 100.353 69.1967 100.287C68.9722 100.497 68.761 100.694 68.5761 100.786ZM69.3551 101.718C69.2231 101.6 69.0778 101.442 68.9326 101.272C69.1174 101.298 69.3551 101.311 69.6984 101.285C69.606 101.416 69.4871 101.561 69.3551 101.718ZM79.4819 100.904C79.4951 100.865 79.5083 100.839 79.5215 100.786C79.5215 100.786 79.5479 100.786 79.6007 100.799C79.5479 100.839 79.5215 100.865 79.4819 100.904ZM92.5398 100.655C92.5266 100.642 92.5266 100.629 92.5134 100.616C92.5398 100.616 92.5662 100.616 92.5794 100.629C92.5662 100.642 92.553 100.655 92.5398 100.655Z" fill="url(#paint5_linear)"/>
<path d="M63.441 101.063C63.441 101.063 62.6753 100.564 62.266 99.8423C62.6885 99.8948 63.3618 99.9211 63.1638 99.5273C63.1638 99.5273 62.3188 98.9498 62.0019 98.1492C62.1339 98.1623 62.266 98.1492 62.398 98.0573C62.398 98.0573 62.5696 97.9392 62.0943 97.4798C62.0943 97.4798 61.685 97.1254 61.0249 95.5635C61.0035 95.5048 60.9648 95.4538 60.9137 95.4174C60.8627 95.3809 60.8018 95.3606 60.7389 95.3592C60.6761 95.3578 60.6143 95.3753 60.5616 95.4094C60.509 95.4435 60.468 95.4927 60.4439 95.5504C60.1535 96.1542 59.7046 97.0336 59.2424 97.5848C59.2424 97.5848 58.6351 98.3067 59.6385 98.0442C59.4669 98.2804 58.7935 99.1598 58.371 99.3829C58.371 99.3829 57.8957 99.9079 59.2424 99.8292C58.9256 100.197 58.4503 100.735 58.107 100.905C58.107 100.905 57.4864 101.549 59.4801 101.352C59.4801 101.352 59.5857 101.995 60.8532 101.43C60.8532 101.43 61.9623 102.021 62.0943 101.339C62.0943 101.339 63.7447 101.654 63.441 101.063V101.063Z" fill="url(#paint6_linear)"/>
<path d="M131.371 101.471C131.371 101.471 130.17 100.696 129.549 99.5675C130.196 99.6462 131.253 99.6987 130.949 99.0819C130.949 99.0819 129.629 98.1762 129.153 96.9294C129.351 96.9556 129.563 96.9162 129.761 96.7981C129.761 96.7981 130.038 96.6012 129.285 95.9056C129.285 95.9056 128.638 95.3675 127.622 92.9262C127.586 92.8363 127.525 92.7587 127.446 92.703C127.366 92.6474 127.272 92.6163 127.175 92.6135C127.078 92.6107 126.982 92.6364 126.899 92.6873C126.817 92.7383 126.751 92.8122 126.711 92.9C126.262 93.845 125.549 95.21 124.836 96.0631C124.836 96.0631 123.885 97.1787 125.443 96.7719C125.298 96.9687 124.915 97.4806 124.493 97.94C124.476 97.925 124.463 97.9072 124.453 97.8875C124.453 97.8875 123.806 97.3493 122.789 94.9081C122.754 94.8181 122.693 94.7405 122.613 94.6849C122.534 94.6293 122.44 94.5982 122.343 94.5954C122.245 94.5926 122.15 94.6182 122.067 94.6692C121.985 94.7201 121.919 94.7941 121.878 94.8819C121.429 95.8269 120.716 97.1918 120.003 98.045C120.003 98.045 119.053 99.1606 120.611 98.7537C120.334 99.1212 119.304 100.486 118.644 100.841C118.644 100.841 117.904 101.654 119.99 101.536C119.502 102.114 118.749 102.941 118.234 103.203C118.234 103.203 117.257 104.201 120.386 103.886C120.386 103.886 120.558 104.883 122.525 104.004C122.525 104.004 124.255 104.922 124.453 103.859C124.453 103.859 127.014 104.345 126.539 103.426C126.539 103.426 125.602 102.822 124.955 101.904C125.047 101.891 125.126 101.891 125.232 101.877C125.232 101.877 125.404 102.875 127.371 101.996C127.371 101.996 129.1 102.914 129.298 101.851C129.285 101.891 131.847 102.376 131.371 101.471V101.471ZM124.651 99.5675H124.836C124.796 99.6069 124.77 99.6462 124.73 99.6856L124.651 99.5675Z" fill="url(#paint7_linear)"/>
<path d="M31.6875 99.75H137.312V141.75H31.6875V99.75Z" fill="url(#paint8_radial)"/>
<path d="M117.758 120.605H116.544C115.87 120.605 115.329 120.067 115.329 119.398V113.374H118.973V119.398C118.973 120.067 118.432 120.605 117.758 120.605Z" fill="#795548"/>
<path d="M128.522 113.242C128.522 113.242 125.26 111.129 123.57 108.097C125.326 108.32 128.192 108.451 127.386 106.784C127.386 106.784 123.821 104.343 122.514 100.957C123.055 101.009 123.636 100.931 124.165 100.589C124.165 100.589 124.917 100.078 122.871 98.1614C122.871 98.1614 121.115 96.6914 118.368 90.0895C117.906 88.987 116.401 88.9345 115.899 90.0239C114.685 92.5964 112.757 96.2976 110.816 98.6076C110.816 98.6076 108.242 101.639 112.467 100.537C111.727 101.521 108.915 105.223 107.146 106.181C107.146 106.181 105.126 108.373 110.79 108.071C109.456 109.646 107.436 111.877 106.023 112.599C106.023 112.599 103.383 115.303 111.833 114.463C111.833 114.463 112.282 117.166 117.642 114.778C117.642 114.778 122.329 117.258 122.857 114.397C122.857 114.397 129.802 115.709 128.522 113.242V113.242Z" fill="url(#paint9_radial)"/>
<path d="M79.5477 125.567C92.1171 119.687 100.343 114.017 71.4014 108.071C48.8109 103.412 47.9923 99.75 47.9923 99.75H39.2386C38.7237 104.567 49.4446 107.966 59.611 111.261C69.7378 114.542 78.3198 117.259 56.7724 123.296C41.0606 127.693 33.7989 134.137 35.4493 141.75H95.2991C73.3027 138.128 68.8796 130.554 79.5477 125.567V125.567Z" fill="url(#paint10_linear)"/>
<path d="M45.4571 114.449H44.4273C43.8596 114.449 43.3975 113.99 43.3975 113.426V108.32H46.487V113.426C46.487 113.99 46.0249 114.449 45.4571 114.449V114.449Z" fill="#795548"/>
<path d="M54.5675 108.203C54.5675 108.203 51.8081 106.418 50.3689 103.846C51.8609 104.029 54.2903 104.147 53.6037 102.743C53.6037 102.743 50.5802 100.669 49.4711 97.808C49.9332 97.8605 50.4217 97.7949 50.8706 97.5061C50.8706 97.5061 51.5044 97.073 49.7748 95.4455C49.7748 95.4455 48.296 94.1986 45.9591 88.6074C45.563 87.6755 44.2955 87.623 43.8598 88.5418C42.83 90.7205 41.206 93.8574 39.5556 95.813C39.5556 95.813 37.3639 98.3855 40.9551 97.4536C40.3346 98.2936 37.9448 101.431 36.4528 102.244C36.4528 102.244 34.7364 104.108 39.5424 103.846C38.4201 105.184 36.7037 107.061 35.5022 107.678C35.5022 107.678 33.2577 109.975 40.427 109.253C40.427 109.253 40.8099 111.55 45.3517 109.516C45.3517 109.516 49.3127 111.616 49.7616 109.187C49.7748 109.187 55.6634 110.303 54.5675 108.203V108.203Z" fill="url(#paint11_radial)"/>
<path d="M8.58203 23.625L28.8224 38.7188V129.281L8.58203 144.375V23.625Z" fill="url(#paint12_linear)"/>
<path d="M8.58203 23.625L28.8224 38.7188H140.178L160.418 23.625H8.58203Z" fill="url(#paint13_linear)"/>
<path d="M160.42 23.625L140.18 38.7188V129.281L160.42 144.375V23.625Z" fill="url(#paint14_linear)"/>
<path d="M28.8224 129.281L8.58203 144.375H160.418L140.178 129.281H28.8224Z" fill="url(#paint15_linear)"/>
<path d="M136.215 42.6562V125.344H32.7813V42.6562H136.215ZM140.175 38.7188H28.8203V129.281H140.162V38.7188H140.175Z" fill="#FAFAFA"/>
<path d="M157.117 27.5625V140.438H11.8828V27.5625H157.117ZM158.438 21H10.5625C7.64461 21 5.28125 23.3494 5.28125 26.25V141.75C5.28125 144.651 7.64461 147 10.5625 147H158.438C161.355 147 163.719 144.651 163.719 141.75V26.25C163.719 23.3494 161.355 21 158.438 21Z" fill="#FFCA28"/>
<path opacity="0.2" d="M158.438 24.9375C159.164 24.9375 159.758 25.5281 159.758 26.25V141.75C159.758 142.472 159.164 143.062 158.438 143.062H10.5625C9.83633 143.062 9.24219 142.472 9.24219 141.75V26.25C9.24219 25.5281 9.83633 24.9375 10.5625 24.9375H158.438ZM158.438 21H10.5625C7.64461 21 5.28125 23.3494 5.28125 26.25V141.75C5.28125 144.651 7.64461 147 10.5625 147H158.438C161.355 147 163.719 144.651 163.719 141.75V26.25C163.719 23.3494 161.355 21 158.438 21Z" fill="#424242"/>
<defs>
<radialGradient id="paint0_radial" cx="0" cy="0" r="1" gradientUnits="userSpaceOnUse" gradientTransform="translate(83.3447 99.0937) scale(71.7867 71.3619)">
<stop stop-color="#81D4FA"/>
<stop offset="0.47" stop-color="#81D4FA"/>
<stop offset="0.549" stop-color="#7BD2FA"/>
<stop offset="0.65" stop-color="#6CCDF9"/>
<stop offset="0.763" stop-color="#51C4F8"/>
<stop offset="0.884" stop-color="#2DB7F6"/>
<stop offset="1" stop-color="#03A9F4"/>
</radialGradient>
<linearGradient id="paint1_linear" x1="84.5" y1="47.3433" x2="84.5" y2="89.6413" gradientUnits="userSpaceOnUse">
<stop stop-color="#90A4AE"/>
<stop offset="0.339" stop-color="#849AA5"/>
<stop offset="0.958" stop-color="#637F8D"/>
<stop offset="1" stop-color="#607D8B"/>
</linearGradient>
<linearGradient id="paint2_linear" x1="84.5" y1="47.3433" x2="84.5" y2="89.6413" gradientUnits="userSpaceOnUse">
<stop stop-color="#90A4AE"/>
<stop offset="0.339" stop-color="#849AA5"/>
<stop offset="0.958" stop-color="#637F8D"/>
<stop offset="1" stop-color="#607D8B"/>
</linearGradient>
<radialGradient id="paint3_radial" cx="0" cy="0" r="1" gradientUnits="userSpaceOnUse" gradientTransform="translate(71.1318 57.4221) scale(47.8957 47.6122)">
<stop stop-color="#4DB6AC"/>
<stop offset="0.254" stop-color="#4AB5AA"/>
<stop offset="0.472" stop-color="#3FB0A5"/>
<stop offset="0.676" stop-color="#2DA99D"/>
<stop offset="0.872" stop-color="#159F92"/>
<stop offset="1" stop-color="#009688"/>
</radialGradient>
<radialGradient id="paint4_radial" cx="0" cy="0" r="1" gradientUnits="userSpaceOnUse" gradientTransform="translate(103.646 64.8049) scale(35.1916 34.9834)">
<stop stop-color="#66BB6A"/>
<stop offset="0.603" stop-color="#52AC56"/>
<stop offset="1" stop-color="#43A047"/>
</radialGradient>
<linearGradient id="paint5_linear" x1="85.3018" y1="83.9993" x2="85.3018" y2="103.906" gradientUnits="userSpaceOnUse">
<stop stop-color="#43A047"/>
<stop offset="0.603" stop-color="#378C3B"/>
<stop offset="1" stop-color="#2E7D32"/>
</linearGradient>
<linearGradient id="paint6_linear" x1="60.7476" y1="84.0004" x2="60.7476" y2="103.907" gradientUnits="userSpaceOnUse">
<stop stop-color="#43A047"/>
<stop offset="0.603" stop-color="#378C3B"/>
<stop offset="1" stop-color="#2E7D32"/>
</linearGradient>
<linearGradient id="paint7_linear" x1="124.762" y1="84.0012" x2="124.762" y2="103.908" gradientUnits="userSpaceOnUse">
<stop stop-color="#43A047"/>
<stop offset="0.603" stop-color="#378C3B"/>
<stop offset="1" stop-color="#2E7D32"/>
</linearGradient>
<radialGradient id="paint8_radial" cx="0" cy="0" r="1" gradientUnits="userSpaceOnUse" gradientTransform="translate(83.6193 100.45) scale(68.9969 54.8709)">
<stop stop-color="#8BC34A"/>
<stop offset="0.247" stop-color="#84BC47"/>
<stop offset="0.598" stop-color="#72AA3D"/>
<stop offset="0.753" stop-color="#689F38"/>
<stop offset="1" stop-color="#689F38"/>
</radialGradient>
<radialGradient id="paint9_radial" cx="0" cy="0" r="1" gradientUnits="userSpaceOnUse" gradientTransform="translate(116.85 86.2964) scale(30.6247 30.4434)">
<stop stop-color="#43A047"/>
<stop offset="0.603" stop-color="#378C3B"/>
<stop offset="1" stop-color="#2E7D32"/>
</radialGradient>
<linearGradient id="paint10_linear" x1="65.2593" y1="97.7812" x2="65.2593" y2="131.578" gradientUnits="userSpaceOnUse">
<stop stop-color="#039BE5"/>
<stop offset="0.401" stop-color="#039BE5"/>
<stop offset="0.649" stop-color="#0A87D8"/>
<stop offset="1" stop-color="#1565C0"/>
</linearGradient>
<radialGradient id="paint11_radial" cx="0" cy="0" r="1" gradientUnits="userSpaceOnUse" gradientTransform="translate(39.2783 81.7036) scale(30.1295 29.9513)">
<stop stop-color="#43A047"/>
<stop offset="0.603" stop-color="#378C3B"/>
<stop offset="1" stop-color="#2E7D32"/>
</radialGradient>
<linearGradient id="paint12_linear" x1="12.7635" y1="84" x2="36.0921" y2="84" gradientUnits="userSpaceOnUse">
<stop stop-color="#FFB300"/>
<stop offset="1" stop-color="#FF8F00"/>
</linearGradient>
<linearGradient id="paint13_linear" x1="84.5" y1="25.5938" x2="84.5" y2="45.0739" gradientUnits="userSpaceOnUse">
<stop stop-color="#FFC107"/>
<stop offset="1" stop-color="#FFA000"/>
</linearGradient>
<linearGradient id="paint14_linear" x1="165.266" y1="84" x2="139.057" y2="84" gradientUnits="userSpaceOnUse">
<stop stop-color="#FFCA28"/>
<stop offset="1" stop-color="#FFB300"/>
</linearGradient>
<linearGradient id="paint15_linear" x1="84.5" y1="128.188" x2="84.5" y2="143.942" gradientUnits="userSpaceOnUse">
<stop stop-color="#FFCA28"/>
<stop offset="1" stop-color="#FFB300"/>
</linearGradient>
</defs>
</svg>
