<svg width="168" height="168" viewBox="0 0 168 168" fill="none" xmlns="http://www.w3.org/2000/svg">
<path d="M79.4868 15.6062C75.8381 10.435 68.0681 6.7075 61.8993 8.09875C54.9956 9.66062 51.5306 14.9106 50.9137 21.3419C50.6906 23.665 50.9006 25.975 51.3862 27.5894C51.4387 27.7862 51.9112 29.1775 51.9637 29.6237C52.3312 31.33 49.1024 33.2331 48.8268 35.1494C48.6168 36.5931 51.6487 37.3281 51.8981 37.5644C53.1449 38.7719 51.6487 44.98 59.8649 45.1112C63.0149 45.1637 62.3981 45.0062 63.3431 45.3081C64.8131 45.7675 66.8868 50.0987 66.8868 50.0987C66.8868 50.0987 66.0862 55.9 71.3887 53.905C77.4393 51.6344 79.2374 47.29 79.2374 47.29C79.2374 47.29 73.2918 38.4831 78.0824 34.7687C82.7156 31.1725 81.8362 18.94 79.4868 15.6062V15.6062Z" fill="#F9DDBD"/>
<path d="M52.9331 40.9371C54.075 40.9371 55.1775 40.609 56.0962 39.8346C57.0937 38.9947 56.3325 38.1678 55.1644 38.7453C54.4556 39.0997 53.445 39.3097 52.5 39.1915L52.9331 40.9371V40.9371Z" fill="#444444"/>
<path d="M57.3031 32.58C58.126 32.5052 58.6996 31.4146 58.5842 30.1441C58.4688 28.8735 57.7081 27.9042 56.8851 27.9789C56.0622 28.0537 55.4886 29.1442 55.604 30.4148C55.7194 31.6853 56.4801 32.6547 57.3031 32.58Z" fill="#312D2D"/>
<path d="M55.729 26.9456C54.2721 27.3787 53.9177 26.4206 54.4033 25.6331C54.7577 25.0556 55.6502 24.57 57.3565 24.8981C58.9708 25.2131 59.6402 26.1319 60.0733 26.6962C60.5065 27.2606 60.454 27.825 60.0865 27.8775C59.5746 27.9431 57.5271 26.4075 55.729 26.9456Z" fill="#454140"/>
<path d="M79.9573 11.8781C76.6891 8.33431 70.9929 6.22118 65.6773 6.31306C62.1073 6.37868 58.721 7.24493 55.8729 8.84618C55.8204 8.87243 50.4129 11.9699 49.3498 14.7524C48.2079 17.7318 49.5335 19.3331 49.8485 19.6087C50.3473 20.0418 51.3973 19.8318 51.3973 19.8318C53.471 19.5299 60.0991 18.6374 63.5116 19.0837C64.0498 19.1493 64.6535 19.2806 64.9291 19.7399C65.0473 19.9368 65.231 21.2887 65.2704 21.5249C65.7166 24.5568 65.6116 26.4993 66.6616 28.3499C66.8323 28.6518 67.4754 29.0062 67.4754 29.0062L68.5779 26.9981C69.2866 25.8431 69.9298 24.8456 70.9535 24.9637C73.9985 25.3312 73.9723 30.6993 70.5598 32.2218C70.5598 32.2218 71.4916 36.3693 75.3766 36.8156C78.7891 37.2093 79.1829 36.4349 79.3929 35.1356C79.8785 32.3399 80.5479 31.0931 81.2698 29.7806C82.1229 28.2187 82.9891 26.6174 83.396 22.5487C83.8423 18.4799 82.6479 14.7918 79.9573 11.8781V11.8781Z" fill="#312D2D"/>
<path d="M79.9573 11.8781C76.6891 8.33431 70.9929 6.22118 65.6773 6.31306C62.1073 6.37868 58.721 7.24493 55.8729 8.84618C55.8204 8.87243 50.4129 11.9699 49.3498 14.7524C48.2079 17.7318 49.5335 19.3331 49.8485 19.6087C50.3473 20.0418 51.3973 19.8318 51.3973 19.8318C53.471 19.5299 60.0991 18.6374 63.5116 19.0837C64.0498 19.1493 64.6535 19.2806 64.9291 19.7399C65.0473 19.9368 65.231 21.2887 65.2704 21.5249C65.7166 24.5568 65.6116 26.4993 66.6616 28.3499C66.8323 28.6518 67.4754 29.0062 67.4754 29.0062L68.5779 26.9981C69.2866 25.8431 69.9298 24.8456 70.9535 24.9637C73.9985 25.3312 73.9723 30.6993 70.5598 32.2218C70.5598 32.2218 71.4916 36.3693 75.3766 36.8156C78.7891 37.2093 79.1829 36.4349 79.3929 35.1356C79.8785 32.3399 80.5479 31.0931 81.2698 29.7806C82.1229 28.2187 82.9891 26.6174 83.396 22.5487C83.8423 18.4799 82.6479 14.7918 79.9573 11.8781V11.8781Z" fill="url(#paint0_radial)"/>
<path d="M49.3635 81.1912L48.8779 79.4324C48.786 79.1174 48.4842 78.9074 48.156 78.9599C43.4179 79.6031 32.2748 81.2043 31.2773 82.11C30.7129 82.6218 30.516 83.2912 30.7129 83.9475C30.936 84.6825 31.6448 85.2731 32.4323 85.3781C32.9048 85.4568 33.5217 85.4831 34.0467 85.5093C33.9942 85.7718 34.0073 86.0212 34.0729 86.2706C34.2173 86.7693 34.5979 87.1237 35.0967 87.2287C35.3198 87.2812 35.556 87.2943 35.8185 87.2943C39.7167 87.2943 48.0642 82.5168 49.0485 81.9393C49.3242 81.7818 49.4423 81.4799 49.3635 81.1912V81.1912Z" fill="#EDBD82"/>
<path d="M64.064 56.1749L55.8609 71.6755C55.8478 71.6755 55.8478 71.6887 55.8346 71.6887L41.7384 79.183C39.3234 80.338 41.7253 86.5724 44.1796 86.5724C44.3896 86.5724 44.5996 86.5199 44.8096 86.428L60.914 79.9705L60.9009 79.9443C61.8984 79.498 62.699 78.763 63.2109 77.8574L63.2503 77.8837L72.5953 60.7031L64.064 56.1749V56.1749Z" fill="url(#paint1_linear)"/>
<path d="M48.1837 79.4066C46.53 77.4641 45.2831 77.5691 43.5637 77.9497C43.17 78.0416 42.7631 78.1466 42.3169 78.2647C41.0569 78.5928 39.4819 78.9997 36.9487 79.3016C33.5756 79.6953 29.4675 79.5378 29.4281 79.5378C29.3625 79.5247 29.2969 79.5378 29.2312 79.5509C28.4962 79.7347 27.945 80.2466 27.7481 80.9028C27.5644 81.5197 27.7219 82.1628 28.1681 82.6353C29.4281 83.9741 34.0219 84.2234 36.8044 84.0528C37.5919 84.0003 38.97 83.9478 40.0725 83.9084C40.23 83.8691 40.3481 84.0266 40.3744 84.0922C40.4006 84.1578 40.44 84.2891 40.335 84.4203C39.8231 85.0109 39.1669 85.5491 38.3925 85.9953C37.4081 86.5597 36.9356 87.1766 36.975 87.8722C37.0012 88.5678 37.5525 89.1584 38.5369 89.6047C38.8256 89.7359 39.1537 89.7884 39.5212 89.7884C41.8181 89.7884 45.3356 87.5309 46.53 86.3628C48.0131 84.8928 49.8244 81.3228 48.1837 79.4066V79.4066Z" fill="url(#paint2_linear)"/>
<path d="M72.8827 51.0428L71.4784 50.3341C70.5341 49.8422 69.485 49.5856 68.4202 49.5859C65.9396 49.5859 63.5509 50.9509 62.3565 53.3134L55.9121 66.0316L69.4177 72.8828L75.8621 60.1647C77.5553 56.8178 76.2165 52.7359 72.8827 51.0428V51.0428Z" fill="#04A287"/>
<path d="M112.757 108.412L93.5289 79.9836L79.3276 90.3524L102.165 119.385H102.178C103.425 121.091 105.263 122.102 107.205 122.364L107.192 122.443L142.38 126.853L144.52 115.369L112.757 108.412V108.412Z" fill="#EDBD82"/>
<path d="M134.569 113.177L132.259 125.567L142.366 126.826L144.505 115.342L134.569 113.177Z" fill="#BDBDBD"/>
<path d="M79.4596 80.7188L62.8564 108.426C60.3078 112.677 59.2243 117.648 59.772 122.574L63.3683 155.098L73.3564 155.124L74.4852 118.991L94.3039 90.1556L79.4596 80.7188V80.7188Z" fill="url(#paint3_linear)"/>
<path d="M61.9624 142.026L62.973 153.09L73.3418 153.116L73.8537 142.052L61.9624 142.026Z" fill="#E0E0E0"/>
<path d="M94.7774 78.8413C93.8052 77.5125 92.5329 76.4323 91.064 75.6887C89.5951 74.9452 87.9712 74.5593 86.3249 74.5625C84.1855 74.5625 82.033 75.2188 80.1692 76.5706C75.5099 79.97 74.4861 86.5194 77.8855 91.1788L89.6586 106.483L105.763 94.7225L94.7774 78.8413V78.8413Z" fill="#646464"/>
<path d="M92.6114 76.4534C90.9298 75.392 88.9824 74.8278 86.9939 74.8259C83.542 74.8259 80.1557 76.5453 78.1607 79.6691L68.2251 96.2197L85.0514 106.917L95.827 90.8909C98.9245 86.0216 97.4807 79.5509 92.6114 76.4534V76.4534Z" fill="#7C7C7C"/>
<path d="M97.3348 80.5353C94.7754 70.2059 90.2866 59.8766 85.6666 49.5472C84.1179 45.6491 80.1279 43.3259 76.1641 43.3259C75.0354 43.3259 73.9197 43.5097 72.8566 43.9034C66.3335 46.3184 62.9735 52.3166 65.021 59.5222C68.0397 70.1797 69.536 76.5059 70.6516 86.9928C70.796 88.3447 71.9772 89.3159 73.316 89.3159C73.5522 89.3159 73.7885 89.2897 74.0379 89.224C80.8497 87.4128 88.5279 85.5097 95.4579 83.6722C96.8229 83.3047 97.676 81.9134 97.3348 80.5353Z" fill="url(#paint4_radial)"/>
<path d="M126.788 78.6062C126.368 77.5562 125.738 76.5193 124.937 75.1937C124.32 74.1831 119.7 68.9199 117.784 68.0012C116.629 66.0587 110.263 58.1443 107.415 54.6268C106.746 53.7999 105.853 53.1831 104.83 52.8418L86.087 46.9356C86.0043 46.9092 85.9172 46.8995 85.8307 46.907C85.7442 46.9146 85.6601 46.9392 85.5832 46.9795C85.5062 47.0197 85.4381 47.0749 85.3827 47.1417C85.3272 47.2085 85.2856 47.2857 85.2602 47.3687L82.3989 56.6612C82.3496 56.8265 82.3675 57.0046 82.4485 57.1569C82.5296 57.3092 82.6674 57.4235 82.832 57.4749L99.9602 62.7643C102.73 65.4287 109.384 71.8468 110.303 72.7393C110.762 74.2749 110.657 76.2174 110.578 77.9368C110.486 79.8006 110.408 81.2706 111.011 82.0843C111.589 82.8587 112.245 82.8981 112.586 82.8587C113.492 82.7406 114.148 81.8874 114.437 81.1787C114.818 80.2599 114.805 79.3149 114.791 78.6193V78.2256C115.605 78.7768 115.907 80.9162 116.143 82.6487C116.458 84.8799 116.721 86.8093 118.073 87.0456C118.138 87.0587 118.204 87.0587 118.27 87.0587C118.545 87.0587 118.795 86.9537 119.005 86.7568C119.674 86.1268 119.726 84.4731 119.674 83.2787C119.766 83.6856 119.792 84.0924 119.818 84.4993C119.897 85.5099 120.002 86.8749 121.433 86.9274C121.866 86.9406 122.155 86.7831 122.391 86.4812C122.798 85.9824 122.876 85.1293 122.824 84.2631C123.165 84.9456 123.572 85.3393 124.215 85.1293C124.451 85.0506 124.793 84.8537 125.016 84.3549C125.226 83.8956 125.305 83.2656 125.278 82.6093C125.357 82.6881 125.436 82.7537 125.541 82.7931C125.698 82.8587 125.935 82.8718 126.092 82.8193C126.355 82.7274 126.709 82.5174 126.945 81.9924C127.352 81.1656 127.273 79.8662 126.788 78.6062V78.6062Z" fill="url(#paint5_linear)"/>
<path d="M81.8071 43.5616C81.1902 43.3779 80.5471 43.286 79.9302 43.286C76.9771 43.286 74.2733 45.2154 73.4071 48.1948L72.9346 49.8091C71.8977 53.4054 73.9714 57.1723 77.5677 58.2091L91.4014 62.1991L95.6277 47.5385L81.8071 43.5616V43.5616Z" fill="#04A287"/>
<path d="M73.4459 152H63.0377L55.8452 154.717C53.824 155.504 52.4984 157.421 52.4721 159.56L52.459 161.227C52.459 161.949 53.0496 162.539 53.7846 162.539L74.4696 162.513C75.3096 162.513 75.9921 161.844 75.9921 161.004V157.329C76.0052 154.848 73.4459 152 73.4459 152V152Z" fill="#4568AD"/>
<path d="M152.63 114.738L149.02 114.069C148.745 114.016 148.482 114.003 148.207 114.003C145.897 114.003 143.272 115.604 143.272 115.604L141.355 125.842L142.707 133.402C143.101 135.528 144.742 137.195 146.855 137.602L148.482 137.917C148.561 137.93 148.653 137.943 148.732 137.943C149.349 137.943 149.913 137.497 150.031 136.854L153.824 116.51C153.982 115.683 153.444 114.895 152.63 114.738V114.738Z" fill="#325599"/>
<path d="M46.3961 106.247C46.3961 114.568 39.4398 121.328 30.8692 121.328C22.2986 121.328 15.3555 114.568 15.3555 106.247C15.3555 97.9256 22.3117 91.1663 30.8692 91.1663C39.453 91.1663 46.3961 97.9125 46.3961 106.247V106.247Z" fill="url(#paint6_radial)"/>
<path d="M31.2771 121.315C31.1458 121.328 31.0015 121.328 30.8702 121.328C29.3477 121.328 27.8646 121.105 26.4865 120.711H26.4733C24.5965 118.112 21.1052 112.18 21.3152 104.252C21.3283 103.648 21.3677 103.018 21.4333 102.388C21.499 101.575 21.6302 100.761 21.7877 99.9209C21.8796 99.4222 21.9977 98.9234 22.129 98.4116L22.1683 98.2934C22.3127 97.6897 22.5096 97.1384 22.7327 96.6397H22.7458C22.9296 96.1803 23.1265 95.7734 23.3496 95.3928H23.3627C24.4127 93.5422 25.7908 92.3872 26.8277 91.7047C28.0483 91.3766 29.3346 91.1928 30.6471 91.1797C29.3215 91.6653 26.9721 92.8072 25.3446 95.3534C25.069 95.7603 24.8196 96.2197 24.6227 96.7053H24.6096C24.4127 97.1384 24.2421 97.6241 24.0846 98.1359C23.9195 98.6679 23.7967 99.2121 23.7171 99.7634C23.5858 100.59 23.494 101.378 23.4546 102.165C23.4152 102.795 23.4152 103.425 23.4546 104.042C23.7696 112.311 28.8752 118.729 31.2771 121.315V121.315Z" fill="url(#paint7_radial)"/>
<path d="M38.6673 93.2132C34.1523 93.1476 30.4248 96.3895 24.6367 96.6914H24.6236C24.3348 96.7045 24.0592 96.7176 23.7573 96.7176C23.3767 96.7176 23.0617 96.6914 22.7598 96.6257H22.7467C21.3161 96.3632 20.8436 95.497 20.6992 94.867C21.093 94.5257 21.513 94.2107 21.933 93.922C21.8936 94.4995 22.1298 95.1557 23.3636 95.3789H23.3767C23.6523 95.4182 23.9673 95.4314 24.348 95.4314C24.663 95.4314 25.0042 95.392 25.3586 95.3395C28.6792 94.867 33.168 92.5832 34.533 92.1501C34.9267 92.032 35.3467 91.9533 35.7273 91.927C36.7642 92.2551 37.7486 92.6751 38.6673 93.2132V93.2132Z" fill="url(#paint8_radial)"/>
<path d="M43.0611 115.579C42.3655 116.445 41.5648 117.233 40.6723 117.955C39.4648 115.789 37.1286 112.311 32.758 108.255C30.2905 105.958 26.9567 104.094 23.4655 104.029C23.0717 104.003 22.6648 104.016 22.2711 104.055C21.9298 104.081 21.6148 104.147 21.313 104.252C17.8348 105.289 17.0473 109.909 16.903 112.796C16.2336 111.458 15.748 110.014 15.5117 108.491C16.3517 106.26 18.0842 103.176 21.4311 102.388C21.7067 102.323 21.9823 102.27 22.2842 102.244C22.678 102.204 23.0848 102.178 23.4655 102.165C28.033 102.073 31.393 104.318 34.6086 106.667C38.9792 109.817 41.7486 113.584 43.0611 115.579V115.579Z" fill="url(#paint9_radial)"/>
<path d="M46.3973 106.051V106.248C46.3973 107.429 46.2661 108.558 45.9905 109.66C41.8692 105.841 33.4823 99.4227 23.7305 99.7508C23.0853 99.7735 22.4414 99.8261 21.8011 99.9083C18.848 100.315 16.9842 101.444 15.8555 102.468C16.0917 101.562 16.4198 100.696 16.8136 99.8689C18.0605 99.2127 19.8192 98.5564 22.1817 98.2808C22.4311 98.2414 22.6805 98.2283 22.9298 98.2021L24.098 98.1233C34.9392 97.6246 43.1555 103.36 46.3973 106.051V106.051Z" fill="url(#paint10_radial)"/>
<defs>
<radialGradient id="paint0_radial" cx="0" cy="0" r="1" gradientUnits="userSpaceOnUse" gradientTransform="translate(65.8636 26.1266) rotate(3.27899) scale(21.4904 21.1933)">
<stop offset="0.526" stop-color="#454140" stop-opacity="0"/>
<stop offset="1" stop-color="#454140"/>
</radialGradient>
<linearGradient id="paint1_linear" x1="42.7608" y1="83.261" x2="62.3564" y2="68.2433" gradientUnits="userSpaceOnUse">
<stop stop-color="#F9DDBD"/>
<stop offset="1" stop-color="#FFD29C"/>
</linearGradient>
<linearGradient id="paint2_linear" x1="50.1236" y1="83.2574" x2="31.8103" y2="84.4177" gradientUnits="userSpaceOnUse">
<stop stop-color="#F9DDBD"/>
<stop offset="1" stop-color="#FFD29C"/>
</linearGradient>
<linearGradient id="paint3_linear" x1="77.6759" y1="100.002" x2="70.4729" y2="142.246" gradientUnits="userSpaceOnUse">
<stop stop-color="#FFD29C"/>
<stop offset="1" stop-color="#F9DDBD"/>
</linearGradient>
<radialGradient id="paint4_radial" cx="0" cy="0" r="1" gradientUnits="userSpaceOnUse" gradientTransform="translate(75.542 60.7481) scale(20.0104)">
<stop offset="0.364" stop-color="#00BFA5"/>
<stop offset="0.812" stop-color="#00B29A"/>
<stop offset="1" stop-color="#00AB94"/>
</radialGradient>
<linearGradient id="paint5_linear" x1="82.374" y1="66.9788" x2="127.21" y2="66.9788" gradientUnits="userSpaceOnUse">
<stop offset="0.007" stop-color="#FFD29C"/>
<stop offset="1" stop-color="#F9DDBD"/>
</linearGradient>
<radialGradient id="paint6_radial" cx="0" cy="0" r="1" gradientUnits="userSpaceOnUse" gradientTransform="translate(25.3541 101.027) scale(16.7527)">
<stop offset="0.017" stop-color="#FB8C00"/>
<stop offset="0.442" stop-color="#F47900"/>
<stop offset="0.838" stop-color="#D95A1E"/>
</radialGradient>
<radialGradient id="paint7_radial" cx="0" cy="0" r="1" gradientUnits="userSpaceOnUse" gradientTransform="translate(22.356 95.3771) scale(28.2831)">
<stop offset="0.017" stop-color="#FFA726"/>
<stop offset="0.494" stop-color="#FC950D"/>
<stop offset="0.838" stop-color="#FB8C00"/>
</radialGradient>
<radialGradient id="paint8_radial" cx="0" cy="0" r="1" gradientUnits="userSpaceOnUse" gradientTransform="translate(22.3569 95.3762) scale(28.2831)">
<stop offset="0.017" stop-color="#FFA726"/>
<stop offset="0.494" stop-color="#FC950D"/>
<stop offset="0.838" stop-color="#FB8C00"/>
</radialGradient>
<radialGradient id="paint9_radial" cx="0" cy="0" r="1" gradientUnits="userSpaceOnUse" gradientTransform="translate(22.3538 95.3768) scale(28.2831)">
<stop offset="0.017" stop-color="#FFA726"/>
<stop offset="0.494" stop-color="#FC950D"/>
<stop offset="0.838" stop-color="#FB8C00"/>
</radialGradient>
<radialGradient id="paint10_radial" cx="0" cy="0" r="1" gradientUnits="userSpaceOnUse" gradientTransform="translate(22.3563 95.3776) scale(28.2831)">
<stop offset="0.017" stop-color="#FFA726"/>
<stop offset="0.494" stop-color="#FC950D"/>
<stop offset="0.838" stop-color="#FB8C00"/>
</radialGradient>
</defs>
</svg>
