<svg width="168" height="168" viewBox="0 0 168 168" fill="none" xmlns="http://www.w3.org/2000/svg">
<path fill-rule="evenodd" clip-rule="evenodd" d="M139.521 64.0219C138.691 58.3441 135.184 54.7032 131.499 53.1308C129.59 52.3302 127.393 51.8419 124.905 52.2068C119.208 53.0206 115.969 57.2888 114.958 61.5781C114.431 63.8198 114.436 66.6181 115.63 69.2746C117.704 73.9287 122.311 76.3621 126.965 75.1992C129.693 74.5193 131.438 72.8656 132.567 70.7367C133.84 68.3322 134.326 64.0114 131.835 61.0216C129.766 58.5278 124.918 57.1471 122.033 60.5779C120.993 61.8353 120.122 64.1873 121.067 66.4999C121.878 68.4661 124.025 69.6526 125.894 68.9123C127.267 68.3847 127.921 67.2087 127.485 65.5156C127.32 65.4867 127.32 66.0537 127.17 66.3372C126.982 66.6713 126.704 66.9453 126.367 67.1273C124.39 68.1537 122.899 66.3871 122.954 64.3816C122.957 62.7777 124.256 61.3182 126.104 61.1056C128.013 60.8903 129.837 62.0689 130.645 63.8513C132.157 67.1982 130.354 71.183 127.041 72.4325C123.429 73.7791 119.909 71.8339 118.269 68.8729C116.733 66.0931 117.009 63.2659 117.817 61.0137C118.943 57.8716 121.954 54.9001 126.419 54.8082C130.674 54.7268 135.357 57.4148 136.756 63.3473C137.229 65.3449 137.192 66.8254 136.919 68.4871C136.436 71.4481 135.16 74.1571 132.559 76.3621C129.992 78.5225 126.007 79.5987 122.878 79.1026C119.939 78.6521 117.236 77.2264 115.205 75.0548C112.932 72.6109 111.315 69.0331 111.163 65.1586C111.055 62.0192 111.793 58.9087 113.299 56.1522C114.683 53.6689 117.387 51.0019 120.424 49.6448L122.196 48.9833C129.291 47.3611 135.221 49.5031 139.19 54.6323C141.371 57.4726 142.957 61.3969 143.18 65.1848C143.201 65.5838 140.681 66.6076 139.521 64.0219" fill="#BE202E"/>
<path d="M47.2383 52.4397L8.76635 146.018C8.76635 146.018 4.9076 162.724 22.6789 161.144L111.194 121.918" fill="#F4C778"/>
<path d="M27.8422 155.688L63.1721 69.7669L47.2357 52.4446L8.76635 146.023C8.76635 146.023 4.9076 162.729 22.6789 161.148L27.4957 159.017C27.5272 157.077 27.8422 155.688 27.8422 155.688" fill="#E5B973"/>
<path d="M109.871 123.978C103.064 131.058 83.1642 121.162 65.4087 101.871C47.6559 82.5927 38.7886 61.2173 45.5874 54.1482C52.3914 47.079 72.2994 56.9674 90.047 76.2559C107.8 95.5444 116.675 116.915 109.871 123.978" fill="#D1A55E"/>
<path d="M48.0859 76.971C51.8869 84.7909 57.9166 93.5531 65.6288 101.94C73.6114 110.608 82.0193 117.351 89.4901 121.541C91.0021 113.288 86.306 101.147 76.9058 90.9465C67.3876 80.6014 55.9058 75.3488 48.0938 76.971" fill="#AD8C5C"/>
<path d="M167.326 108.675C145.316 67.6728 96.4933 80.3332 65.4106 101.892C66.2716 102.801 68.2246 104.822 69.0646 105.748C71.2276 105.748 107.408 83.7876 128.854 90.1848C140.457 93.6445 149.524 103.297 157.632 111.77C158.813 113.001 162.685 112.439 165.242 111.479C166.011 111.392 166.786 110.967 167.206 110.353C167.41 110.145 167.479 109.951 167.45 109.759C167.546 109.395 167.502 109.008 167.326 108.675Z" fill="#B43248"/>
<path d="M156.879 149.436C155.944 109.452 116.414 98.1749 87.786 102.393C85.9433 102.658 85.3631 105.601 87.5471 105.276C114.619 101.288 152.705 111.523 153.592 149.659C153.647 151.699 156.926 151.221 156.884 149.436" fill="#089083"/>
<path d="M118.913 7.52609C118.249 11.5266 121.391 15.3381 121.472 19.3386C121.633 27.1585 118.086 32.5423 110.836 35.3931C112.763 39.7086 114.897 43.7327 118.79 45.8275C134.697 38.5956 137.85 21.058 130.051 6.80947C127.103 1.42296 120.254 -0.530035 118.905 7.52609" fill="#04A69C"/>
<path d="M74.2091 1.1579C72.4897 -0.466974 64.3207 3.32353 65.9272 4.84865C93.3584 30.8335 93.4661 75.2039 61.7797 98.0414C61.7403 98.0571 63.0528 99.5691 63.667 100.189C65.4074 99.9025 74.9493 93.2166 77.485 90.7675C81.5774 87.229 85.1107 82.8663 87.9378 77.5375C101.743 53.5608 96.7709 22.5464 74.2091 1.17628" fill="#AE92C4"/>
<path fill-rule="evenodd" clip-rule="evenodd" d="M87.8571 27.8696C87.1694 23.163 84.2582 20.1416 81.2159 18.8528C79.5041 18.0893 77.612 17.8228 75.7559 18.0836C71.0361 18.753 68.3481 22.2915 67.516 25.851C67.0776 27.7069 67.0829 30.0195 68.0673 32.2193C69.7919 36.0833 73.6086 38.0914 77.4543 37.1385C79.7223 36.5715 81.1739 35.1908 82.1031 33.4268C83.1531 31.4396 83.5495 27.8696 81.4889 25.3864C79.7721 23.3284 75.7559 22.1734 73.3671 25.0215C72.5061 26.0584 71.7843 28.014 72.5718 29.9198C73.2464 31.5525 75.0261 32.5369 76.5723 31.9279C77.7089 31.4816 78.2549 30.5051 77.89 29.1086C77.7535 29.0771 77.7535 29.5549 77.6196 29.799C77.4583 30.0691 77.2294 30.2926 76.9555 30.4474C75.3201 31.2979 74.0943 29.841 74.1363 28.1768C74.1678 26.838 75.2099 25.641 76.7429 25.4599C78.3363 25.2761 79.843 26.2605 80.515 27.7305C81.7619 30.5078 80.263 33.8048 77.5225 34.839C74.5405 35.9546 71.6215 34.3429 70.2513 31.878C68.986 29.5864 69.2091 27.2449 69.8785 25.3864C70.8209 22.7824 73.3041 20.307 77.0054 20.2361C80.536 20.1758 84.4079 22.3965 85.576 27.3158C85.9592 28.9669 85.9435 30.2059 85.7072 31.5656C85.3109 34.02 84.2451 36.2696 82.1005 38.0966C79.9664 39.8921 76.6641 40.7741 74.0838 40.3673C71.6457 39.9997 69.4044 38.8161 67.726 37.0099C65.836 34.9939 64.4973 32.0329 64.3765 28.8173C64.2715 26.1923 64.9383 23.5148 66.1458 21.3649C67.2929 19.3043 69.5294 17.094 72.0468 15.9679L73.5194 15.4219C79.3915 14.0726 84.295 15.8471 87.5867 20.097C89.398 22.4595 90.7026 25.704 90.8916 28.8409C90.91 29.1559 88.8205 30.0195 87.8571 27.8696" fill="#F7EC35"/>
<path d="M59.1642 61.7612C54.9852 54.8522 22.0467 13.2197 48.3518 11.1775C52.4389 10.8625 57.7545 6.99587 50.6224 7.54712C34.2293 8.81237 24.9263 15.9524 30.5202 33.2196C33.3735 42.0212 39.012 49.6574 44.6033 56.8709C51.0135 65.1422 58.3058 87.5387 35.9093 84.5672C25.2807 83.1576 17.2744 63.0212 30.8877 67.3184C33.237 68.0586 42.3537 65.2472 39.5265 64.3574C31.1213 61.7061 17.004 60.5354 13.0665 70.5786C7.23902 85.3994 32.0925 89.0586 40.5949 88.3184C53.6464 87.208 67.7269 75.9021 59.1747 61.7717" fill="#29ABE2"/>
<path d="M52.0865 31.8633C53.2826 31.8633 54.2522 30.0981 54.2522 27.9205C54.2522 25.743 53.2826 23.9778 52.0865 23.9778C50.8905 23.9778 49.9209 25.743 49.9209 27.9205C49.9209 30.0981 50.8905 31.8633 52.0865 31.8633Z" fill="#29ABE2"/>
<path d="M163.229 38.8098C161.968 36.9204 158.932 36.7332 156.448 38.3915C153.964 40.0499 152.974 42.9258 154.235 44.8151C155.496 46.7045 158.533 46.8917 161.016 45.2334C163.5 43.5751 164.491 40.6991 163.229 38.8098Z" fill="#04A69C"/>
<path d="M138.418 129.635C139.825 127.851 139.062 124.905 136.715 123.056C134.369 121.206 131.326 121.153 129.92 122.937C128.514 124.722 129.276 127.667 131.623 129.517C133.97 131.366 137.012 131.419 138.418 129.635Z" fill="#B43248"/>
</svg>
