<svg width="125" height="135" viewBox="0 0 125 135" fill="none" xmlns="http://www.w3.org/2000/svg">
<g filter="url(#filter0_d)">
<path fill-rule="evenodd" clip-rule="evenodd" d="M103.192 14.7941H108.708C109.879 14.7941 110.899 15.3483 111.529 16.1986C112.052 16.8914 112.707 17.7102 113.5 18.3653C114.294 19.0203 115.326 19.5809 116.567 19.5809C117.142 19.5834 117.71 19.4672 118.238 19.2396C118.766 19.012 119.241 18.6779 119.634 18.2582C120.045 17.8203 120.334 17.2823 120.474 16.6979C120.613 16.1134 120.597 15.5027 120.427 14.9263C119.758 12.6428 118.439 10.6034 116.631 9.05672C114.823 7.51003 112.604 6.5229 110.245 6.21567V4.112C110.185 3.0015 109.702 1.9562 108.894 1.19127C108.087 0.426345 107.018 0 105.906 0C104.794 0 103.724 0.426345 102.917 1.19127C102.11 1.9562 101.627 3.0015 101.567 4.112V6.21567C98.6285 6.60753 95.9304 8.04852 93.9701 10.2731C92.0098 12.4977 90.9195 15.3559 90.8999 18.3212C90.8999 25.0794 96.4287 30.6094 103.192 30.6094H108.708C110.679 30.6094 112.228 32.1651 112.228 34.1365C112.228 36.1016 110.679 37.6573 108.702 37.6573H103.192C102.643 37.6615 102.102 37.5365 101.611 37.2925C101.119 37.0485 100.692 36.6923 100.364 36.2527C99.7973 35.4555 99.1378 34.7282 98.3997 34.0861C97.5521 33.333 96.4663 32.9026 95.333 32.8705C94.7573 32.8667 94.187 32.9823 93.6581 33.21C93.1292 33.4376 92.6532 33.7724 92.2601 34.1931C91.8499 34.6317 91.5615 35.1699 91.4234 35.7544C91.2854 36.3388 91.3024 36.9492 91.4729 37.525C92.1422 39.8085 93.4612 41.8479 95.2692 43.3946C97.0773 44.9413 99.2961 45.9284 101.655 46.2357V48.3393C101.624 48.9289 101.712 49.5187 101.916 50.0729C102.12 50.627 102.434 51.1338 102.84 51.5624C103.246 51.991 103.735 52.3323 104.277 52.5656C104.82 52.7988 105.404 52.9191 105.994 52.9191C106.584 52.9191 107.168 52.7988 107.711 52.5656C108.253 52.3323 108.742 51.991 109.148 51.5624C109.554 51.1338 109.868 50.627 110.072 50.0729C110.276 49.5187 110.364 48.9289 110.333 48.3393V46.2357C113.271 45.8438 115.969 44.4028 117.93 42.1782C119.89 39.9537 120.98 37.0954 121 34.1302C120.99 30.8731 119.692 27.7524 117.388 25.4499C115.085 23.1474 111.964 21.8503 108.708 21.842H103.192C102.727 21.847 102.267 21.7593 101.836 21.5838C101.406 21.4083 101.015 21.1487 100.687 20.8202C100.359 20.4917 100.099 20.1008 99.9236 19.6706C99.7481 19.2404 99.6604 18.7795 99.6654 18.3149C99.6654 16.3498 101.221 14.7941 103.192 14.7941V14.7941ZM54.3768 64.016C57.7169 64.016 60.9203 62.6889 63.2822 60.3265C65.6441 57.9642 66.9709 54.7601 66.9709 51.4193C66.9709 48.0784 65.6441 44.8743 63.2822 42.512C60.9203 40.1496 57.7169 38.8225 54.3768 38.8225C51.0366 38.8225 47.8332 40.1496 45.4713 42.512C43.1094 44.8743 41.7826 48.0784 41.7826 51.4193C41.7826 54.7601 43.1094 57.9642 45.4713 60.3265C47.8332 62.6889 51.0366 64.016 54.3768 64.016ZM54.3768 76.6128C61.0571 76.6128 67.4639 73.9585 72.1876 69.2338C76.9114 64.5091 79.5651 58.101 79.5651 51.4193C79.5651 44.7375 76.9114 38.3294 72.1876 33.6047C67.4639 28.88 61.0571 26.2257 54.3768 26.2257C47.6964 26.2257 41.2896 28.88 36.5659 33.6047C31.8421 38.3294 29.1884 44.7375 29.1884 51.4193C29.1884 58.101 31.8421 64.5091 36.5659 69.2338C41.2896 73.9585 47.6964 76.6128 54.3768 76.6128V76.6128ZM35.4855 95.508C30.4752 95.508 25.6701 97.4988 22.1273 101.042C18.5845 104.586 16.5942 109.392 16.5942 114.403V120.702C16.5942 122.372 15.9307 123.974 14.7498 125.155C13.5689 126.336 11.9672 127 10.2971 127C8.627 127 7.02531 126.336 5.84438 125.155C4.66344 123.974 4 122.372 4 120.702V114.403C4 106.051 7.31721 98.0409 13.2219 92.135C19.1266 86.2291 27.135 82.9112 35.4855 82.9112H73.268C81.6185 82.9112 89.627 86.2291 95.5316 92.135C101.436 98.0409 104.754 106.051 104.754 114.403V120.702C104.754 122.372 104.09 123.974 102.909 125.155C101.728 126.336 100.127 127 98.4564 127C96.7863 127 95.1846 126.336 94.0037 125.155C92.8228 123.974 92.1593 122.372 92.1593 120.702V114.403C92.1593 109.392 90.169 104.586 86.6262 101.042C83.0834 97.4988 78.2783 95.508 73.268 95.508H35.4855Z" fill="#6200EE"/>
</g>
<defs>
<filter id="filter0_d" x="0" y="0" width="125" height="135" filterUnits="userSpaceOnUse" color-interpolation-filters="sRGB">
<feFlood flood-opacity="0" result="BackgroundImageFix"/>
<feColorMatrix in="SourceAlpha" type="matrix" values="0 0 0 0 0 0 0 0 0 0 0 0 0 0 0 0 0 0 127 0"/>
<feOffset dy="4"/>
<feGaussianBlur stdDeviation="2"/>
<feColorMatrix type="matrix" values="0 0 0 0 0 0 0 0 0 0 0 0 0 0 0 0 0 0 0.25 0"/>
<feBlend mode="normal" in2="BackgroundImageFix" result="effect1_dropShadow"/>
<feBlend mode="normal" in="SourceGraphic" in2="effect1_dropShadow" result="shape"/>
</filter>
</defs>
</svg>
