<svg xmlns="http://www.w3.org/2000/svg" fill="none" viewBox="0 0 24 24"><path fill="#6200EE" fill-rule="evenodd" d="M5.073 8.001a8 8 0 0 1 14.574 6.361 1 1 0 0 0 1.91.592c1.352-4.362-.433-9.233-4.556-11.613C12.218.58 6.103 2.22 3.341 7.001c-2.761 4.783-1.123 10.9 3.66 13.66 4.123 2.38 9.234 1.492 12.335-1.86a1 1 0 1 0-1.467-1.358A8 8 0 0 1 5.074 8.002zm6.386 1.906h1.082c.216 0 .4.096.516.242.103.13.235.288.394.414.162.127.373.24.633.24.246 0 .479-.098.636-.264a.675.675 0 0 0 .164-.673c-.265-.87-1.046-1.52-1.995-1.654v-.347c0-.478-.402-.865-.898-.865s-.898.387-.898.865v.347C9.917 8.38 9 9.353 9 10.52c0 1.294 1.108 2.348 2.459 2.348h1.082c.363 0 .644.272.644.612 0 .341-.28.613-.644.613H11.46a.651.651 0 0 1-.516-.242 2.483 2.483 0 0 0-.394-.414 1.017 1.017 0 0 0-.633-.24.88.88 0 0 0-.636.264.675.675 0 0 0-.165.673c.266.87 1.047 1.52 1.996 1.654v.347c0 .478.402.865.898.865s.898-.387.898-.865v-.348C14.083 15.62 15 14.647 15 13.48c0-1.294-1.108-2.348-2.459-2.348H11.46c-.363 0-.644-.272-.644-.612 0-.341.28-.613.644-.613z" clip-rule="evenodd"/></svg>