<svg width="65" height="71" viewBox="0 0 65 71" fill="none" xmlns="http://www.w3.org/2000/svg">
<path fill-rule="evenodd" clip-rule="evenodd" d="M57.7778 23.6934V63.8926H3.61111C2.65338 63.8926 1.73488 64.267 1.05767 64.9335C0.380455 65.5999 8.08846e-08 66.5038 8.08846e-08 67.4463C8.08846e-08 68.3888 0.380455 69.2927 1.05767 69.9592C1.73488 70.6256 2.65338 71 3.61111 71H57.7778C59.6932 71 61.5302 70.2512 62.8847 68.9183C64.2391 67.5854 65 65.7776 65 63.8926V23.6934C65.0002 22.5236 64.7069 21.3718 64.1463 20.3403C63.5857 19.3088 62.775 18.4294 61.7861 17.7801L36.5083 1.1951C35.3215 0.415856 33.9267 0 32.5 0C31.0733 0 29.6785 0.415856 28.4917 1.1951L3.21389 17.7801C2.22505 18.4294 1.41434 19.3088 0.853703 20.3403C0.293063 21.3718 -0.000177806 22.5236 8.08846e-08 23.6934V53.2316C8.08846e-08 54.1741 0.380455 55.078 1.05767 55.7444C1.73488 56.4109 2.65338 56.7853 3.61111 56.7853C4.56884 56.7853 5.48734 56.4109 6.16455 55.7444C6.84177 55.078 7.22222 54.1741 7.22222 53.2316V23.6934L32.5 7.10842L57.7778 23.6934ZM30.5031 25.3992C31.084 24.9844 31.79 24.774 32.5072 24.8022C33.103 24.7848 33.6911 24.9385 34.1996 25.2446C34.7082 25.5507 35.1151 25.9958 35.3708 26.5257L46.5797 48.8215C46.7863 49.178 46.91 49.5753 46.9419 49.9845C46.9737 50.3938 46.9129 50.8049 46.7639 51.1882C46.629 51.579 46.4111 51.937 46.1247 52.2385C45.8383 52.54 45.4899 52.778 45.1028 52.9367C44.3493 53.2682 43.4978 53.3137 42.7122 53.0646L42.6869 53.0575L42.6617 53.0468C42.2704 52.9201 41.909 52.7173 41.5988 52.4506C41.2887 52.1838 41.0361 51.8585 40.8561 51.4939L32.5 34.8804L24.1475 51.501C23.7736 52.2269 23.1274 52.7813 22.3456 53.0468L22.3094 53.061C21.516 53.3288 20.6476 53.2803 19.89 52.926C19.1419 52.5906 18.5563 51.9811 18.2578 51.2273L18.2433 51.1882C18.0978 50.8082 18.0355 50.4022 18.0604 49.9968C18.0853 49.5914 18.1968 49.1958 18.3878 48.8357L29.6039 26.5257C29.8113 26.087 30.1205 25.7023 30.5067 25.4028L30.5031 25.3992Z" fill="#6200EE"/>
</svg>
