<svg width="168" height="169" viewBox="0 0 168 169" fill="none" xmlns="http://www.w3.org/2000/svg">
<g clip-path="url(#clip0)">
<path d="M144.113 104.833L163.276 124.902L79.0133 167.416C79.0133 167.416 67.9883 172.961 62.7383 164.247C41.7383 129.919 144.113 104.833 144.113 104.833" fill="#256382"/>
<path d="M76.6501 142.33C76.6501 142.33 60.6376 148.403 63.5251 159.758C66.6751 171.641 79.5376 164.511 79.5376 164.511L159.6 124.902C159.6 124.902 155.138 112.227 163.275 103.777L76.6501 142.33" fill="#D9E3E8"/>
<path d="M90.3 23.5015L166.95 102.984L76.3875 140.745L18.375 44.0983L90.3 23.5015Z" fill="#42ADE2"/>
<path d="M159.338 112.491L105.788 135.728L158.288 110.114L159.338 112.491Z" fill="#94989B"/>
<path d="M158.55 119.356L101.587 144.442L157.5 116.979L158.55 119.356Z" fill="#94989B"/>
<path d="M159.075 123.317L86.3628 156.853L158.025 120.94L159.075 123.317Z" fill="#94989B"/>
<path d="M62.475 163.983C53.55 144.178 76.3875 140.746 76.3875 140.746L18.375 44.0987C18.375 44.0987 5.25 43.8347 5.25 58.3581C5.25 64.4315 7.875 68.9206 7.875 68.9206L62.475 163.983Z" fill="#428BC1"/>
<path d="M22.8378 85.0281L3.67529 105.097L87.9378 147.611C87.9378 147.611 98.9628 153.156 104.213 144.442C125.213 110.114 22.8378 85.0281 22.8378 85.0281" fill="#547725"/>
<path d="M90.0378 122.525C90.0378 122.525 106.05 128.599 103.163 139.953C100.013 151.836 87.4128 144.706 87.4128 144.706L7.35029 105.097C7.35029 105.097 11.8128 92.4219 3.67529 83.9719L90.0378 122.525Z" fill="#D9E3E8"/>
<path d="M76.65 3.69678L0 83.1796L90.5625 120.941L148.575 24.2936L76.65 3.69678Z" fill="#83BF4F"/>
<path d="M8.39961 90.3093L60.8996 115.923L7.34961 92.6859L8.39961 90.3093Z" fill="#94989B"/>
<path d="M9.44922 97.1748L65.0992 124.637L8.13672 99.5514L9.44922 97.1748Z" fill="#94989B"/>
<path d="M8.92432 101.136L80.3243 137.048L7.61182 103.512L8.92432 101.136Z" fill="#94989B"/>
<path d="M104.475 144.178C113.4 124.374 90.5625 120.941 90.5625 120.941L148.575 24.294C148.575 24.294 161.7 24.03 161.7 38.5534C161.7 44.6268 159.075 49.1159 159.075 49.1159L104.475 144.178Z" fill="#699635"/>
<path d="M148.838 68.6562L164.85 85.5563L93.713 121.205C93.713 121.205 84.263 125.694 79.8005 118.564C62.4755 89.7813 148.838 68.6562 148.838 68.6562Z" fill="#962C2C"/>
<path d="M91.874 100.344C91.874 100.344 78.224 105.361 80.849 115.131C83.474 125.166 94.2365 119.092 94.2365 119.092L161.699 85.5562C161.699 85.5562 158.024 74.9937 164.849 67.864L91.874 100.344Z" fill="#D9E3E8"/>
<path d="M103.425 0L168 67.0719L91.6129 99.0234L42.5254 17.4281L103.425 0Z" fill="#ED4C5C"/>
<path d="M105.262 15.3157L117.863 29.311L71.4 47.0032L60.375 29.0469L105.262 15.3157Z" fill="white"/>
<path d="M161.701 75.2577L116.551 94.5342L160.651 72.8811L161.701 75.2577Z" fill="#94989B"/>
<path d="M161.175 81.067L112.875 101.928L160.125 78.6904L161.175 81.067Z" fill="#94989B"/>
<path d="M161.7 84.2359L100.275 112.491L160.388 81.8594L161.7 84.2359Z" fill="#94989B"/>
<path d="M80.0628 118.564C72.7128 101.928 91.8753 99.0237 91.8753 99.0237L42.5253 17.4284C42.5253 17.4284 31.2378 17.1644 31.2378 29.3112C31.2378 34.3284 33.3378 38.2894 33.3378 38.2894L80.0628 118.564Z" fill="#C94747"/>
</g>
<defs>
<clipPath id="clip0">
<rect width="168" height="169" fill="white"/>
</clipPath>
</defs>
</svg>
