<svg width="31" height="40" viewBox="0 0 31 40" fill="none" xmlns="http://www.w3.org/2000/svg">
<path fill-rule="evenodd" clip-rule="evenodd" d="M5.8125 10C5.8125 7.34784 6.83314 4.8043 8.6499 2.92893C10.4667 1.05357 12.9307 0 15.5 0C18.0693 0 20.5333 1.05357 22.3501 2.92893C24.1669 4.8043 25.1875 7.34784 25.1875 10V12C26.7291 12 28.2075 12.6321 29.2976 13.7574C30.3876 14.8826 31 16.4087 31 18V24C31 24.5304 30.7959 25.0391 30.4325 25.4142C30.0692 25.7893 29.5764 26 29.0625 26C28.5486 26 28.0558 25.7893 27.6925 25.4142C27.3291 25.0391 27.125 24.5304 27.125 24V18C27.125 17.4696 26.9209 16.9609 26.5575 16.5858C26.1942 16.2107 25.7014 16 25.1875 16H5.8125C5.29864 16 4.80583 16.2107 4.44248 16.5858C4.07913 16.9609 3.875 17.4696 3.875 18V34C3.875 34.5304 4.07913 35.0391 4.44248 35.4142C4.80583 35.7893 5.29864 36 5.8125 36H25.1875C25.7014 36 26.1942 35.7893 26.5575 35.4142C26.9209 35.0391 27.125 34.5304 27.125 34V32C27.125 31.4696 27.3291 30.9609 27.6925 30.5858C28.0558 30.2107 28.5486 30 29.0625 30C29.5764 30 30.0692 30.2107 30.4325 30.5858C30.7959 30.9609 31 31.4696 31 32V34C31 35.5913 30.3876 37.1174 29.2976 38.2426C28.2075 39.3679 26.7291 40 25.1875 40H5.8125C4.27093 40 2.7925 39.3679 1.70244 38.2426C0.612387 37.1174 0 35.5913 0 34V18C0 16.4087 0.612387 14.8826 1.70244 13.7574C2.7925 12.6321 4.27093 12 5.8125 12V10ZM21.3125 10V12H9.6875V10C9.6875 8.4087 10.2999 6.88258 11.3899 5.75736C12.48 4.63214 13.9584 4 15.5 4C17.0416 4 18.52 4.63214 19.6101 5.75736C20.7001 6.88258 21.3125 8.4087 21.3125 10V10ZM11.625 24C11.625 23.2978 11.804 22.6081 12.1441 22C12.4842 21.3919 12.9734 20.8869 13.5624 20.5358C14.1515 20.1847 14.8197 19.9999 15.4999 19.9999C16.1801 19.9999 16.8484 20.1847 17.4375 20.5358C18.0265 20.8868 18.5157 21.3918 18.8558 21.9999C19.1959 22.6079 19.375 23.2977 19.375 23.9999C19.375 24.702 19.196 25.3918 18.8559 25.9999C18.5158 26.608 18.0266 27.1129 17.4375 27.464V30C17.4375 30.5304 17.2334 31.0391 16.87 31.4142C16.5067 31.7893 16.0139 32 15.5 32C14.9861 32 14.4933 31.7893 14.13 31.4142C13.7666 31.0391 13.5625 30.5304 13.5625 30V27.464C12.9734 27.1129 12.4843 26.608 12.1442 25.9999C11.8041 25.3919 11.625 24.7021 11.625 24V24Z" fill="white"/>
</svg>
