<svg width="168" height="168" viewBox="0 0 168 168" fill="none" xmlns="http://www.w3.org/2000/svg">
<path d="M130.791 61.0708C130.791 61.0708 136.605 62.3046 140.582 58.5902C146.462 53.1039 145.412 50.3608 149.192 42.1446C152.972 33.9152 161.464 33.4033 163.157 33.4033C164.85 33.4033 166.937 33.5346 166.937 34.4533C166.937 35.3721 163.932 37.8527 162.107 43.4571C160.283 49.0746 160.283 61.0839 155.322 67.0821C150.36 73.0933 145.924 75.1802 140.832 75.6921C135.752 76.2171 130.791 61.0708 130.791 61.0708V61.0708Z" fill="url(#paint0_linear)"/>
<path d="M60.6925 102.847L47.2525 103.359C47.2525 103.359 46.8587 117.586 46.8587 122.547C46.8587 127.509 47.3181 139.452 46.5962 141.211C45.3887 144.19 43.4594 145.122 42.8162 146.435C42.1075 147.852 41.7662 150.871 44.3781 151.921C46.99 152.971 52.0825 151.396 54.4319 150.097C56.7812 148.797 58.6187 147.065 58.8681 146.185C59.4587 144.099 60.6268 125.566 60.6925 121.642C60.8237 114.725 60.6925 102.847 60.6925 102.847V102.847Z" fill="#D1775B"/>
<path d="M103.516 95.5361C103.516 95.5361 103.398 101.784 104.947 108.595C105.997 113.163 110.302 120.211 109.908 125.566C109.514 130.921 107.69 135.095 105.341 137.838C102.991 140.581 103.385 143.718 104.041 144.492C104.697 145.267 107.69 146.448 112.52 145.792C116.287 145.28 117.875 143.574 118.269 142.786C118.662 141.999 121.917 130.252 122.705 127.377C123.492 124.503 125.264 117.52 125.973 114.449C127.154 109.357 128.847 101.915 128.847 101.521C128.847 101.127 119.712 86.1123 119.712 86.1123L103.516 95.5361V95.5361Z" fill="#D1775B"/>
<path d="M58.0911 43.8378C58.0911 43.8378 65.7955 51.8046 67.3573 52.3165C68.9192 52.8415 88.3705 51.529 99.868 51.9228C111.365 52.3165 119.844 52.8415 125.974 56.0965C132.103 59.3647 139.807 60.7953 143.338 81.5459C146.869 102.297 144.519 103.609 146.344 107.258C148.168 110.907 152.355 122.916 152.998 125.397C153.641 127.877 153.785 146.016 152.604 148.365C151.423 150.715 148.693 153.195 145.031 153.195C141.382 153.195 137.944 152.802 137.852 149.665C137.76 146.777 139.939 145.491 140.332 144.047C140.726 142.617 141.251 130.476 140.595 128.638C139.939 126.801 130.541 116.104 125.58 110.88C120.619 105.657 116.576 93.7784 116.576 93.7784C116.576 93.7784 106.522 97.1778 101.561 100.433C96.5998 103.701 90.9823 107.743 89.158 109.043C87.3336 110.342 85.7586 110.998 85.7586 110.998C85.7586 110.998 86.2836 120.658 85.8898 127.707C85.4961 134.755 84.8398 149.77 83.278 152.119C81.7161 154.468 77.7917 157.605 72.8305 157.474C67.8692 157.343 67.6067 154.731 69.6936 149.901C71.7805 145.071 71.9117 145.202 71.9117 144.021C71.9117 142.84 71.7673 124.898 71.7148 123.205C71.6492 120.921 70.8617 114.91 70.2186 114.398C69.5623 113.873 60.4273 115.579 51.5548 110.093C42.6823 104.607 38.1148 94.8809 36.4217 89.1322C34.7286 83.3834 32.248 71.7678 31.5261 69.6153C31.0274 68.119 28.1924 57.934 27.5492 55.7159C26.9061 53.4978 26.1186 49.324 26.1186 49.324C26.1186 49.324 15.6711 49.1665 12.7442 48.6678C9.80423 48.1822 5.8011 45.7278 4.51485 43.4834C3.34673 41.4228 0.53798 35.3459 1.83736 31.6315C2.66423 29.2822 7.45485 28.2978 9.41048 28.009C11.3661 27.7203 14.7917 27.2215 15.4742 26.0534C16.1567 24.8722 18.4142 18.3228 22.1286 15.6715C25.5542 13.2303 35.7392 10.7759 42.9842 13.519C50.2292 16.2622 53.3661 25.2659 53.3661 25.2659L58.0911 43.8378V43.8378Z" fill="#FFB903"/>
<path d="M58.1571 45.5315C58.1571 45.5315 49.4815 52.1859 38.4827 58.6565C34.6633 60.9009 29.479 62.7646 29.0852 63.4602C28.6915 64.1559 30.5552 69.4321 31.3427 69.8259C32.1302 70.2196 35.3852 68.7103 42.1183 65.0221C46.5808 62.5809 49.4552 60.7171 51.7127 59.0503C59.1152 53.5771 63.5646 49.5084 63.6565 48.7734C63.7483 47.9859 60.4277 45.1509 60.4277 45.1509L58.1571 45.5315V45.5315Z" fill="#0AC2E7"/>
<path d="M46.3045 23.2184C45.3595 22.8247 43.1151 25.5415 41.6976 28.114C39.9389 31.3165 37.327 36.1334 36.2114 42.9978C35.3451 48.379 35.332 53.7734 38.0751 55.0465C41.0545 56.4247 45.412 55.6634 50.4126 53.9703C56.1876 52.0015 63.3932 49.0615 63.6951 45.6753C63.9576 42.8009 61.8051 39.0865 61.8051 39.0865L46.2651 26.8803C46.2651 26.8672 47.2495 23.6122 46.3045 23.2184V23.2184Z" fill="#D27854"/>
<path d="M76.2685 72.6592L51.1998 78.3423L34.2686 81.2823L35.0561 83.8548C35.0561 83.8548 43.5348 84.5898 54.2448 83.7235C65.5979 82.8048 80.5867 78.1454 80.5867 78.1454L76.2685 72.6592Z" fill="#D27854"/>
<path d="M32.1838 27.9048C31.8688 30.0573 30.4119 31.7111 28.3513 31.3305C26.5663 31.0023 25.4769 29.1255 25.6738 26.9467C25.91 24.3348 27.7081 23.2586 29.5063 23.5211C31.3044 23.7836 32.4988 25.7392 32.1838 27.9048V27.9048Z" fill="#07000D"/>
<path d="M6.9838 36.0015C6.9838 36.0015 10.6982 35.6734 10.6982 32.9303C10.6982 30.1871 7.16755 29.7278 5.34317 29.7934C3.5188 29.8721 1.03817 30.7909 0.841297 32.8121C0.644422 34.8334 3.65005 36.0803 3.65005 36.0803C3.65005 36.0803 3.61067 38.5215 3.2563 39.2828C2.79692 40.2671 2.07505 41.3696 3.19067 42.2228C4.0963 42.9184 5.1463 40.7921 5.1463 40.7921C5.1463 40.7921 6.64255 43.8634 9.64817 45.1628C12.6538 46.4621 15.7644 45.8584 16.565 45.819C17.8644 45.7534 18.3238 43.6665 16.3682 43.6665C14.4125 43.6665 12.3388 43.7059 10.6982 42.9315C9.05755 42.1571 7.62692 40.4509 7.23317 39.4009C6.85255 38.3509 6.9838 36.0015 6.9838 36.0015V36.0015Z" fill="#54656B"/>
<path d="M47.4465 21.8401C47.4465 21.8401 53.1296 19.4251 55.1509 21.4464C57.1721 23.4676 59.3902 31.4345 60.8996 35.7395C62.0415 39.0076 63.1177 41.6851 62.4615 43.247C60.939 46.8958 54.9934 49.3239 51.5677 50.5576C48.1027 51.7914 42.564 53.6945 40.0177 51.857C37.4715 50.0326 38.784 42.9189 40.3459 38.1545C41.8159 33.6789 46.029 25.8826 46.5409 25.0295C47.0527 24.1895 47.4465 21.8401 47.4465 21.8401V21.8401Z" fill="url(#paint1_linear)"/>
<path d="M32.2994 74.8124C31.735 75.3768 32.785 80.9811 33.6644 81.4668C34.5437 81.9524 51.2519 81.4274 56.6331 80.653C62.6969 79.7736 74.7719 77.1618 74.7719 77.1618L80.35 87.8324C80.35 87.8324 85.0225 97.1643 85.3375 100.065C85.6787 103.097 85.7969 111.221 85.7969 111.221L86.9781 110.539C86.9781 110.539 87.2012 79.498 86.5187 70.4943C86.0069 63.7611 85.3375 52.2899 85.2456 51.7911C85.1537 51.3055 80.4812 51.463 77.4494 51.6599C74.4175 51.8568 73.4069 52.3818 73.4069 52.3818L73.4987 68.8274C73.4987 68.8274 68.4325 70.5993 64.7838 71.3736C61.0694 72.1611 54.9925 73.4868 51.0812 73.723C44.7419 74.1299 32.7981 74.3268 32.2994 74.8124V74.8124Z" fill="#865953"/>
<path d="M70.9775 51.6999C70.9775 51.6999 72.5394 76.8606 73.0382 77.3462C73.5238 77.8318 74.4032 77.6349 74.7969 78.0287C75.1907 78.4224 79.8894 87.0324 79.8894 87.0324C79.8894 87.0324 78.3275 52.4743 78.0256 51.7918C77.7369 51.1093 75.5844 51.3981 74.2063 51.3981C72.8282 51.3981 70.9775 51.0174 70.9775 51.6999V51.6999Z" fill="#6E4A3A"/>
<path d="M66.375 51.7383C66.375 51.7383 95.8406 33.5995 96.9169 32.4183C97.9931 31.237 108.992 16.7601 111.932 14.3976C115.016 11.9301 119.269 11.602 122.248 13.807C124.532 15.5001 126.619 18.637 124.926 22.4826C122.826 27.2339 113.625 41.6714 111.486 44.152C109.097 46.9214 85.4719 64.2201 85.4719 64.2201C85.4719 64.2201 78.8175 72.7383 77.5444 74.4051C76.2712 76.072 74.4862 76.3476 73.5675 75.547C72.1369 74.3133 72.6487 72.6464 74.4206 70.3889C76.1794 68.1314 83.0306 60.7945 83.0306 60.7945C83.0306 60.7945 107.443 43.4301 108.782 41.6058C110.121 39.7814 120.161 23.1651 120.699 22.417C121.999 20.5926 121.421 17.8101 119.649 16.7339C117.877 15.6576 115.213 16.2089 114.032 17.3901C112.851 18.5714 100.776 33.2451 99.4762 34.8464C98.1769 36.4476 73.2919 51.4101 73.2919 51.4101C73.2919 51.4101 71.6644 51.4758 71.2706 51.607C70.8769 51.7383 70.9425 52.3945 70.9425 52.3945L67.5431 52.4601L66.375 51.7383V51.7383Z" fill="#ABB0B1"/>
<defs>
<linearGradient id="paint0_linear" x1="130.605" y1="70.7308" x2="161.152" y2="47.2345" gradientUnits="userSpaceOnUse">
<stop stop-color="#D07753"/>
<stop offset="0.221" stop-color="#DA8543"/>
<stop offset="0.652" stop-color="#F3A818"/>
<stop offset="0.843" stop-color="#FFB903"/>
</linearGradient>
<linearGradient id="paint1_linear" x1="51.111" y1="58.9708" x2="49.8877" y2="24.4796" gradientUnits="userSpaceOnUse">
<stop offset="0.091" stop-color="#D07753"/>
<stop offset="0.178" stop-color="#DA8542"/>
<stop offset="0.35" stop-color="#EA9C27"/>
<stop offset="0.524" stop-color="#F6AC13"/>
<stop offset="0.699" stop-color="#FDB607"/>
<stop offset="0.877" stop-color="#FFB903"/>
</linearGradient>
</defs>
</svg>
