<svg width="30" height="18" viewBox="0 0 30 18" fill="none" xmlns="http://www.w3.org/2000/svg">
<g id="Vector">
<path fill-rule="evenodd" clip-rule="evenodd" d="M9.53456 6.67839C10.1667 6.67839 10.773 6.44385 11.2201 6.02637C11.6671 5.60889 11.9182 5.04267 11.9182 4.45226C11.9182 3.86185 11.6671 3.29563 11.2201 2.87815C10.773 2.46067 10.1667 2.22613 9.53456 2.22613C8.90238 2.22613 8.2961 2.46067 7.84908 2.87815C7.40206 3.29563 7.15092 3.86185 7.15092 4.45226C7.15092 5.04267 7.40206 5.60889 7.84908 6.02637C8.2961 6.44385 8.90238 6.67839 9.53456 6.67839ZM9.53456 8.90452C10.7989 8.90452 12.0115 8.43544 12.9055 7.60048C13.7996 6.76552 14.3018 5.63307 14.3018 4.45226C14.3018 3.27145 13.7996 2.139 12.9055 1.30404C12.0115 0.469074 10.7989 0 9.53456 0C8.2702 0 7.05763 0.469074 6.16359 1.30404C5.26955 2.139 4.76728 3.27145 4.76728 4.45226C4.76728 5.63307 5.26955 6.76552 6.16359 7.60048C7.05763 8.43544 8.2702 8.90452 9.53456 8.90452ZM5.9591 12.2437C5.01083 12.2437 4.1014 12.5955 3.43087 13.2218C2.76034 13.848 2.38364 14.6973 2.38364 15.5829V16.696C2.38364 16.9912 2.25807 17.2743 2.03456 17.483C1.81106 17.6918 1.50791 17.8091 1.19182 17.8091C0.87573 17.8091 0.572586 17.6918 0.349076 17.483C0.125566 17.2743 0 16.9912 0 16.696V15.5829C0 14.1069 0.627832 12.6913 1.74538 11.6476C2.86293 10.6039 4.37865 10.0176 5.9591 10.0176H13.11C14.6905 10.0176 16.2062 10.6039 17.3237 11.6476C18.4413 12.6913 19.0691 14.1069 19.0691 15.5829V16.696C19.0691 16.9912 18.9436 17.2743 18.7201 17.483C18.4965 17.6918 18.1934 17.8091 17.8773 17.8091C17.5612 17.8091 17.2581 17.6918 17.0346 17.483C16.8111 17.2743 16.6855 16.9912 16.6855 16.696V15.5829C16.6855 14.6973 16.3088 13.848 15.6383 13.2218C14.9677 12.5955 14.0583 12.2437 13.11 12.2437H5.9591Z" fill="#6200EE"/>
<path fill-rule="evenodd" clip-rule="evenodd" d="M20.4654 6.86935C21.0976 6.86935 21.7039 6.63482 22.1509 6.21733C22.5979 5.79985 22.8491 5.23363 22.8491 4.64322C22.8491 4.05282 22.5979 3.48659 22.1509 3.06911C21.7039 2.65163 21.0976 2.41709 20.4654 2.41709C19.8333 2.41709 19.227 2.65163 18.7799 3.06911C18.3329 3.48659 18.0818 4.05282 18.0818 4.64322C18.0818 5.23363 18.3329 5.79985 18.7799 6.21733C19.227 6.63482 19.8333 6.86935 20.4654 6.86935ZM20.4654 9.09548C21.7298 9.09548 22.9424 8.62641 23.8364 7.79145C24.7304 6.95649 25.2327 5.82404 25.2327 4.64322C25.2327 3.46241 24.7304 2.32996 23.8364 1.495C22.9424 0.660041 21.7298 0.190965 20.4654 0.190965C19.2011 0.190965 17.9885 0.660041 17.0945 1.495C16.2004 2.32996 15.6982 3.46241 15.6982 4.64322C15.6982 5.82404 16.2004 6.95649 17.0945 7.79145C17.9885 8.62641 19.2011 9.09548 20.4654 9.09548ZM16.89 12.4347C15.9417 12.4347 15.0323 12.7865 14.3617 13.4127C13.6912 14.0389 13.3145 14.8883 13.3145 15.7739V16.8869C13.3145 17.1821 13.1889 17.4653 12.9654 17.674C12.7419 17.8827 12.4388 18 12.1227 18C11.8066 18 11.5035 17.8827 11.2799 17.674C11.0564 17.4653 10.9309 17.1821 10.9309 16.8869V15.7739C10.9309 14.2979 11.5587 12.8823 12.6763 11.8386C13.7938 10.7949 15.3095 10.2085 16.89 10.2085H24.0409C25.6213 10.2085 27.1371 10.7949 28.2546 11.8386C29.3722 12.8823 30 14.2979 30 15.7739V16.8869C30 17.1821 29.8744 17.4653 29.6509 17.674C29.4274 17.8827 29.1243 18 28.8082 18C28.4921 18 28.1889 17.8827 27.9654 17.674C27.7419 17.4653 27.6164 17.1821 27.6164 16.8869V15.7739C27.6164 14.8883 27.2397 14.0389 26.5691 13.4127C25.8986 12.7865 24.9892 12.4347 24.0409 12.4347H16.89Z" fill="#6200EE"/>
</g>
</svg>
