<svg width="32" height="32" viewBox="0 0 32 32" fill="none" xmlns="http://www.w3.org/2000/svg">
<g id="icon-retail-bills 1" clip-path="url(#clip0)">
<path id="Vector" fill-rule="evenodd" clip-rule="evenodd" d="M3.69799 4C3.20642 4.0001 2.7321 4.18124 2.36559 4.50883C1.99908 4.83642 1.76605 5.28752 1.71099 5.776L0.130992 19.776C0.099444 20.0559 0.127377 20.3393 0.212962 20.6077C0.298547 20.876 0.439853 21.1233 0.627628 21.3333C0.815402 21.5432 1.04541 21.7111 1.30259 21.826C1.55977 21.9409 1.83831 22.0002 2.11999 22H6.07599C6.34121 22 6.59556 21.8946 6.7831 21.7071C6.97063 21.5196 7.07599 21.2652 7.07599 21C7.07599 20.7348 6.97063 20.4804 6.7831 20.2929C6.59556 20.1054 6.34121 20 6.07599 20H2.11999L3.69999 6H14.544L15.007 10.112C15.0367 10.3756 15.1699 10.6167 15.3773 10.7821C15.5847 10.9475 15.8494 11.0237 16.113 10.994C16.3766 10.9643 16.6176 10.8311 16.7831 10.6237C16.9485 10.4163 17.0247 10.1516 16.995 9.888L16.531 5.776C16.4759 5.28735 16.2427 4.83611 15.876 4.5085C15.5093 4.18088 15.0347 3.99986 14.543 4H3.69799ZM12 13C11.2043 13 10.4413 13.3161 9.87867 13.8787C9.31606 14.4413 8.99999 15.2044 8.99999 16V23C8.99999 23.7956 9.31606 24.5587 9.87867 25.1213C10.4413 25.6839 11.2043 26 12 26H17C17.2652 26 17.5196 25.8946 17.7071 25.7071C17.8946 25.5196 18 25.2652 18 25C18 24.7348 17.8946 24.4804 17.7071 24.2929C17.5196 24.1054 17.2652 24 17 24H12C11.7348 24 11.4804 23.8946 11.2929 23.7071C11.1053 23.5196 11 23.2652 11 23V16C11 15.7348 11.1053 15.4804 11.2929 15.2929C11.4804 15.1054 11.7348 15 12 15H23C23.2652 15 23.5196 15.1054 23.7071 15.2929C23.8946 15.4804 24 15.7348 24 16V23C24 23.2652 23.8946 23.5196 23.7071 23.7071C23.5196 23.8946 23.2652 24 23 24H21C20.7348 24 20.4804 24.1054 20.2929 24.2929C20.1053 24.4804 20 24.7348 20 25C20 25.2652 20.1053 25.5196 20.2929 25.7071C20.4804 25.8946 20.7348 26 21 26H23C23.7956 26 24.5587 25.6839 25.1213 25.1213C25.6839 24.5587 26 23.7956 26 23V16C26 15.2044 25.6839 14.4413 25.1213 13.8787C24.5587 13.3161 23.7956 13 23 13H12Z" fill="#6200EE"/>
<path id="Vector_2" fill-rule="evenodd" clip-rule="evenodd" d="M9 0C7.93913 0 6.92172 0.421427 6.17157 1.17157C5.42143 1.92172 5 2.93913 5 4V7C5 7.26522 5.10536 7.51957 5.29289 7.70711C5.48043 7.89464 5.73478 8 6 8C6.26522 8 6.51957 7.89464 6.70711 7.70711C6.89464 7.51957 7 7.26522 7 7V4C7 3.46957 7.21071 2.96086 7.58579 2.58579C7.96086 2.21071 8.46957 2 9 2C9.53043 2 10.0391 2.21071 10.4142 2.58579C10.7893 2.96086 11 3.46957 11 4V7C11 7.26522 11.1054 7.51957 11.2929 7.70711C11.4804 7.89464 11.7348 8 12 8C12.2652 8 12.5196 7.89464 12.7071 7.70711C12.8946 7.51957 13 7.26522 13 7V4C13 2.93913 12.5786 1.92172 11.8284 1.17157C11.0783 0.421427 10.0609 0 9 0V0ZM24 17H11V19H24V17Z" fill="#9B55FF"/>
</g>
<defs>
<clipPath id="clip0">
<rect width="32" height="32" fill="white"/>
</clipPath>
</defs>
</svg>
