<svg width="32" height="32" viewBox="0 0 32 32" fill="none" xmlns="http://www.w3.org/2000/svg">
<g id="icon-telco-bills 1" clip-path="url(#clip0)">
<path id="Vector" fill-rule="evenodd" clip-rule="evenodd" d="M3 0C2.20435 0 1.44129 0.31607 0.87868 0.87868C0.31607 1.44129 0 2.20435 0 3L0 15C0 15.7956 0.31607 16.5587 0.87868 17.1213C1.44129 17.6839 2.20435 18 3 18H12V21H7C6.73478 21 6.48043 21.1054 6.29289 21.2929C6.10536 21.4804 6 21.7348 6 22C6 22.2652 6.10536 22.5196 6.29289 22.7071C6.48043 22.8946 6.73478 23 7 23H15C15.2652 23 15.5196 22.8946 15.7071 22.7071C15.8946 22.5196 16 22.2652 16 22C16 21.7348 15.8946 21.4804 15.7071 21.2929C15.5196 21.1054 15.2652 21 15 21H14V18H15C15.2652 18 15.5196 17.8946 15.7071 17.7071C15.8946 17.5196 16 17.2652 16 17C16 16.7348 15.8946 16.4804 15.7071 16.2929C15.5196 16.1054 15.2652 16 15 16H3C2.73478 16 2.48043 15.8946 2.29289 15.7071C2.10536 15.5196 2 15.2652 2 15V3C2 2.73478 2.10536 2.48043 2.29289 2.29289C2.48043 2.10536 2.73478 2 3 2H23C23.2652 2 23.5196 2.10536 23.7071 2.29289C23.8946 2.48043 24 2.73478 24 3V4C24 4.26522 24.1054 4.51957 24.2929 4.70711C24.4804 4.89464 24.7348 5 25 5C25.2652 5 25.5196 4.89464 25.7071 4.70711C25.8946 4.51957 26 4.26522 26 4V3C26 2.20435 25.6839 1.44129 25.1213 0.87868C24.5587 0.31607 23.7956 0 23 0L3 0ZM18 9C18 8.46957 18.2107 7.96086 18.5858 7.58579C18.9609 7.21071 19.4696 7 20 7H26C27.102 7 28 7.891 28 8.998V15C28 15.2652 27.8946 15.5196 27.7071 15.7071C27.5196 15.8946 27.2652 16 27 16C26.7348 16 26.4804 15.8946 26.2929 15.7071C26.1054 15.5196 26 15.2652 26 15V9H20V21H26V19C26 18.7348 26.1054 18.4804 26.2929 18.2929C26.4804 18.1054 26.7348 18 27 18C27.2652 18 27.5196 18.1054 27.7071 18.2929C27.8946 18.4804 28 18.7348 28 19V21C28 21.5304 27.7893 22.0391 27.4142 22.4142C27.0391 22.7893 26.5304 23 26 23H20C19.4696 23 18.9609 22.7893 18.5858 22.4142C18.2107 22.0391 18 21.5304 18 21V9Z" fill="#6200EE"/>
<path id="Vector_2" fill-rule="evenodd" clip-rule="evenodd" d="M10.514 5.14294C10.3623 5.05204 10.1892 5.003 10.0124 5.00081C9.83555 4.99862 9.66129 5.04336 9.50739 5.13048C9.35349 5.2176 9.22545 5.34397 9.13631 5.49671C9.04718 5.64945 9.00014 5.8231 9 5.99994V11.9999C9.00014 12.1768 9.04718 12.3504 9.13631 12.5032C9.22545 12.6559 9.35349 12.7823 9.50739 12.8694C9.66129 12.9565 9.83555 13.0013 10.0124 12.9991C10.1892 12.9969 10.3623 12.9478 10.514 12.8569L15.514 9.85694C15.6619 9.76804 15.7842 9.6424 15.8691 9.49222C15.954 9.34205 15.9987 9.17247 15.9987 8.99994C15.9987 8.82742 15.954 8.65783 15.8691 8.50766C15.7842 8.35749 15.6619 8.23185 15.514 8.14294L10.514 5.14294ZM13.056 8.99994L11 10.2339V7.76594L13.056 8.99994ZM23 19.9999C23.2652 19.9999 23.5196 19.8946 23.7071 19.7071C23.8946 19.5195 24 19.2652 24 18.9999C24 18.7347 23.8946 18.4804 23.7071 18.2928C23.5196 18.1053 23.2652 17.9999 23 17.9999C22.7348 17.9999 22.4804 18.1053 22.2929 18.2928C22.1054 18.4804 22 18.7347 22 18.9999C22 19.2652 22.1054 19.5195 22.2929 19.7071C22.4804 19.8946 22.7348 19.9999 23 19.9999Z" fill="#9B55FF"/>
</g>
<defs>
<clipPath id="clip0">
<rect width="32" height="32" fill="white"/>
</clipPath>
</defs>
</svg>
