<svg width="32" height="32" viewBox="0 0 32 32" fill="none" xmlns="http://www.w3.org/2000/svg">
<g id="icon-truck 1">
<path id="Vector" fill-rule="evenodd" clip-rule="evenodd" d="M2.66665 13.3333C2.31302 13.3333 1.97389 13.1928 1.72384 12.9427C1.47379 12.6927 1.33331 12.3535 1.33331 11.9999V7.99992C1.33331 7.29267 1.61426 6.6144 2.11436 6.1143C2.61446 5.6142 3.29274 5.33325 3.99998 5.33325H20C20.7072 5.33325 21.3855 5.6142 21.8856 6.1143C22.3857 6.6144 22.6666 7.29267 22.6666 7.99992V10.6666H25.9533C26.3922 10.6665 26.8244 10.7748 27.2114 10.9818C27.5984 11.1888 27.9284 11.4881 28.172 11.8533L30.2186 14.9239C30.5109 15.3622 30.6668 15.8772 30.6666 16.4039V19.9999C30.6666 20.7072 30.3857 21.3854 29.8856 21.8855C29.3855 22.3856 28.7072 22.6666 28 22.6666C28 23.7274 27.5786 24.7449 26.8284 25.495C26.0783 26.2452 25.0608 26.6666 24 26.6666C22.9391 26.6666 21.9217 26.2452 21.1716 25.495C20.4214 24.7449 20 23.7274 20 22.6666H12C12 23.7274 11.5786 24.7449 10.8284 25.495C10.0783 26.2452 9.06085 26.6666 7.99998 26.6666C6.93911 26.6666 5.9217 26.2452 5.17155 25.495C4.42141 24.7449 3.99998 23.7274 3.99998 22.6666C3.29274 22.6666 2.61446 22.3856 2.11436 21.8855C1.61426 21.3854 1.33331 20.7072 1.33331 19.9999V17.3333C1.33331 16.9796 1.47379 16.6405 1.72384 16.3904C1.97389 16.1404 2.31302 15.9999 2.66665 15.9999C3.02027 15.9999 3.35941 16.1404 3.60946 16.3904C3.8595 16.6405 3.99998 16.9796 3.99998 17.3333V19.9999H5.01865C5.75198 19.1813 6.81598 18.6666 7.99998 18.6666C9.18398 18.6666 10.2493 19.1813 10.9813 19.9999H20V7.99992H3.99998V11.9999C3.99998 12.3535 3.8595 12.6927 3.60946 12.9427C3.35941 13.1928 3.02027 13.3333 2.66665 13.3333ZM28 19.9999H26.9813C26.4536 19.4074 25.7613 18.9857 24.9927 18.7886C24.2242 18.5915 23.4144 18.6279 22.6666 18.8933V13.3333H25.9533L28 16.4039V19.9999ZM9.33331 22.6666C9.33331 23.0202 9.19284 23.3593 8.94279 23.6094C8.69274 23.8594 8.3536 23.9999 7.99998 23.9999C7.64636 23.9999 7.30722 23.8594 7.05717 23.6094C6.80712 23.3593 6.66665 23.0202 6.66665 22.6666C6.66665 22.313 6.80712 21.9738 7.05717 21.7238C7.30722 21.4737 7.64636 21.3333 7.99998 21.3333C8.3536 21.3333 8.69274 21.4737 8.94279 21.7238C9.19284 21.9738 9.33331 22.313 9.33331 22.6666ZM24 23.9999C24.3536 23.9999 24.6927 23.8594 24.9428 23.6094C25.1928 23.3593 25.3333 23.0202 25.3333 22.6666C25.3333 22.313 25.1928 21.9738 24.9428 21.7238C24.6927 21.4737 24.3536 21.3333 24 21.3333C23.6464 21.3333 23.3072 21.4737 23.0572 21.7238C22.8071 21.9738 22.6666 22.313 22.6666 22.6666C22.6666 23.0202 22.8071 23.3593 23.0572 23.6094C23.3072 23.8594 23.6464 23.9999 24 23.9999ZM7.99998 10.6666C7.64636 10.6666 7.30722 10.8071 7.05717 11.0571C6.80712 11.3072 6.66665 11.6463 6.66665 11.9999C6.66665 12.3535 6.80712 12.6927 7.05717 12.9427C7.30722 13.1928 7.64636 13.3333 7.99998 13.3333H16C16.3536 13.3333 16.6927 13.1928 16.9428 12.9427C17.1928 12.6927 17.3333 12.3535 17.3333 11.9999C17.3333 11.6463 17.1928 11.3072 16.9428 11.0571C16.6927 10.8071 16.3536 10.6666 16 10.6666H7.99998Z" fill="#6200EE"/>
</g>
</svg>
