<svg width="30" height="30" viewBox="0 0 30 30" fill="none" xmlns="http://www.w3.org/2000/svg">
<path id="Vector" fill-rule="evenodd" clip-rule="evenodd" d="M25.4338 3.49466H26.8482C27.1485 3.49466 27.4101 3.62559 27.5716 3.82645C27.7056 3.99011 27.8735 4.18352 28.077 4.33825C28.2804 4.49299 28.5452 4.6254 28.8633 4.6254C29.0106 4.62599 29.1565 4.59855 29.2918 4.54478C29.4271 4.49102 29.5489 4.4121 29.6496 4.31296C29.7551 4.20951 29.8293 4.08244 29.865 3.94438C29.9007 3.80632 29.8966 3.66205 29.8531 3.52591C29.6815 2.9865 29.3432 2.50474 28.8797 2.13938C28.4161 1.77402 27.8471 1.54084 27.2422 1.46827V0.971339C27.2269 0.709016 27.103 0.462095 26.896 0.281403C26.6891 0.100711 26.4148 0 26.1297 0C25.8446 0 25.5704 0.100711 25.3634 0.281403C25.1565 0.462095 25.0326 0.709016 25.0172 0.971339V1.46827C24.2637 1.56083 23.5719 1.90123 23.0693 2.42672C22.5666 2.95221 22.287 3.62739 22.282 4.32784C22.282 5.92426 23.6997 7.23056 25.4338 7.23056H26.8482C27.3536 7.23056 27.7508 7.59804 27.7508 8.06373C27.7508 8.52793 27.3536 8.89542 26.8466 8.89542H25.4338C25.2932 8.89641 25.1543 8.86689 25.0283 8.80925C24.9024 8.75161 24.7929 8.66747 24.7088 8.56363C24.5634 8.37531 24.3943 8.20351 24.2051 8.05183C23.9877 7.87393 23.7093 7.77227 23.4187 7.76468C23.2711 7.76379 23.1249 7.7911 22.9893 7.84487C22.8536 7.89865 22.7316 7.97772 22.6308 8.07712C22.5256 8.18072 22.4517 8.30785 22.4163 8.44591C22.3809 8.58397 22.3852 8.72815 22.429 8.86417C22.6006 9.40358 22.9388 9.88534 23.4024 10.2507C23.866 10.6161 24.4349 10.8492 25.0398 10.9218V11.4187C25.0317 11.558 25.0544 11.6973 25.1066 11.8282C25.1589 11.9591 25.2395 12.0789 25.3436 12.1801C25.4477 12.2813 25.5731 12.362 25.7121 12.4171C25.8512 12.4722 26.001 12.5006 26.1523 12.5006C26.3037 12.5006 26.4534 12.4722 26.5925 12.4171C26.7315 12.362 26.8569 12.2813 26.961 12.1801C27.0651 12.0789 27.1458 11.9591 27.198 11.8282C27.2502 11.6973 27.2729 11.558 27.2648 11.4187V10.9218C28.0183 10.8292 28.7101 10.4889 29.2128 9.96336C29.7154 9.43787 29.995 8.76269 30 8.06224C29.9974 7.29286 29.6645 6.55569 29.0739 6.01179C28.4834 5.46789 27.6832 5.16149 26.8482 5.15952H25.4338C25.3147 5.16072 25.1965 5.13999 25.0863 5.09854C24.976 5.05709 24.8758 4.99576 24.7915 4.91816C24.7073 4.84055 24.6408 4.74823 24.5958 4.6466C24.5508 4.54498 24.5283 4.4361 24.5296 4.32635C24.5296 3.86215 24.9284 3.49466 25.4338 3.49466ZM12.9171 15.1219C13.7736 15.1219 14.595 14.8084 15.2006 14.2504C15.8062 13.6923 16.1464 12.9355 16.1464 12.1463C16.1464 11.3571 15.8062 10.6002 15.2006 10.0422C14.595 9.48416 13.7736 9.17066 12.9171 9.17066C12.0607 9.17066 11.2393 9.48416 10.6337 10.0422C10.0281 10.6002 9.68784 11.3571 9.68784 12.1463C9.68784 12.9355 10.0281 13.6923 10.6337 14.2504C11.2393 14.8084 12.0607 15.1219 12.9171 15.1219ZM12.9171 18.0975C14.63 18.0975 16.2728 17.4705 17.484 16.3544C18.6952 15.2384 19.3757 13.7246 19.3757 12.1463C19.3757 10.5679 18.6952 9.05419 17.484 7.93812C16.2728 6.82204 14.63 6.19504 12.9171 6.19504C11.2042 6.19504 9.56144 6.82204 8.35023 7.93812C7.13901 9.05419 6.45856 10.5679 6.45856 12.1463C6.45856 13.7246 7.13901 15.2384 8.35023 16.3544C9.56144 17.4705 11.2042 18.0975 12.9171 18.0975ZM8.0732 22.561C6.78851 22.561 5.55644 23.0312 4.64803 23.8683C3.73962 24.7053 3.22928 25.8406 3.22928 27.0244V28.5122C3.22928 28.9068 3.05917 29.2852 2.75636 29.5642C2.45356 29.8432 2.04287 30 1.61464 30C1.18641 30 0.77572 29.8432 0.472917 29.5642C0.170113 29.2852 0 28.9068 0 28.5122V27.0244C0 25.0514 0.850567 23.1593 2.36458 21.7642C3.8786 20.3691 5.93205 19.5853 8.0732 19.5853H17.761C19.9022 19.5853 21.9556 20.3691 23.4696 21.7642C24.9837 23.1593 25.8342 25.0514 25.8342 27.0244V28.5122C25.8342 28.9068 25.6641 29.2852 25.3613 29.5642C25.0585 29.8432 24.6478 30 24.2196 30C23.7914 30 23.3807 29.8432 23.0779 29.5642C22.7751 29.2852 22.605 28.9068 22.605 28.5122V27.0244C22.605 25.8406 22.0946 24.7053 21.1862 23.8683C20.2778 23.0312 19.0457 22.561 17.761 22.561H8.0732Z" fill="#6200EE"/>
</svg>
