<svg width="30" height="30" viewBox="0 0 30 30" fill="none" xmlns="http://www.w3.org/2000/svg">
<g id="icon-add-money 1">
<path id="Vector" fill-rule="evenodd" clip-rule="evenodd" d="M15 5C13.0222 5 11.0888 5.58649 9.4443 6.6853C7.79981 7.78412 6.51808 9.3459 5.7612 11.1732C5.00433 13.0004 4.8063 15.0111 5.19215 16.9509C5.578 18.8907 6.53041 20.6725 7.92893 22.0711C9.32746 23.4696 11.1093 24.422 13.0491 24.8079C14.9889 25.1937 16.9996 24.9957 18.8268 24.2388C20.6541 23.4819 22.2159 22.2002 23.3147 20.5557C24.4135 18.9112 25 16.9778 25 15C25 14.6685 25.1317 14.3505 25.3661 14.1161C25.6005 13.8817 25.9185 13.75 26.25 13.75C26.5815 13.75 26.8995 13.8817 27.1339 14.1161C27.3683 14.3505 27.5 14.6685 27.5 15C27.5 21.9037 21.9037 27.5 15 27.5C8.09625 27.5 2.5 21.9037 2.5 15C2.5 8.09625 8.09625 2.5 15 2.5C15.3315 2.5 15.6495 2.6317 15.8839 2.86612C16.1183 3.10054 16.25 3.41848 16.25 3.75C16.25 4.08152 16.1183 4.39946 15.8839 4.63388C15.6495 4.8683 15.3315 5 15 5ZM23.75 3.75C23.75 3.41848 23.6183 3.10054 23.3839 2.86612C23.1495 2.6317 22.8315 2.5 22.5 2.5C22.1685 2.5 21.8505 2.6317 21.6161 2.86612C21.3817 3.10054 21.25 3.41848 21.25 3.75V6.25H18.75C18.4185 6.25 18.1005 6.3817 17.8661 6.61612C17.6317 6.85054 17.5 7.16848 17.5 7.5C17.5 7.83152 17.6317 8.14946 17.8661 8.38388C18.1005 8.6183 18.4185 8.75 18.75 8.75H21.25V11.25C21.25 11.5815 21.3817 11.8995 21.6161 12.1339C21.8505 12.3683 22.1685 12.5 22.5 12.5C22.8315 12.5 23.1495 12.3683 23.3839 12.1339C23.6183 11.8995 23.75 11.5815 23.75 11.25V8.75H26.25C26.5815 8.75 26.8995 8.6183 27.1339 8.38388C27.3683 8.14946 27.5 7.83152 27.5 7.5C27.5 7.16848 27.3683 6.85054 27.1339 6.61612C26.8995 6.3817 26.5815 6.25 26.25 6.25H23.75V3.75ZM15.7662 12.6025H14.385C14.2775 12.6007 14.1707 12.6203 14.0709 12.6603C13.9711 12.7003 13.8803 12.7598 13.8038 12.8354C13.7273 12.911 13.6666 13.0011 13.6254 13.1004C13.5842 13.1997 13.5632 13.3062 13.5637 13.4137C13.5638 13.8637 13.9225 14.225 14.385 14.225H15.7662C17.4887 14.225 18.9013 15.6213 18.9013 17.3375C18.9013 18.8813 17.7312 20.1713 16.2325 20.3938V20.8538C16.2325 21.1576 16.1118 21.449 15.897 21.6638C15.6821 21.8787 15.3907 21.9994 15.0869 21.9994C14.783 21.9994 14.4916 21.8787 14.2768 21.6638C14.0619 21.449 13.9412 21.1576 13.9412 20.8538V20.3938C13.3525 20.309 12.8002 20.0577 12.3495 19.6695C11.8988 19.2812 11.5685 18.7722 11.3975 18.2025C11.3514 18.0487 11.3463 17.8854 11.383 17.729C11.4196 17.5726 11.4966 17.4286 11.6062 17.3112C11.7102 17.2 11.836 17.1114 11.9759 17.0512C12.1157 16.9909 12.2665 16.9603 12.4188 16.9613C12.7488 16.9613 13.0188 17.1112 13.225 17.2787C13.4288 17.445 13.5963 17.655 13.7275 17.8287C13.8049 17.9292 13.9046 18.0102 14.0187 18.0655C14.1328 18.1209 14.2582 18.1489 14.385 18.1475H15.7662C16.2288 18.1475 16.5875 17.7875 16.5875 17.3363C16.5878 17.2288 16.5668 17.1223 16.5255 17.0231C16.4842 16.9238 16.4236 16.8338 16.3471 16.7583C16.2707 16.6828 16.1799 16.6232 16.0802 16.5832C15.9804 16.5431 15.8737 16.5233 15.7662 16.525H14.385C12.6638 16.525 11.25 15.1287 11.25 13.4125C11.25 11.8687 12.4187 10.5787 13.9188 10.3562V9.89625C13.9187 9.59241 14.0394 9.30102 14.2543 9.08617C14.4691 8.87132 14.7605 8.75063 15.0644 8.75063C15.3682 8.75063 15.6596 8.87132 15.8745 9.08617C16.0893 9.30102 16.21 9.59241 16.21 9.89625V10.3562C16.7987 10.4412 17.3509 10.6925 17.8016 11.0807C18.2523 11.4689 18.5826 11.9778 18.7537 12.5475C18.7999 12.7013 18.8049 12.8646 18.7683 13.021C18.7316 13.1774 18.6547 13.3214 18.545 13.4388C18.441 13.55 18.3152 13.6385 18.1754 13.6987C18.0355 13.7589 17.8847 13.7896 17.7325 13.7887C17.4025 13.7887 17.1325 13.6388 16.9263 13.4713C16.7382 13.3078 16.5696 13.1233 16.4237 12.9212C16.3463 12.8208 16.2466 12.7398 16.1325 12.6845C16.0184 12.6291 15.893 12.6011 15.7662 12.6025Z" fill="#6200EE"/>
</g>
</svg>
