<svg width="30" height="34" viewBox="0 0 30 34" fill="none" xmlns="http://www.w3.org/2000/svg">
<g id="icon-cards (1) 2">
<path id="Vector" fill-rule="evenodd" clip-rule="evenodd" d="M7.5 5.66675C6.17392 5.66675 4.90215 6.26377 3.96447 7.32648C3.02678 8.38918 2.5 9.83052 2.5 11.3334V22.6667C2.5 24.1696 3.02678 25.611 3.96447 26.6737C4.90215 27.7364 6.17392 28.3334 7.5 28.3334H16.25C16.5815 28.3334 16.8995 28.1842 17.1339 27.9185C17.3683 27.6528 17.5 27.2925 17.5 26.9167C17.5 26.541 17.3683 26.1807 17.1339 25.915C16.8995 25.6493 16.5815 25.5001 16.25 25.5001H7.5C6.83696 25.5001 6.20107 25.2016 5.73223 24.6702C5.26339 24.1389 5 23.4182 5 22.6667V15.5834H25V22.6667C25 23.4182 24.7366 24.1389 24.2678 24.6702C23.7989 25.2016 23.163 25.5001 22.5 25.5001H21.25C20.9185 25.5001 20.6005 25.6493 20.3661 25.915C20.1317 26.1807 20 26.541 20 26.9167C20 27.2925 20.1317 27.6528 20.3661 27.9185C20.6005 28.1842 20.9185 28.3334 21.25 28.3334H22.5C23.8261 28.3334 25.0979 27.7364 26.0355 26.6737C26.9732 25.611 27.5 24.1696 27.5 22.6667V11.3334C27.5 9.83052 26.9732 8.38918 26.0355 7.32648C25.0979 6.26377 23.8261 5.66675 22.5 5.66675H7.5ZM25 12.7501V11.3334C25 10.582 24.7366 9.8613 24.2678 9.32994C23.7989 8.79859 23.163 8.50008 22.5 8.50008H7.5C6.83696 8.50008 6.20107 8.79859 5.73223 9.32994C5.26339 9.8613 5 10.582 5 11.3334V12.7501H25ZM17.5 22.6667C17.8315 22.6667 18.1495 22.5175 18.3839 22.2518C18.6183 21.9861 18.75 21.6258 18.75 21.2501C18.75 20.8744 18.6183 20.514 18.3839 20.2483C18.1495 19.9827 17.8315 19.8334 17.5 19.8334C17.1685 19.8334 16.8505 19.9827 16.6161 20.2483C16.3817 20.514 16.25 20.8744 16.25 21.2501C16.25 21.6258 16.3817 21.9861 16.6161 22.2518C16.8505 22.5175 17.1685 22.6667 17.5 22.6667ZM7.5 21.2501C7.5 20.8744 7.6317 20.514 7.86612 20.2483C8.10054 19.9827 8.41848 19.8334 8.75 19.8334H13.75C14.0815 19.8334 14.3995 19.9827 14.6339 20.2483C14.8683 20.514 15 20.8744 15 21.2501C15 21.6258 14.8683 21.9861 14.6339 22.2518C14.3995 22.5175 14.0815 22.6667 13.75 22.6667H8.75C8.41848 22.6667 8.10054 22.5175 7.86612 22.2518C7.6317 21.9861 7.5 21.6258 7.5 21.2501Z" fill="#6200EE"/>
</g>
</svg>
