<svg width="169" height="168" viewBox="0 0 169 168" fill="none" xmlns="http://www.w3.org/2000/svg">
<g clip-path="url(#clip0)">
<path d="M153.314 106.995C142.673 91.7441 129.575 85.0634 123.634 76.4666C118.682 69.3003 114.986 59.3909 115.421 50.5578C115.606 46.6991 119.263 33.8235 119.263 33.8235C119.263 33.8235 124.677 33.8235 129.324 29.1378C132.744 25.686 135.015 20.6985 135.582 16.131C135.833 14.0703 136.493 11.2485 134.328 9.93595C132.942 9.09595 131.252 8.63658 129.733 8.1247C127 7.19283 124.32 6.8122 121.666 5.53908C118.603 4.05595 115.685 2.38908 112.226 2.02158C110.272 1.81158 108.384 1.89033 106.641 2.87471C105.677 3.41283 105.704 3.59658 106.047 4.46283C107.605 8.42658 103.697 12.561 100.515 13.9653C97.531 15.291 92.6855 16.6166 84.4995 16.6166C76.3136 16.6166 71.468 15.291 68.4841 13.9653C65.3022 12.561 61.3941 8.42658 62.952 4.46283C63.2953 3.59658 63.3217 3.41283 62.3579 2.87471C60.6151 1.89033 58.727 1.81158 56.773 2.02158C53.3137 2.38908 50.3958 4.05595 47.3327 5.52595C44.6789 6.79908 41.9987 7.1797 39.2656 8.11158C37.7472 8.62345 36.0572 9.09595 34.6709 9.92283C32.5188 11.2353 33.1658 14.0572 33.4166 16.1178C33.9712 20.6853 36.2553 25.6728 39.6749 29.1247C44.3224 33.8103 49.7357 33.8103 49.7357 33.8103C49.7357 33.8103 53.393 46.6859 53.5778 50.5447C54.0135 59.3778 50.3166 69.2872 45.3655 76.4534C39.4373 85.0503 26.3397 91.7309 15.6848 106.982C8.19865 117.692 -0.0401035 136.776 0.223959 140.307C0.501225 143.837 3.86802 144.769 6.77271 145.583C10.5224 146.633 12.8594 148.103 15.8433 150.636C19.4741 153.707 23.7915 155.637 28.4258 156.66C33.1262 157.697 37.7737 156.975 42.4344 158.524C48.1381 160.414 53.1553 163.879 59.0043 165.388C67.4675 167.541 79.1391 163.932 84.4995 163.997C89.86 163.932 101.532 167.554 109.995 165.388C115.844 163.892 120.861 160.427 126.565 158.524C131.239 156.975 135.873 157.71 140.573 156.66C145.208 155.637 149.525 153.72 153.156 150.636C156.14 148.09 158.49 146.633 162.226 145.583C165.118 144.769 168.498 143.824 168.775 140.307C169.039 136.776 160.8 117.705 153.314 106.995V106.995Z" fill="#D7598B"/>
<path d="M95.774 73.9985C114.826 71.5967 123.091 63.8004 123.487 63.4198L117.414 57.2117C117.321 57.3035 107.723 66.0317 84.3665 66.071C61.0101 66.0317 51.4115 57.3035 51.3455 57.251L45.2456 63.4329C45.6417 63.8267 53.9861 71.6754 73.2098 74.051C69.9751 79.3142 63.7432 86.3885 52.9034 88.331C52.9034 88.331 51.9528 95.2873 55.28 97.3742C58.594 99.461 59.3465 99.4348 61.4458 101.535C63.5583 103.635 63.9016 105.682 70.7144 106.864C70.7144 106.864 80.8809 98.4635 84.4853 81.401C88.0898 98.4635 98.2562 106.864 98.2562 106.864C105.069 105.682 105.425 103.635 107.525 101.535C109.624 99.4479 110.377 99.4742 113.691 97.3742C117.005 95.2873 116.067 88.331 116.067 88.331C105.227 86.3754 98.9955 79.2617 95.774 73.9985V73.9985Z" fill="white"/>
<path d="M102.046 156.542C97.6362 156.542 94.7183 155.479 92.0909 154.534C89.7407 153.681 87.7207 152.946 84.4463 152.906C81.2643 152.933 79.2311 153.681 76.8941 154.534C73.8838 155.623 70.4774 156.857 64.8661 156.463C58.0532 155.978 54.7393 153.116 51.8082 150.583C50.2106 149.179 48.679 147.866 46.4609 146.882C43.4242 145.53 42.1303 145.635 39.7933 145.832C37.6148 146.003 34.9214 146.213 30.67 145.438C24.3589 144.283 22.1803 142.262 19.5793 139.322C18.4967 138.088 17.3876 136.828 15.3015 135.332C10.4428 131.841 2.74535 132.064 0.50082 132.208L-0.0537109 124.071C4.62019 123.756 13.4663 123.94 20.1075 128.73C22.9329 130.765 24.4909 132.523 25.7452 133.928C27.4616 135.883 28.1746 136.684 32.1619 137.419C35.3571 138.01 37.2847 137.852 39.1332 137.708C41.9454 137.471 44.8633 137.248 49.7881 139.427C53.1417 140.91 55.307 142.787 57.2082 144.428C59.7036 146.606 61.3672 148.037 65.4338 148.326C69.3155 148.588 71.4016 147.827 74.0818 146.856C76.7489 145.885 79.7724 144.795 84.4463 144.743C89.2126 144.795 92.2361 145.885 94.9032 146.856C97.5702 147.827 99.6827 148.588 103.538 148.326C107.618 148.037 109.268 146.606 111.764 144.428C113.665 142.774 115.817 140.91 119.184 139.427C124.135 137.248 127.026 137.471 129.839 137.708C131.7 137.865 133.615 138.01 136.81 137.419C140.52 136.736 141.233 135.91 142.804 134.098C144.058 132.641 145.788 130.66 149.049 128.586C154.885 124.871 162.067 123.336 169.263 124.241L168.233 132.34C161.46 131.5 156.456 133.56 153.459 135.463C151.214 136.894 150.145 138.128 149.01 139.427C146.567 142.249 144.362 144.323 138.289 145.438C134.024 146.226 131.331 146.003 129.165 145.832C126.815 145.635 125.534 145.53 122.498 146.882C120.28 147.866 118.748 149.179 117.15 150.583C114.219 153.116 110.919 155.991 104.093 156.463C103.406 156.529 102.706 156.542 102.046 156.542V156.542Z" fill="white"/>
</g>
<defs>
<clipPath id="clip0">
<rect width="169" height="168" fill="white"/>
</clipPath>
</defs>
</svg>
