<svg width="168" height="168" viewBox="0 0 168 168" fill="none" xmlns="http://www.w3.org/2000/svg">
<path d="M68.2504 51.0037C68.1323 33.8887 65.2842 29.0587 47.2111 15.4743C39.6904 9.81744 41.1736 5.86682 39.1392 5.31557C37.9317 4.98744 36.7504 5.87994 36.7504 7.10057V67.2262C36.7504 68.0268 36.0286 68.6568 35.2411 68.5124C28.4292 67.3312 20.1079 70.2056 13.6504 76.6499C4.37106 85.9293 2.49419 99.0937 9.45044 106.05C16.4067 113.006 29.5711 111.129 38.8504 101.85C44.7829 95.9174 47.6704 88.4231 47.1848 81.9524L47.2111 29.7412C47.2111 28.7831 48.1692 28.2581 49.0879 28.5468C52.5398 29.6362 64.0636 34.1774 64.8904 51.9224C64.9692 53.7074 68.2767 54.0487 68.2504 51.0037V51.0037Z" fill="url(#paint0_radial)"/>
<path d="M94.5004 103.504C94.3823 86.3887 91.5342 81.5587 73.461 67.9743C65.9404 62.3174 67.4235 58.3668 65.3892 57.8156C64.1817 57.4874 63.0004 58.3799 63.0004 59.6006V119.726C63.0004 120.527 62.2785 121.157 61.4911 121.012C54.6792 119.831 46.3579 122.706 39.9004 129.15C30.6211 138.429 28.7442 151.594 35.7004 158.55C42.6567 165.506 55.8211 163.629 65.1004 154.35C71.0329 148.417 73.9204 140.923 73.4348 134.452L73.461 82.2412C73.461 81.2831 74.4192 80.7581 75.3379 81.0468C78.7898 82.1362 90.3135 86.6774 91.1404 104.422C91.2192 106.207 94.5267 106.549 94.5004 103.504V103.504Z" fill="url(#paint1_radial)"/>
<path d="M162.75 51.0037C162.632 33.8887 159.784 29.0587 141.711 15.4743C134.19 9.81744 135.674 5.86682 133.639 5.31557C132.432 4.98744 131.25 5.87994 131.25 7.10057V67.2262C131.25 68.0268 130.529 68.6568 129.741 68.5124C122.929 67.3312 114.608 70.2056 108.15 76.6499C98.8711 85.9293 96.9942 99.0937 103.95 106.05C110.907 113.006 124.071 111.129 133.35 101.85C139.283 95.9174 142.17 88.4231 141.685 81.9524L141.711 29.7412C141.711 28.7831 142.669 28.2581 143.588 28.5468C147.04 29.6362 158.564 34.1774 159.39 51.9224C159.469 53.7074 162.777 54.0487 162.75 51.0037V51.0037Z" fill="url(#paint2_radial)"/>
<path opacity="0.2" d="M40.6879 14.8706C41.7379 16.0519 43.0898 17.3119 44.8354 18.6244C49.1273 21.8531 52.4873 24.5044 55.1123 26.9062C53.2617 25.8562 51.5554 25.2 50.2692 24.7931C49.7179 24.6225 49.1404 24.5306 48.5629 24.5306C45.5967 24.5306 43.2604 26.8144 43.2604 29.7412L43.2342 81.9525V82.0969L43.2473 82.2412C43.6673 87.8456 40.9767 94.1325 36.0548 99.0675C31.5267 103.609 25.6598 106.312 20.3573 106.312C18.0473 106.312 14.7529 105.788 12.2329 103.268C9.76544 100.8 8.74169 97.0725 9.35856 92.7806C10.0279 88.0688 12.5479 83.3306 16.4329 79.4456C20.9742 74.9044 26.8411 72.1875 32.1436 72.1875C32.9836 72.1875 33.7973 72.2531 34.5717 72.3844C34.8604 72.4369 35.1623 72.4631 35.4642 72.4631C38.3517 72.4631 40.6879 70.1137 40.6879 67.2131V14.8706ZM38.6273 5.25C37.6167 5.25 36.7504 6.06375 36.7504 7.10062V67.2263C36.7504 67.9613 36.1598 68.5388 35.4642 68.5388C35.3854 68.5388 35.3198 68.5387 35.2411 68.5256C34.2436 68.355 33.2067 68.2631 32.1436 68.2631C26.0142 68.2631 19.1498 71.1637 13.6504 76.6631C4.37106 85.9425 2.49419 99.1069 9.45044 106.063C12.2854 108.898 16.1442 110.263 20.3573 110.263C26.4867 110.263 33.3511 107.363 38.8504 101.863C44.7829 95.9306 47.6704 88.4363 47.1848 81.9656L47.2111 29.7544C47.2111 28.9669 47.8411 28.4813 48.5761 28.4813C48.7467 28.4813 48.9173 28.5075 49.0879 28.56C52.5398 29.6494 64.0636 34.1906 64.8904 51.9356C64.9298 52.7756 65.6779 53.2875 66.4654 53.2875C67.3448 53.2875 68.2767 52.6313 68.2636 51.0038C68.1454 33.8888 65.2973 29.0588 47.2242 15.4744C39.7036 9.8175 41.1867 5.86688 39.1523 5.31563C38.9554 5.27625 38.7848 5.25 38.6273 5.25V5.25Z" fill="#424242"/>
<path opacity="0.2" d="M66.9379 67.3706C67.9879 68.5519 69.3398 69.8119 71.0854 71.1244C75.3773 74.3531 78.7373 77.0044 81.3623 79.4062C79.5117 78.3562 77.8054 77.7 76.5192 77.2931C75.9679 77.1225 75.3904 77.0306 74.8129 77.0306C71.8467 77.0306 69.5104 79.3144 69.5104 82.2412L69.4842 134.452V134.597L69.4973 134.741C69.9173 140.346 67.2267 146.632 62.3048 151.567C57.7636 156.109 51.8967 158.812 46.5942 158.812C44.2842 158.812 40.9898 158.287 38.4698 155.767C36.0023 153.3 34.9786 149.572 35.5954 145.281C36.2648 140.569 38.7848 135.831 42.6698 131.946C47.2242 127.404 53.0911 124.687 58.3936 124.687C59.2336 124.687 60.0473 124.753 60.8217 124.884C61.1104 124.937 61.4123 124.963 61.7142 124.963C64.6017 124.963 66.9379 122.614 66.9379 119.713V67.3706ZM64.8773 57.75C63.8667 57.75 63.0004 58.5637 63.0004 59.6006V119.726C63.0004 120.461 62.4098 121.039 61.7142 121.039C61.6354 121.039 61.5698 121.039 61.4911 121.026C60.4936 120.855 59.4567 120.763 58.3936 120.763C52.2642 120.763 45.3998 123.664 39.9004 129.163C30.6211 138.442 28.7442 151.607 35.7004 158.563C38.5354 161.398 42.3942 162.763 46.6073 162.763C52.7367 162.763 59.6011 159.862 65.1004 154.363C71.0329 148.431 73.9204 140.936 73.4348 134.466L73.4611 82.2544C73.4611 81.4669 74.0911 80.9812 74.8261 80.9812C74.9967 80.9812 75.1673 81.0075 75.3379 81.06C78.7898 82.1494 90.3136 86.6906 91.1404 104.436C91.1798 105.276 91.9279 105.787 92.7154 105.787C93.5948 105.787 94.5267 105.131 94.5136 103.504C94.3954 86.3887 91.5473 81.5587 73.4742 67.9744C65.9536 62.3175 67.4367 58.3669 65.4023 57.8156C65.2054 57.7762 65.0348 57.75 64.8773 57.75V57.75Z" fill="#424242"/>
<path opacity="0.2" d="M135.188 14.8706C136.238 16.0519 137.59 17.3119 139.335 18.6244C143.627 21.8531 146.987 24.5044 149.612 26.9062C147.762 25.8562 146.055 25.2 144.769 24.7931C144.218 24.6225 143.64 24.5306 143.063 24.5306C140.097 24.5306 137.76 26.8144 137.76 29.7412L137.734 81.9525V82.0969L137.747 82.2412C138.167 87.8456 135.477 94.1325 130.555 99.0675C126.027 103.609 120.16 106.312 114.857 106.312C112.547 106.312 109.253 105.788 106.733 103.268C104.265 100.8 103.242 97.0725 103.859 92.7806C104.528 88.0688 107.048 83.3306 110.933 79.4456C115.474 74.9044 121.341 72.1875 126.644 72.1875C127.484 72.1875 128.297 72.2531 129.072 72.3844C129.36 72.4369 129.662 72.4631 129.964 72.4631C132.852 72.4631 135.188 70.1137 135.188 67.2131V14.8706ZM133.127 5.25C132.117 5.25 131.25 6.06375 131.25 7.10062V67.2263C131.25 67.9613 130.66 68.5388 129.964 68.5388C129.885 68.5388 129.82 68.5387 129.741 68.5256C128.744 68.355 127.707 68.2631 126.644 68.2631C120.514 68.2631 113.65 71.1637 108.15 76.6631C98.8711 85.9425 96.9942 99.1069 103.95 106.063C106.785 108.898 110.644 110.263 114.857 110.263C120.987 110.263 127.851 107.363 133.35 101.863C139.283 95.9306 142.17 88.4363 141.685 81.9656L141.711 29.7544C141.711 28.9669 142.341 28.4813 143.076 28.4813C143.247 28.4813 143.417 28.5075 143.588 28.56C147.04 29.6494 158.564 34.1906 159.39 51.9356C159.43 52.7756 160.178 53.2875 160.965 53.2875C161.845 53.2875 162.777 52.6313 162.764 51.0038C162.645 33.8888 159.797 29.0588 141.724 15.4744C134.204 9.8175 135.687 5.86688 133.652 5.31563C133.455 5.27625 133.285 5.25 133.127 5.25V5.25Z" fill="#424242"/>
<defs>
<radialGradient id="paint0_radial" cx="0" cy="0" r="1" gradientUnits="userSpaceOnUse" gradientTransform="translate(31.1723 18.2109) scale(101.994)">
<stop stop-color="#40C4FF"/>
<stop offset="0.381" stop-color="#3EC2FE"/>
<stop offset="0.546" stop-color="#37BDFC"/>
<stop offset="0.669" stop-color="#2AB3F8"/>
<stop offset="0.771" stop-color="#18A5F2"/>
<stop offset="0.849" stop-color="#0595EC"/>
<stop offset="1" stop-color="#0091EA"/>
</radialGradient>
<radialGradient id="paint1_radial" cx="0" cy="0" r="1" gradientUnits="userSpaceOnUse" gradientTransform="translate(60.5395 67.4296) scale(101.994)">
<stop stop-color="#40C4FF"/>
<stop offset="0.381" stop-color="#3EC2FE"/>
<stop offset="0.546" stop-color="#37BDFC"/>
<stop offset="0.669" stop-color="#2AB3F8"/>
<stop offset="0.771" stop-color="#18A5F2"/>
<stop offset="0.849" stop-color="#0595EC"/>
<stop offset="1" stop-color="#0091EA"/>
</radialGradient>
<radialGradient id="paint2_radial" cx="0" cy="0" r="1" gradientUnits="userSpaceOnUse" gradientTransform="translate(129.282 19.1953) scale(101.994)">
<stop stop-color="#40C4FF"/>
<stop offset="0.381" stop-color="#3EC2FE"/>
<stop offset="0.546" stop-color="#37BDFC"/>
<stop offset="0.669" stop-color="#2AB3F8"/>
<stop offset="0.771" stop-color="#18A5F2"/>
<stop offset="0.849" stop-color="#0595EC"/>
<stop offset="1" stop-color="#0091EA"/>
</radialGradient>
</defs>
</svg>
