<svg width="100" height="100" viewBox="0 0 100 100" fill="none" xmlns="http://www.w3.org/2000/svg">
<path d="M50 3.125C85.9375 3.125 93.75 27.0313 93.75 40.625C93.75 52.6562 92.1875 57.8125 92.1875 57.8125H7.8125C7.8125 57.8125 6.25 52.6562 6.25 40.625C6.25 27.0313 14.0625 3.125 50 3.125Z" fill="#231F20"/>
<path d="M89.3743 51.5624C89.3743 51.5624 88.1243 46.4061 87.4993 35.6249C86.7181 23.9061 70.4681 33.2811 49.9993 33.2811C29.5306 33.2811 13.2806 23.9061 12.4993 35.6249C11.8743 46.4061 10.6243 51.5624 10.6243 51.5624C0.468058 51.5624 0.468057 68.1249 11.2493 68.1249C11.2493 85.9374 33.5931 96.8749 49.9993 96.8749C66.4056 96.8749 88.7493 85.9374 88.7493 68.1249C99.5306 68.1249 99.5306 51.5624 89.3743 51.5624" fill="#B47D56"/>
<path d="M69.5312 65.625C75.1404 65.625 79.6875 61.0779 79.6875 55.4688C79.6875 49.8596 75.1404 45.3125 69.5312 45.3125C63.9221 45.3125 59.375 49.8596 59.375 55.4688C59.375 61.0779 63.9221 65.625 69.5312 65.625Z" fill="white"/>
<path d="M69.5312 62.5C73.4145 62.5 76.5625 59.352 76.5625 55.4688C76.5625 51.5855 73.4145 48.4375 69.5312 48.4375C65.648 48.4375 62.5 51.5855 62.5 55.4688C62.5 59.352 65.648 62.5 69.5312 62.5Z" fill="#664E27"/>
<path d="M69.5312 57.8125C70.8257 57.8125 71.875 56.7632 71.875 55.4688C71.875 54.1743 70.8257 53.125 69.5312 53.125C68.2368 53.125 67.1875 54.1743 67.1875 55.4688C67.1875 56.7632 68.2368 57.8125 69.5312 57.8125Z" fill="#231F20"/>
<path d="M30.4688 65.625C36.0779 65.625 40.625 61.0779 40.625 55.4688C40.625 49.8596 36.0779 45.3125 30.4688 45.3125C24.8596 45.3125 20.3125 49.8596 20.3125 55.4688C20.3125 61.0779 24.8596 65.625 30.4688 65.625Z" fill="white"/>
<path d="M30.4688 62.5C34.352 62.5 37.5 59.352 37.5 55.4688C37.5 51.5855 34.352 48.4375 30.4688 48.4375C26.5855 48.4375 23.4375 51.5855 23.4375 55.4688C23.4375 59.352 26.5855 62.5 30.4688 62.5Z" fill="#664E27"/>
<path d="M30.4688 57.8125C31.7632 57.8125 32.8125 56.7632 32.8125 55.4688C32.8125 54.1743 31.7632 53.125 30.4688 53.125C29.1743 53.125 28.125 54.1743 28.125 55.4688C28.125 56.7632 29.1743 57.8125 30.4688 57.8125Z" fill="#231F20"/>
<path d="M62.656 75.1563C54.531 80.7813 45.4685 80.7813 37.3435 75.1563C36.406 74.5313 35.4685 75.625 36.0935 76.7188C38.5935 80.7813 43.5935 84.375 49.9997 84.375C56.406 84.375 61.406 80.7813 63.906 76.7188C64.531 75.625 63.5935 74.5313 62.656 75.1563Z" fill="#664E27"/>
</svg>
