<svg width="111" height="111" viewBox="0 0 111 111" fill="none" xmlns="http://www.w3.org/2000/svg">
<path d="M41.625 24.975V41.625H24.975V24.975H41.625ZM49.95 16.65H16.65V49.95H49.95V16.65ZM41.625 69.375V86.025H24.975V69.375H41.625ZM49.95 61.05H16.65V94.35H49.95V61.05ZM86.025 24.975V41.625H69.375V24.975H86.025ZM94.35 16.65H61.05V49.95H94.35V16.65ZM61.05 61.05H69.375V69.375H61.05V61.05ZM69.375 69.375H77.7V77.7H69.375V69.375ZM77.7 61.05H86.025V69.375H77.7V61.05ZM61.05 77.7H69.375V86.025H61.05V77.7ZM69.375 86.025H77.7V94.35H69.375V86.025ZM77.7 77.7H86.025V86.025H77.7V77.7ZM86.025 69.375H94.35V77.7H86.025V69.375ZM86.025 86.025H94.35V94.35H86.025V86.025ZM111 27.75H99.9V11.1H83.25V0H111V27.75ZM111 111V83.25H99.9V99.9H83.25V111H111ZM0 111H27.75V99.9H11.1V83.25H0V111ZM0 0V27.75H11.1V11.1H27.75V0H0Z" fill="white"/>
</svg>
