<svg width="168" height="169" viewBox="0 0 168 169" fill="none" xmlns="http://www.w3.org/2000/svg">
<g clip-path="url(#clip0)">
<path d="M123.374 162.28C122.902 161.765 122.482 161.197 122.101 160.603L115.027 149.341C114.472 148.439 114.295 147.354 114.532 146.321C114.769 145.289 115.402 144.392 116.293 143.826C117.184 143.261 118.261 143.072 119.29 143.301C120.318 143.53 121.216 144.158 121.786 145.05L128.86 156.312C129.477 157.289 130.475 157.949 131.63 158.094L132.496 158.213C138.061 158.966 143.613 157.21 147.734 153.381C151.855 149.552 154.047 144.125 153.732 138.488C153.699 137.843 153.506 137.217 153.172 136.666C152.837 136.115 152.371 135.656 151.816 135.332L140.423 128.598C139.97 128.331 139.574 127.977 139.257 127.555C138.94 127.134 138.709 126.653 138.578 126.142C138.446 125.63 138.416 125.098 138.489 124.574C138.563 124.051 138.738 123.548 139.006 123.093C139.271 122.637 139.624 122.238 140.043 121.919C140.462 121.601 140.939 121.368 141.448 121.236C141.957 121.103 142.486 121.073 143.006 121.147C143.526 121.221 144.027 121.398 144.479 121.667L155.872 128.4C157.564 129.396 158.984 130.8 160.003 132.484C161.023 134.169 161.61 136.082 161.712 138.052C162.145 146.093 159.022 153.83 153.155 159.296C150.265 161.989 146.819 164.005 143.063 165.198C139.308 166.392 135.336 166.735 131.433 166.201L130.567 166.082C127.804 165.69 125.262 164.346 123.374 162.28V162.28Z" fill="#77A3AE"/>
<path d="M11.6416 39.0547C9.76509 36.9842 8.67312 34.3152 8.55724 31.5158L8.53099 30.6312C8.18974 22.5904 11.4054 14.893 17.351 9.50615C23.2966 4.11928 31.2504 1.7031 39.1647 2.87818C43.1154 3.45912 46.4885 5.98092 48.1816 9.61178L53.7991 21.6398C54.0231 22.1174 54.1512 22.6347 54.176 23.1621C54.2009 23.6895 54.1221 24.2167 53.944 24.7135C53.766 25.2102 53.4923 25.6667 53.1387 26.0569C52.785 26.447 52.3582 26.7631 51.8829 26.9871C51.4081 27.2124 50.8939 27.3412 50.3696 27.3662C49.8453 27.3912 49.3212 27.3119 48.8274 27.1329C48.3336 26.9538 47.8798 26.6785 47.492 26.3227C47.1041 25.9669 46.7899 25.5376 46.5672 25.0594L40.9497 13.0314C40.3985 11.8431 39.296 11.0245 37.9966 10.8265C32.4447 10.0079 26.8797 11.6979 22.706 15.474C20.6508 17.3298 19.0304 19.621 17.9614 22.1826C16.8925 24.7442 16.4016 27.5124 16.5241 30.2879L16.5635 31.1725C16.616 32.3344 17.1672 33.3906 18.0729 34.1036L28.5729 42.2235C29.4109 42.8749 29.9586 43.8335 30.0964 44.8899C30.2341 45.9462 29.9506 47.0145 29.3079 47.8612C28.6603 48.7043 27.7074 49.2552 26.6573 49.3938C25.6072 49.5323 24.5453 49.2472 23.7035 48.6006L13.2035 40.4807C12.6391 40.045 12.1141 39.5697 11.6416 39.0547V39.0547Z" fill="#77A3AE"/>
<path d="M135.873 142.93C167.469 113.936 169.718 64.6654 140.896 32.8808C112.074 1.09621 63.0947 -1.16614 31.4982 27.8277C-0.0983557 56.8215 -2.34733 106.092 26.475 137.877C55.2972 169.661 104.276 171.924 135.873 142.93Z" fill="#77A3AE"/>
<path d="M129.779 136.209C157.686 110.601 159.672 67.084 134.216 39.0112C108.76 10.9384 65.5002 8.94029 37.5935 34.5482C9.68681 60.1562 7.70047 103.673 33.1569 131.746C58.6133 159.819 101.873 161.817 129.779 136.209Z" fill="#F09300"/>
<path d="M126.564 132.678C117.757 140.759 104.698 143.874 93.8173 146.093C72.5942 150.436 54.5998 146.806 38.9417 129.536C29.7411 119.383 22.2073 103.05 20.6323 90.3754C18.1517 70.4387 24.7798 55.6644 40.6479 41.1013C50.1111 32.4137 62.2779 26.7759 74.051 24.8483C94.5654 21.4815 115.342 27.9246 130.397 44.521C140.017 55.1363 141.225 68.0357 142.511 81.3181C144.401 100.727 141.986 118.538 126.564 132.678V132.678Z" fill="#FFB74D"/>
<path d="M26.381 71.6145C27.1029 72.4859 27.5623 73.4365 26.8273 73.8722C26.1448 74.2683 25.2391 73.6214 24.5435 72.7368C23.9398 71.9842 23.5591 71.1524 24.1235 70.6903C24.7929 70.1094 25.6066 70.8487 26.381 71.6145V71.6145Z" fill="#FADA80"/>
<path d="M88.5685 51.4519C89.2904 52.3233 89.7497 53.2739 89.0147 53.7096C88.3322 54.1057 87.4266 53.4588 86.731 52.5742C86.1273 51.8216 85.7466 50.9898 86.311 50.5277C86.9935 49.9468 87.8072 50.6861 88.5685 51.4519V51.4519Z" fill="#FADA80"/>
<path d="M67.5404 34.5924C66.7135 35.3582 65.7948 35.8731 65.3223 35.1469C64.8891 34.4736 65.4929 33.5361 66.3329 32.7968C67.0548 32.163 67.8554 31.7273 68.3541 32.2686C68.9579 32.9288 68.2623 33.787 67.5404 34.5924V34.5924Z" fill="#FADA80"/>
<path d="M126.959 121.917C127.681 122.789 128.14 123.74 127.405 124.175C126.723 124.571 125.817 123.924 125.122 123.04C124.518 122.287 124.137 121.455 124.702 120.993C125.371 120.412 126.185 121.152 126.959 121.917V121.917Z" fill="#FADA80"/>
<path d="M127.719 64.5361C128.257 63.5459 128.953 62.7537 129.636 63.2818C130.252 63.7704 129.99 64.8662 129.452 65.8432C128.979 66.6882 128.362 67.3484 127.719 67.0051C126.919 66.5694 127.299 65.5396 127.719 64.5361Z" fill="#FADA80"/>
<path d="M103.871 103.486C104.593 104.357 105.053 105.308 104.318 105.744C103.635 106.14 102.729 105.493 102.034 104.608C101.43 103.856 101.049 103.024 101.614 102.562C102.296 101.981 103.11 102.72 103.871 103.486V103.486Z" fill="#F6ECBF"/>
<path d="M42.7209 59.8897C43.4427 60.7611 43.9021 61.7117 43.1671 62.1474C42.4846 62.5435 41.579 61.8965 40.8834 61.0119C40.2796 60.2593 39.899 59.4276 40.4634 58.9654C41.1459 58.3845 41.9596 59.1239 42.7209 59.8897V59.8897Z" fill="#FADA80"/>
<path d="M71.8341 137.748C72.556 138.619 73.0154 139.57 72.2804 140.006C71.5979 140.402 70.6923 139.755 69.9966 138.87C69.3929 138.118 69.0123 137.286 69.5766 136.824C70.2591 136.243 71.0729 136.982 71.8341 137.748Z" fill="#FADA80"/>
<path d="M78.488 29.4962C79.5511 31.2655 78.3961 32.665 77.543 33.9193C76.4536 35.5433 75.0755 34.6851 74.1174 33.6816C73.1592 32.665 72.3717 31.2259 73.9205 30.1432C75.2461 29.2454 76.8473 28.7569 78.488 29.4962V29.4962Z" fill="#689F38"/>
<path d="M127.563 111.857C128.626 113.626 127.471 115.026 126.618 116.28C125.529 117.904 124.151 117.046 123.193 116.042C122.234 115.026 121.447 113.586 122.996 112.504C124.308 111.606 125.909 111.117 127.563 111.857V111.857Z" fill="#689F38"/>
<path d="M98.3983 111.448C97.5714 113.349 95.7733 113.191 94.2639 113.217C92.3214 113.257 92.2164 111.633 92.492 110.26C92.7676 108.887 93.4764 107.408 95.2483 108.068C96.7314 108.636 98.057 109.666 98.3983 111.448V111.448Z" fill="#689F38"/>
<path d="M47.2108 49.5376C46.3839 51.4389 44.5858 51.2804 43.0764 51.3069C41.1339 51.3465 41.0289 49.7225 41.3045 48.3493C41.5801 46.9762 42.2889 45.4975 44.0608 46.1576C45.5439 46.7254 46.8564 47.7552 47.2108 49.5376V49.5376Z" fill="#689F38"/>
<path d="M101.666 56.1127C102.729 57.8819 101.574 59.2814 100.721 60.5357C99.6318 62.1597 98.2537 61.3015 97.2956 60.2981C96.3375 59.2814 95.55 57.8423 97.0987 56.7597C98.4112 55.8618 100.012 55.3733 101.666 56.1127Z" fill="#689F38"/>
<path d="M131.538 52.7336C132.601 54.5028 131.446 55.9023 130.593 57.1566C129.504 58.7806 128.126 57.9224 127.168 56.9189C126.21 55.9023 125.422 54.4632 126.971 53.3805C128.283 52.4827 129.885 51.9942 131.538 52.7336Z" fill="#E64A19"/>
<path d="M137.719 98.4298C138.782 100.199 137.627 101.599 136.774 102.853C135.685 104.477 134.306 103.619 133.348 102.615C132.39 101.599 131.603 100.159 133.151 99.0768C134.464 98.179 136.065 97.6905 137.719 98.4298V98.4298Z" fill="#E64A19"/>
<path d="M62.5407 134.817C63.6038 136.586 62.4488 137.985 61.5957 139.24C60.5063 140.864 59.1282 140.005 58.1701 139.002C57.212 137.985 56.4245 136.546 57.9732 135.464C59.2988 134.553 60.9001 134.064 62.5407 134.817V134.817Z" fill="#E64A19"/>
<path d="M37.2229 104.951C38.286 106.72 37.131 108.12 36.2779 109.374C35.1885 110.998 33.8104 110.14 32.8522 109.136C31.8941 108.12 31.1066 106.681 32.6553 105.598C33.9678 104.7 35.5691 104.212 37.2229 104.951V104.951Z" fill="#E64A19"/>
<path d="M35.9504 59.757C37.0135 61.5262 35.8585 62.9257 35.0054 64.18C33.916 65.804 32.5379 64.9458 31.5798 63.9424C30.6216 62.9257 29.8341 61.4866 31.3829 60.4039C32.7085 59.5061 34.3098 59.0176 35.9504 59.757V59.757Z" fill="#E64A19"/>
<path d="M91.7165 29.6679C92.7796 31.4371 91.6246 32.8366 90.7715 34.0909C89.6821 35.7149 88.304 34.8567 87.3459 33.8533C86.3878 32.8366 85.6003 31.3975 87.149 30.3148C88.4746 29.4038 90.0759 28.9153 91.7165 29.6679V29.6679Z" fill="#E64A19"/>
<path d="M83.0422 135.055C85.1947 135.728 85.2472 137.709 85.4572 139.359C85.7328 141.471 84.0003 141.775 82.4778 141.656C80.9553 141.524 79.2753 140.917 79.7741 138.91C80.2072 137.207 81.1653 135.649 83.0422 135.055V135.055Z" fill="#689F38"/>
<path d="M136.605 69.105C138.757 69.7783 138.81 71.7588 139.02 73.4092C139.295 75.5217 137.563 75.8254 136.04 75.7065C134.518 75.5745 132.838 74.9672 133.337 72.9603C133.77 71.2571 134.728 69.6991 136.605 69.105Z" fill="#689F38"/>
<path d="M44.0355 119.95C45.5055 120.016 46.0043 120.742 45.6236 122.182C45.2824 123.475 45.2561 125.218 43.2874 124.611C41.8436 124.175 39.9536 123.37 40.4655 121.442C40.8461 120.029 42.6968 120.148 44.0355 119.95Z" fill="#689F38"/>
<path d="M64.1304 78.5986C64.6554 79.9849 64.1961 80.7243 62.7261 80.9487C61.4136 81.1468 59.8123 81.8069 59.5761 79.7472C59.4055 78.2421 59.3923 76.1824 61.348 75.8919C62.8048 75.6807 63.4217 77.4367 64.1304 78.5986Z" fill="#689F38"/>
<path d="M72.0956 105.625C68.4468 104.344 68.2106 101.584 69.8643 98.8513C71.4918 96.1711 74.0643 95.8014 76.6893 97.8743C76.65 98.7325 78.0412 99.6831 76.5187 100.449C73.7756 100 71.3868 99.934 72.7256 103.948C72.7387 104.595 72.5287 105.149 72.0956 105.625V105.625Z" fill="#F6ECBF"/>
<path d="M76.7405 100.173C76.7274 99.4068 76.7011 98.641 76.688 97.8752C78.5124 99.5784 78.683 101.665 77.5674 103.685C76.3992 105.81 74.4042 106.365 72.0942 105.625C72.1074 105.203 72.1205 104.767 72.1467 104.345C73.7742 103.064 75.3492 101.717 76.7405 100.173V100.173Z" fill="#F6ECBF"/>
<path d="M76.7422 100.173C77.2672 103.856 75.4428 104.913 72.1484 104.332C70.4422 102.642 69.4184 100.846 71.7153 98.9051C73.8809 97.0963 75.3509 98.575 76.7422 100.173Z" fill="#FFA726"/>
<path d="M71.7924 78.783C68.1436 77.5023 67.9074 74.7428 69.5611 72.0098C71.1886 69.3296 73.7611 68.9599 76.3861 71.0328C76.3467 71.891 77.738 72.8416 76.2155 73.6074C73.4724 73.1585 71.0836 73.0924 72.4224 77.1062C72.4355 77.7532 72.2255 78.3077 71.7924 78.783Z" fill="#F6ECBF"/>
<path d="M76.4392 73.3301C76.4261 72.5643 76.3998 71.7985 76.3867 71.0327C78.2111 72.7359 78.3817 74.822 77.2661 76.8421C76.098 78.9678 74.103 79.5223 71.793 78.783C71.8061 78.3605 71.8192 77.9248 71.8455 77.5023C73.473 76.2216 75.048 74.8748 76.4392 73.3301V73.3301Z" fill="#F6ECBF"/>
<path d="M76.4424 73.3294C76.9674 77.0131 75.143 78.0694 71.8486 77.4884C70.1424 75.7984 69.1186 74.0028 71.4155 72.0619C73.5811 70.2531 75.0511 71.7451 76.4424 73.3294Z" fill="#FFA726"/>
<path d="M98.3988 92.3948C94.7501 91.1141 94.5138 88.3547 96.1676 85.6216C97.7951 82.9414 100.368 82.5717 102.993 84.6446C102.953 85.5028 104.344 86.4534 102.822 87.2192C100.079 86.7703 97.6901 86.7043 99.0288 90.718C99.042 91.365 98.832 91.9195 98.3988 92.3948V92.3948Z" fill="#F6ECBF"/>
<path d="M103.043 86.9419C103.03 86.1761 103.003 85.4103 102.99 84.6445C104.815 86.3477 104.985 88.4338 103.87 90.4539C102.701 92.5796 100.706 93.1341 98.3965 92.3948C98.4096 91.9723 98.4227 91.5366 98.449 91.1141C100.076 89.8201 101.651 88.4866 103.043 86.9419V86.9419Z" fill="#F6ECBF"/>
<path d="M103.045 86.9417C103.57 90.6254 101.746 91.6816 98.4516 91.1007C96.7454 89.4107 95.7217 87.615 98.0185 85.6742C100.184 83.8653 101.654 85.3441 103.045 86.9417Z" fill="#FFA726"/>
<path d="M27.8514 83.7208C28.2977 90.8241 33.6133 96.4619 40.3071 97.5577C41.3439 97.7294 42.2758 96.8712 42.2102 95.8149L40.5696 69.8972C40.5039 68.8409 39.4802 68.1148 38.4696 68.4052C31.9596 70.3461 27.4052 76.6044 27.8514 83.7208V83.7208Z" fill="#F7CB4D"/>
<path d="M37.7202 71.8509C36.3952 72.4658 35.194 73.3206 34.1765 74.3727C33.7696 74.7952 33.7827 75.4422 34.229 75.8251L38.4158 79.5351C38.8621 79.9312 39.5446 79.588 39.5052 78.9938L39.1115 72.7091C39.059 72.0094 38.3502 71.5605 37.7202 71.8509V71.8509Z" fill="#FEF6E0"/>
<path d="M40.4115 93.1997L40.0177 86.9678C40.0088 86.8369 39.9617 86.7116 39.8823 86.6076C39.8028 86.5036 39.6946 86.4256 39.5712 86.3832C39.4478 86.3409 39.3147 86.3362 39.1886 86.3698C39.0626 86.4033 38.9492 86.4736 38.8627 86.5717L35.2008 90.7571C34.8202 91.1928 34.8858 91.8398 35.3452 92.1962C36.4608 93.0809 37.7471 93.7806 39.1383 94.2163C39.7946 94.4276 40.4508 93.8862 40.4115 93.1997V93.1997Z" fill="#FEF6E0"/>
<path d="M31.9074 77.6739C31.3561 78.849 31.0018 80.1165 30.8574 81.45C30.7918 82.0574 31.2905 82.5855 31.9074 82.5459L37.2492 82.2026C37.8399 82.163 38.0761 81.4368 37.643 81.0407L33.4692 77.3439C33.3525 77.2419 33.2139 77.1685 33.0643 77.1295C32.9147 77.0904 32.7581 77.0867 32.6068 77.1187C32.4555 77.1507 32.3137 77.2174 32.1923 77.3138C32.071 77.4101 31.9735 77.5334 31.9074 77.6739Z" fill="#FEF6E0"/>
<path d="M31.0807 85.4107C31.3877 86.7693 31.9249 88.0645 32.6689 89.2396C33.0232 89.7942 33.8107 89.847 34.2307 89.3453L38.0895 84.9354C38.4832 84.4865 38.142 83.7999 37.5514 83.8395L31.9732 84.196C31.3695 84.2356 30.9495 84.8166 31.0807 85.4107V85.4107Z" fill="#FEF6E0"/>
<path d="M110.579 39.3852C104.069 36.5861 96.6797 38.8174 92.6897 44.3363C92.0728 45.1945 92.4141 46.4092 93.3853 46.8317L117.115 57.0377C118.087 57.4602 119.189 56.8661 119.386 55.8231C120.593 49.1027 117.089 42.1842 110.579 39.3852V39.3852Z" fill="#F7CB4D"/>
<path d="M116.653 53.6049C116.705 52.1382 116.487 50.6745 116.01 49.2875C115.969 49.1571 115.901 49.0368 115.811 48.9342C115.721 48.8316 115.61 48.7491 115.487 48.6919C115.363 48.6348 115.229 48.6042 115.093 48.6022C114.957 48.6001 114.822 48.6267 114.697 48.6802L109.526 50.7663C108.988 50.9907 108.975 51.7565 109.513 51.9942L115.275 54.4763C115.905 54.7404 116.627 54.2915 116.653 53.6049Z" fill="#FEF6E0"/>
<path d="M96.4948 46.3827L102.217 48.8516C102.337 48.9036 102.47 48.9184 102.598 48.8942C102.726 48.87 102.844 48.8078 102.937 48.7157C103.03 48.6236 103.094 48.5057 103.12 48.377C103.146 48.2483 103.133 48.1148 103.084 47.9934L101.023 42.8178C100.975 42.6905 100.901 42.5747 100.805 42.4779C100.71 42.3811 100.596 42.3054 100.47 42.2557C100.344 42.2059 100.209 42.1833 100.073 42.1891C99.9381 42.195 99.8055 42.2292 99.6842 42.2897C98.3848 42.897 97.1904 43.742 96.1798 44.7851C96.0681 44.8997 95.9859 45.0399 95.9403 45.1937C95.8947 45.3475 95.8871 45.5101 95.9181 45.6675C95.9492 45.8249 96.0179 45.9723 96.1184 46.0969C96.2189 46.2216 96.3481 46.3196 96.4948 46.3827V46.3827Z" fill="#FEF6E0"/>
<path d="M114.11 45.7621C113.299 44.7289 112.328 43.833 111.235 43.1082C111.114 43.0303 110.978 42.9798 110.835 42.9604C110.693 42.941 110.548 42.9531 110.41 42.9958C110.273 43.0385 110.146 43.1109 110.039 43.2078C109.933 43.3048 109.848 43.424 109.792 43.5571L107.692 48.5083C107.64 48.6289 107.625 48.7622 107.649 48.8913C107.674 49.0203 107.735 49.1392 107.827 49.2327C107.918 49.3263 108.036 49.3902 108.164 49.4164C108.291 49.4426 108.424 49.4298 108.545 49.3797L113.703 47.2936C113.845 47.2363 113.972 47.1465 114.073 47.0314C114.175 46.9163 114.248 46.7789 114.287 46.6303C114.327 46.4816 114.331 46.3258 114.301 46.1751C114.27 46.0244 114.204 45.8829 114.11 45.7621V45.7621Z" fill="#FEF6E0"/>
<path d="M107.612 41.5237C106.247 41.1804 104.856 41.088 103.504 41.2332C103.352 41.2503 103.207 41.3025 103.079 41.3857C102.951 41.4689 102.844 41.5808 102.767 41.7126C102.689 41.8444 102.643 41.9925 102.632 42.1453C102.621 42.2981 102.645 42.4514 102.703 42.5931L104.882 48.046C105.105 48.5873 105.866 48.6005 106.102 48.0592L108.294 42.8836C108.35 42.75 108.376 42.6059 108.37 42.4613C108.365 42.3167 108.329 42.175 108.264 42.0458C108.199 41.9166 108.107 41.8031 107.995 41.7129C107.882 41.6228 107.752 41.5582 107.612 41.5237V41.5237Z" fill="#FEF6E0"/>
<path d="M107.099 135.411C114.397 131.991 118.137 124.003 116.51 116.412C116.26 115.236 114.974 114.603 113.885 115.104L87.2804 127.581C87.0251 127.701 86.7997 127.876 86.621 128.095C86.4422 128.314 86.3147 128.571 86.2479 128.846C86.1811 129.121 86.1767 129.408 86.235 129.685C86.2933 129.962 86.4129 130.222 86.5848 130.446C91.3229 136.573 99.8017 138.83 107.099 135.411Z" fill="#F7CB4D"/>
<path d="M90.5223 129.799C91.7297 130.974 93.121 131.885 94.6304 132.532C95.2341 132.796 95.9166 132.506 96.1397 131.885L98.3185 125.891C98.5416 125.257 97.8985 124.663 97.2947 124.953L90.8372 127.977C90.1416 128.307 89.9579 129.258 90.5223 129.799Z" fill="#FEF6E0"/>
<path d="M111.901 118.114L105.496 121.111C104.892 121.388 104.931 122.273 105.561 122.498L111.481 124.663C112.097 124.887 112.754 124.557 112.951 123.923C113.423 122.366 113.62 120.702 113.502 119.038C113.486 118.856 113.427 118.681 113.33 118.527C113.232 118.373 113.099 118.246 112.942 118.155C112.784 118.064 112.607 118.013 112.426 118.006C112.245 117.999 112.065 118.036 111.901 118.114V118.114Z" fill="#FEF6E0"/>
<path d="M99.0537 133.588C100.511 133.68 102.007 133.548 103.464 133.152C104.133 132.967 104.487 132.215 104.186 131.581L101.613 126.036C101.337 125.428 100.458 125.468 100.235 126.102L98.0694 132.083C98.0125 132.247 97.9941 132.423 98.0155 132.596C98.0368 132.768 98.0975 132.934 98.1926 133.08C98.2878 133.225 98.4149 133.347 98.5642 133.435C98.7136 133.523 98.8811 133.575 99.0537 133.588V133.588Z" fill="#FEF6E0"/>
<path d="M107.546 131.277C108.871 130.379 110 129.257 110.919 128.003C111.02 127.861 111.088 127.697 111.115 127.525C111.143 127.352 111.13 127.176 111.078 127.009C111.026 126.842 110.935 126.69 110.814 126.565C110.693 126.439 110.545 126.344 110.381 126.286L104.133 124.002C103.503 123.778 102.913 124.425 103.201 125.032L105.892 130.828C106.194 131.449 106.981 131.66 107.546 131.277Z" fill="#FEF6E0"/>
<path d="M53.8789 95.4187C55.3489 91.9199 58.8008 91.867 61.6883 91.0881C64.3789 90.3619 67.227 90.2695 70.0095 89.8998C71.6502 91.537 73.0151 91.7086 73.842 89.1604C76.2176 87.8137 77.8452 92.3292 80.4308 89.7281C79.0658 92.1971 76.5589 92.8441 74.5508 94.7982C75.5352 95.0886 76.362 95.3263 77.412 95.6432C73.5795 99.7757 68.3558 101.479 63.9589 104.436C63.3814 105.215 62.5808 105.638 61.6489 105.849C56.4908 105.295 53.0126 100.634 53.8789 95.4187V95.4187Z" fill="#FF5722"/>
<path d="M47.2631 115.249C46.4756 112.516 45.7013 109.783 47.355 106.073C50.9775 111.737 59.3119 109.347 62.1075 116.213C59.4563 117.309 58.9838 109.783 55.9388 115.249C53.0513 117.388 50.1638 117.467 47.2631 115.249Z" fill="#FF5722"/>
<path d="M60.3606 109.307C55.3862 110.588 51.8425 107.749 48.3643 104.964C46.6975 103.617 47.8393 101.874 48.5743 100.488C49.3356 99.0618 50.3987 97.8207 51.3306 96.4872C51.9737 96.1307 52.5512 96.3552 52.7218 96.9625C54.0737 101.557 57.3025 104.739 60.6494 107.855L60.5444 108.027C60.9381 108.528 60.8725 108.951 60.3606 109.307V109.307Z" fill="#FF5722"/>
<path d="M63.5781 126.247C67.8569 123.805 72.1225 121.323 76.4406 118.946C77.1756 118.537 78.2781 118.418 78.8556 119.342C79.84 120.926 78.8294 122.154 77.9237 123.343C74.6819 128.056 67.4894 129.508 63.5781 126.247Z" fill="#DC2E07"/>
<path d="M56.8988 117.44C57.857 120.398 56.282 123.078 53.9982 123.435C50.3363 123.989 49.4045 120.239 48.1313 117.52C51.0451 115.83 53.972 115.882 56.8988 117.44Z" fill="#FF5722"/>
<path d="M63.5779 126.247C68.9591 128.32 73.5266 126.26 77.9235 123.356C79.8266 125.389 79.2229 126.683 76.7948 127.594C72.7523 129.112 68.5654 129.073 64.3654 128.98C61.3466 128.914 64.0504 127.105 63.5779 126.247Z" fill="#FF5722"/>
<path d="M60.6625 107.856C54.9137 106.258 53.4437 101.096 51.3438 96.4747C51.895 95.4185 52.945 95.5505 53.8769 95.4053C55.3206 101.703 57.9325 104.779 62.3031 105.308C63.2087 105.07 63.4712 105.413 63.1562 106.271C62.0012 106.285 61.0956 106.694 60.6625 107.856Z" fill="#E64A19"/>
<path d="M62.6585 125.561C62.291 127.039 61.661 128.465 60.0204 128.056C58.2879 127.62 55.6891 127.422 55.6104 125.217C55.5579 123.871 57.6054 122.392 59.2591 122.55C60.7816 122.696 62.3304 123.686 62.6585 125.561V125.561Z" fill="#FF5722"/>
<path d="M56.896 117.441L48.1416 117.52C47.8529 116.768 47.5641 116.015 47.2754 115.249H55.9641C56.266 115.989 56.581 116.715 56.896 117.441Z" fill="#E64A19"/>
<path d="M73.8423 89.1468C74.761 90.9028 74.656 92.5928 72.5823 93.0681C70.141 93.6226 70.2066 91.5102 70.0098 89.8862C71.086 88.5659 72.3985 88.5394 73.8423 89.1468Z" fill="#4F2F27"/>
<path d="M63.1563 106.284C62.8676 105.967 62.5788 105.651 62.3032 105.32C62.6576 104.634 63.2876 104.475 63.9832 104.423C65.7157 106.443 68.7738 107.208 69.9288 111.222C67.0938 109.334 65.6501 106.958 63.1563 106.284V106.284Z" fill="#FF5722"/>
<path d="M60.3628 109.308L60.5597 108.028C63.1978 109.123 65.3109 110.681 65.0747 114.365L60.3628 109.308V109.308Z" fill="#FF5722"/>
<path d="M84.697 57.0902C87.1514 59.9421 85.6814 63.0844 85.1039 66.0287C84.5658 68.7617 83.3976 71.376 82.492 74.043C80.3133 74.7956 79.552 75.9442 81.4683 77.8191C81.6127 80.5389 76.8877 80.0108 78.0558 83.4964C76.4677 81.1859 76.9927 78.6377 76.1395 75.9707C75.4439 76.7364 74.8664 77.3702 74.1314 78.1756C72.1495 72.9075 72.937 67.4546 72.2414 62.1998C71.8083 61.3284 71.782 60.4306 72.0052 59.5064C74.7614 55.0833 80.4445 54.0007 84.697 57.0902Z" fill="#FF5722"/>
<path d="M69.9709 42.3943C72.7534 42.896 75.5227 43.3977 78.0821 46.5269C71.454 47.2926 69.9052 55.8351 62.5684 55.3202C62.7652 52.4551 69.6559 55.3466 66.1384 50.1973C65.5346 46.6589 66.7421 44.0315 69.9709 42.3943Z" fill="#FF5722"/>
<path d="M69.4839 56.7863C70.5339 51.7559 74.6289 49.8018 78.632 47.927C80.5614 47.0159 81.6114 48.8116 82.517 50.0923C83.4489 51.3994 84.092 52.9045 84.8533 54.3305C84.8927 55.0698 84.4333 55.4791 83.8164 55.3735C79.1308 54.5549 74.8783 56.0601 70.6389 57.6973L70.5339 57.5256C69.9301 57.6577 69.5758 57.4068 69.4839 56.7863V56.7863Z" fill="#FF5722"/>
<path d="M53.0129 52.2175C53.3016 57.1423 53.6166 62.0671 53.8266 67.005C53.866 67.85 53.4854 68.8931 52.4091 68.9987C50.5585 69.1835 49.9285 67.7444 49.2591 66.3845C46.516 61.4201 48.3929 54.3036 53.0129 52.2175Z" fill="#DC2E07"/>
<path d="M63.786 50.0925C60.7278 49.6436 59.0478 47.0425 59.7435 44.8508C60.8722 41.3124 64.5997 42.131 67.5791 42.1838C67.8022 45.5374 66.4635 48.1384 63.786 50.0925Z" fill="#FF5722"/>
<path d="M53.0115 52.2179C48.7984 56.1524 48.6147 61.1564 49.2578 66.3848C46.6065 67.2034 45.7272 66.0943 45.9897 63.4933C46.4228 59.2023 48.3128 55.4394 50.2422 51.7029C51.6334 49.0359 52.0403 52.2707 53.0115 52.2179V52.2179Z" fill="#FF5722"/>
<path d="M70.6367 57.7111C74.5873 53.2485 79.8242 54.1991 84.8642 54.3443C85.5598 55.3081 84.9823 56.1928 84.6936 57.0906C78.4592 55.6118 74.5742 56.602 72.1723 60.2989C71.9886 61.2231 71.5686 61.3024 70.9386 60.6422C71.4505 59.5992 71.4898 58.6089 70.6367 57.7111V57.7111Z" fill="#E64A19"/>
<path d="M54.0377 51.6905C52.8827 50.7134 51.8983 49.512 52.9877 48.218C54.1427 46.8449 55.4552 44.6136 57.4502 45.5114C58.6708 46.0659 59.0908 48.5481 58.2114 49.9609C57.3977 51.268 55.8489 52.2318 54.0377 51.6905Z" fill="#FF5722"/>
<path d="M63.7871 50.0927C65.0471 47.4521 66.3202 44.8115 67.5802 42.1841C68.3809 42.2501 69.1815 42.3293 69.9821 42.3953C68.709 44.9963 67.4359 47.5974 66.1496 50.1984C65.3621 50.172 64.5746 50.1324 63.7871 50.0927Z" fill="#E64A19"/>
<path d="M81.4552 77.806C79.4864 77.8588 78.0296 77.0138 78.5283 74.9409C79.1058 72.4983 80.9564 73.4885 82.4921 74.0299C83.2008 75.5746 82.6364 76.7761 81.4552 77.806V77.806Z" fill="#4F2F27"/>
<path d="M70.9412 60.6424C71.3481 60.5235 71.7681 60.4047 72.1749 60.2991C72.6212 60.9196 72.4899 61.5534 72.2274 62.2003C69.6681 62.8605 67.6337 65.2899 63.5649 64.5505C66.5049 62.8473 69.2349 62.5832 70.9412 60.6424V60.6424Z" fill="#FF5722"/>
<path d="M69.4843 56.7869C69.8387 57.0377 70.1799 57.2886 70.5343 57.5262C68.3949 59.4275 66.0849 60.629 62.9087 58.7937C65.1006 58.1336 67.2924 57.4602 69.4843 56.7869V56.7869Z" fill="#FF5722"/>
<path d="M105.013 105.955C101.075 106.748 98.9621 103.711 96.5471 101.625C94.3027 99.6707 92.5177 97.2149 90.5227 94.9704C90.969 92.541 90.3127 91.2339 87.5827 92.0129C84.984 90.719 87.9765 86.5732 84.1309 85.8338C87.0971 85.5697 89.1709 87.405 92.0846 88.0123C91.7434 86.9693 91.4677 86.0847 91.1002 84.9756C97.0065 85.8998 101.627 89.5043 106.85 91.63C107.887 91.6828 108.727 92.1449 109.475 92.8315C112.1 97.7166 110.092 103.605 105.013 105.955Z" fill="#FF5722"/>
<path d="M126.328 99.9468C124.412 102.284 122.47 104.608 118.23 105.347C121.013 98.7586 113.938 92.7907 118.283 86.2156C120.829 87.9056 114.529 92.8304 121.131 92.2494C124.727 93.5433 126.525 96.0519 126.328 99.9468Z" fill="#FF5722"/>
<path d="M113.293 91.8936C117.388 95.5245 117.021 100.37 116.653 105.11C116.47 107.394 114.265 107.421 112.598 107.592C110.905 107.777 109.172 107.579 107.453 107.539C106.757 107.183 106.613 106.536 107.046 106.021C110.261 102.073 111.115 97.3069 111.836 92.4878L112.046 92.4746C112.27 91.854 112.676 91.656 113.293 91.8936V91.8936Z" fill="#FF5722"/>
<path d="M126.196 78.9152C121.497 76.5782 116.772 74.2941 112.113 71.8911C111.312 71.4818 110.551 70.584 111.023 69.5145C111.824 67.6925 113.491 67.8509 115.092 67.9566C121.13 67.9962 126.708 73.5019 126.196 78.9152V78.9152Z" fill="#DC2E07"/>
<path d="M122.48 90.0977C124.502 87.4835 127.796 87.2723 129.45 89.0811C132.127 91.999 129.397 95.0621 127.783 97.8083C124.567 96.2504 122.874 93.6362 122.48 90.0977Z" fill="#FF5722"/>
<path d="M126.197 78.9151C124.793 72.9077 120.265 70.0954 115.093 67.9433C115.736 65.0386 117.22 64.801 119.477 66.4118C123.218 69.0788 125.685 72.8153 128.126 76.5914C129.859 79.298 126.656 77.9909 126.197 78.9151Z" fill="#FF5722"/>
<path d="M111.838 92.5011C113.873 98.5482 110.237 102.932 107.454 107.566C106.194 107.711 105.683 106.708 105 105.955C109.659 100.912 110.788 96.7525 108.636 92.5672C107.888 91.907 108.032 91.4713 108.964 91.2336C109.659 92.2635 110.565 92.818 111.838 92.5011V92.5011Z" fill="#E64A19"/>
<path d="M126.146 80.156C127.656 79.5883 129.283 79.311 129.9 81.001C130.557 82.7966 131.935 85.2128 130.045 86.5991C128.89 87.4441 126.383 86.5199 125.53 84.9619C124.768 83.5228 124.703 81.5555 126.146 80.156V80.156Z" fill="#FF5722"/>
<path d="M122.481 90.0979C124.253 92.6725 126.024 95.2471 127.783 97.8085C127.298 98.5215 126.812 99.2212 126.313 99.9342C124.581 97.3728 122.848 94.8114 121.116 92.2368C121.588 91.537 122.034 90.8109 122.481 90.0979V90.0979Z" fill="#E64A19"/>
<path d="M87.584 92.0127C88.5684 90.1511 90.1171 89.2268 91.7708 90.7848C93.7133 92.6068 91.8233 93.8215 90.524 94.9702C88.7259 94.8117 87.9121 93.6499 87.584 92.0127Z" fill="#4F2F27"/>
<path d="M108.963 91.2339C108.858 91.6829 108.74 92.1186 108.635 92.5675C107.821 92.6599 107.309 92.1978 106.85 91.6168C107.585 88.8706 106.417 85.7018 109.252 82.2822C109.278 85.9263 108.071 88.6197 108.963 91.2339Z" fill="#FF5722"/>
<path d="M113.293 91.8937C112.886 92.0918 112.466 92.2898 112.059 92.4746C111.442 89.4775 111.534 86.6785 114.907 84.6848C114.356 87.0878 113.831 89.4907 113.293 91.8937V91.8937Z" fill="#FF5722"/>
</g>
<defs>
<clipPath id="clip0">
<rect width="168" height="169" fill="white"/>
</clipPath>
</defs>
</svg>
