<svg width="392" height="392" viewBox="0 0 392 392" fill="none" xmlns="http://www.w3.org/2000/svg">
<path d="M124.307 65.6908C138.118 47.867 136.74 29.002 158.974 24.837C173.643 22.0807 185.158 37.9139 184.883 43.457C184.393 54.1451 174.501 53.5939 169.846 55.2476C169.846 55.2476 165.834 74.6026 142.651 85.1376C106.299 101.644 90.7722 84.2189 90.7722 84.2189C90.7722 84.2189 111.015 82.8408 124.307 65.6908V65.6908Z" fill="#312D2D"/>
<path d="M124.307 65.6906C138.119 47.8668 136.22 29.2468 158.974 24.8368C173.429 22.05 185.159 37.9137 184.883 43.4568C184.393 54.145 174.501 53.5937 169.846 55.2475C169.846 55.2475 165.834 74.6025 142.651 85.1375C106.299 101.644 90.7723 84.2187 90.7723 84.2187C90.7723 84.2187 111.015 82.8406 124.307 65.6906V65.6906Z" fill="url(#paint0_radial)"/>
<path d="M129.85 56.4113C138.088 41.5888 140.416 28.2976 158.975 24.837C173.644 22.0807 184.914 37.4851 184.669 43.0282C184.669 43.0282 176.921 33.0445 158.944 37.332C140.998 41.6195 129.85 56.4113 129.85 56.4113Z" fill="url(#paint1_radial)"/>
<path d="M124.306 65.6906C127.767 61.25 130.492 56.3193 132.973 51.2662C135.178 46.795 136.863 42.8137 142.099 41.405C150.399 39.1693 161.914 49.7962 160.138 60.1168C159.035 66.4868 150.919 78.9206 127.981 87.9856C103.175 97.7856 90.8025 84.1881 90.8025 84.1881C90.8025 84.1881 111.015 82.8406 124.306 65.6906Z" fill="url(#paint2_radial)"/>
<path d="M89.2416 253.085L146.112 264.447L161.945 209.72L200.012 235.231L172.266 290.968L172.143 290.876C169.817 295.004 165.989 298.075 161.455 299.451C160.077 299.88 158.699 300.125 157.29 300.217V300.278L156.831 300.247C155.116 300.339 153.432 300.217 151.808 299.88L81.6159 273.206L89.2416 253.085V253.085Z" fill="#616161"/>
<path d="M77.0528 241.417C78.0328 239.763 80.1459 239.243 81.7997 240.223L89.0578 244.571C93.9885 247.511 96.6528 255.872 96.6528 255.872L85.8728 273.971L70.7747 287.079C66.8853 290.111 61.5259 290.448 57.269 287.967L53.9922 286.038C52.5528 285.18 52.0628 283.312 52.9203 281.873L77.0528 241.417V241.417Z" fill="#325599"/>
<path d="M254.616 348.512L219.673 281.75C219.673 281.75 176.155 245.735 172.358 243.193C158.178 233.699 155.361 220.5 156.77 210.914C157.872 203.472 162.803 193.581 162.803 193.581L219.918 210.608L217.223 221.082C217.223 221.082 234.71 243.683 238.783 248.399C242.856 253.116 249.839 259.7 255.26 278.289C260.986 297.889 275.35 345.144 275.35 345.144L254.616 348.512V348.512Z" fill="#7C7C7C"/>
<path d="M254.647 369.307C252.748 369.613 250.972 368.327 250.666 366.459L249.318 358.098C248.369 352.433 253.055 345.021 253.055 345.021L273.849 341.591L293.602 344.684C298.441 345.726 302.146 349.584 302.973 354.454L303.616 358.221C303.892 359.874 302.79 361.436 301.136 361.712L254.647 369.307V369.307Z" fill="#4568AD"/>
<path d="M175.971 39.843C182.862 26.7661 199.706 15.8024 214.436 17.1805C230.913 18.7117 240.498 29.8286 243.836 44.5286C245.061 49.8574 245.276 55.2474 244.633 59.1061C244.541 59.5655 243.898 62.9342 243.898 64.0061C243.561 68.0486 251.615 71.5092 252.84 75.858C253.759 79.1349 246.96 81.738 246.47 82.3811C243.959 85.5661 249.257 99.378 230.3 102.257C223.899 103.206 223.409 102.655 221.174 103.145C215.324 104.431 212.446 117.508 212.446 117.508C212.446 117.508 209.751 130.493 196.888 127.492C182.188 124.062 185.618 110.832 185.618 110.832C185.618 110.832 195.357 96.2849 185.526 81.3092C177.962 69.8861 171.531 48.2649 175.971 39.843V39.843Z" fill="#F9DDBD"/>
<path d="M245.031 90.4969C242.397 90.8338 239.733 90.405 237.406 88.9044C234.833 87.2813 236.364 85.1069 239.243 86.1175C240.989 86.73 243.408 86.9138 245.552 86.3625L245.031 90.4969Z" fill="#444444"/>
<path d="M228.735 67.209C228.62 64.2344 230.09 61.763 232.016 61.6889C233.943 61.6149 235.598 63.9663 235.712 66.9409C235.826 69.9155 234.357 72.3869 232.43 72.461C230.504 72.535 228.849 70.1837 228.735 67.209Z" fill="#312D2D"/>
<path d="M238.691 150.124L266.131 129.237L279.483 143.509L251.798 170.336L251.768 170.306C246.347 175.971 233.638 179.83 223.072 170.214C213.027 161.057 200.624 141.549 200.624 141.549L222.092 124.337L238.691 150.124V150.124Z" fill="url(#paint3_linear)"/>
<path d="M234.159 59.5656C237.528 60.6681 238.416 58.4631 237.313 56.595C236.517 55.2475 234.496 54.0531 230.484 54.6962C226.717 55.3087 225.094 57.4219 224.053 58.7081C223.011 59.9944 223.073 61.3112 223.93 61.4337C225.094 61.6787 229.963 58.2181 234.159 59.5656V59.5656Z" fill="#454140"/>
<path d="M174.164 28.5426C180.933 19.3551 192.386 13.077 204.851 11.8214C215.692 10.6882 230.698 12.5564 240.345 21.1007C246.133 26.2457 249.808 33.2282 249.318 41.2214C249.043 46.0295 245.245 48.6939 245.245 48.6939C245.245 48.6939 240.131 38.067 229.198 41.4051C217.713 44.927 212.507 42.8445 212.507 42.8445C216.917 51.8789 213.763 57.1464 210.884 60.2089C209.23 61.9545 207.729 64.0064 206.872 65.2007C206.443 65.8132 206.014 65.8132 205.8 65.2007C205.279 63.7307 204.269 61.097 203.564 59.8414C201.176 55.707 197.807 57.3914 197.776 57.422C193.152 59.3207 192.019 69.0901 200.043 74.327C200.226 74.4495 200.778 74.7864 200.533 75.7664C198.021 85.7195 186.445 86.7301 185.71 86.3932H185.679L185.496 86.3014C183.903 85.6889 182.923 84.4332 182.556 82.657C181.239 76.1951 178.299 74.4801 176.094 71.7545C173.552 68.6307 170.673 65.0782 168.591 54.9107C166.6 45.2945 168.529 36.1989 174.164 28.5426V28.5426Z" fill="#312D2D"/>
<path d="M174.164 28.5426C180.933 19.3551 192.386 13.077 204.851 11.8214C215.692 10.6882 230.698 12.5564 240.345 21.1007C246.133 26.2457 249.808 33.2282 249.318 41.2214C249.043 46.0295 245.245 48.6939 245.245 48.6939C245.245 48.6939 240.131 38.067 229.198 41.4051C217.713 44.927 212.507 42.8445 212.507 42.8445C216.917 51.8789 213.763 57.1464 210.884 60.2089C209.23 61.9545 207.729 64.0064 206.872 65.2007C206.443 65.8132 206.014 65.8132 205.8 65.2007C205.279 63.7307 204.269 61.097 203.564 59.8414C201.176 55.707 197.807 57.3914 197.776 57.422C193.152 59.3207 192.019 69.0901 200.043 74.327C200.226 74.4495 200.778 74.7864 200.533 75.7664C198.021 85.7195 186.445 86.7301 185.71 86.3932H185.679L185.496 86.3014C183.903 85.6889 182.923 84.4332 182.556 82.657C181.239 76.1951 178.299 74.4801 176.094 71.7545C173.552 68.6307 170.673 65.0782 168.591 54.9107C166.6 45.2945 168.529 36.1989 174.164 28.5426V28.5426Z" fill="url(#paint4_radial)"/>
<path d="M238.048 137.629C230.177 159.648 210.883 160.322 210.883 160.322L195.51 133.984C193.525 130.58 192.971 126.527 193.97 122.715C194.969 118.903 197.439 115.643 200.838 113.649L203.38 112.149C210.455 108.014 216.457 110.036 225.982 123.939C234.526 136.465 238.048 137.629 238.048 137.629V137.629Z" fill="#590DE5"/>
<path d="M219.918 210.577C227.513 180.442 228.922 159.281 227.207 142.314C225.002 120.938 214.804 108.167 203.35 104.125C189.201 99.133 179.401 106.33 175.451 119.131C172.756 127.859 173.276 134.566 173.491 138.731C173.491 138.731 175.451 161.608 157.259 190.242C157.259 190.242 159.005 202.676 188.038 209.506C200.961 212.537 219.918 210.577 219.918 210.577Z" fill="#5C3ECA"/>
<path d="M173.153 182.556C173.153 182.556 186.445 175.941 186.598 175.879C186.996 175.665 187.432 175.531 187.882 175.486C188.331 175.441 188.786 175.485 189.218 175.616C189.651 175.747 190.053 175.962 190.402 176.249C190.751 176.536 191.04 176.889 191.253 177.288L194.101 182.617C194.56 183.505 194.591 184.485 194.285 185.373C195.816 186.261 199.583 188.589 200.379 190.151C201.298 191.927 200.257 193.795 199.277 194.224C198.143 194.714 197.623 196.306 197.96 197.501C198.327 198.726 198.297 199.981 197.715 200.992C197.133 202.002 196.398 202.401 194.989 202.676C194.315 202.799 193.611 203.656 193.611 204.33C193.642 205.371 193.642 207.178 193.121 207.852C192.08 209.23 190.365 208.801 189.477 209.812C189.14 210.21 189.109 211.956 188.405 212.599C186.322 214.559 179.554 210.945 179.554 210.945L166.63 198.971L173.153 182.556V182.556Z" fill="#EDBD82"/>
<path d="M177.441 180.473L169.264 182.77L163.66 198.236C163.66 198.236 181.146 215.447 184.117 210.639C185.066 209.138 183.321 207.515 185.863 206.566C187.67 205.892 189.017 205.034 188.496 202.248C188.282 201.206 189.109 199.92 189.844 199.828C193.151 199.43 194.009 197.593 193.029 195.265C192.478 193.979 192.6 191.804 194.468 190.824C195.142 190.457 196.091 188.956 195.663 186.813C194.958 183.474 177.441 180.473 177.441 180.473V180.473Z" fill="url(#paint5_linear)"/>
<path d="M166.202 200.165L135.914 179.738V179.707C132.269 176.094 130.983 173.582 130.248 170.551C127.921 161.057 134.107 154.442 134.107 154.442L162.129 123.112L179.401 140.967L154.779 165.589L173.184 182.586L166.202 200.165Z" fill="url(#paint6_linear)"/>
<path d="M165.59 159.281C165.59 159.281 147.031 140.936 147.521 126.818C147.521 126.818 156.371 126.788 169.54 116.834C177.84 110.587 188.865 110.066 193.305 117.355C197.256 123.786 196.613 131.718 189.018 140.814C183.321 147.582 165.59 159.281 165.59 159.281V159.281Z" fill="#590DE5"/>
<path d="M280.862 132.882L280.954 132.943C282.271 134.597 284.537 135.056 286.007 133.923L291.979 129.421C293.449 128.319 293.571 126.052 292.254 124.399C290.938 122.745 288.671 122.286 287.201 123.419L281.229 127.921C279.729 129.054 279.514 131.228 280.862 132.882V132.882Z" fill="url(#paint7_linear)"/>
<path d="M275.84 114.048C275.748 114.109 275.717 114.17 275.717 114.17C272.991 117.079 270.572 119.499 269.531 120.142C266.775 121.888 264.202 124.093 262.61 127.186C259.639 132.974 263.436 138.67 267.877 142.866C272.287 147.092 275.074 148.011 279.882 147.214C283.802 146.571 292.101 137.782 292.101 137.782C292.959 136.771 293.939 135.73 294.919 134.75C295.286 134.383 295.685 134.015 296.052 133.617L296.083 133.586C297.216 132.484 297.369 131.014 296.113 129.483C294.46 127.461 292.836 128.503 292.653 128.656L292.622 128.686C291.856 129.391 291.03 130.34 290.417 130.799C288.641 132.116 287.661 132.361 287.661 132.361L279.27 121.704L282.118 117.906C282.118 117.906 282.148 117.845 282.24 117.753C282.546 117.263 283.741 115.518 281.475 113.466C278.963 111.322 276.36 113.558 275.84 114.048V114.048Z" fill="url(#paint8_linear)"/>
<path d="M276.115 128.503C277.585 130.064 279.882 130.309 281.26 129.084L287.6 123.419C288.978 122.194 288.917 119.928 287.447 118.366C285.977 116.804 283.68 116.559 282.302 117.784L275.962 123.449C274.615 124.705 274.676 126.941 276.115 128.503Z" fill="url(#paint9_linear)"/>
<path d="M284.353 129.421C282.975 127.431 281.291 124.981 279.423 122.868C279.147 122.561 278.902 122.286 278.626 122.01C276.054 119.346 272.685 118.886 268.459 121.183C268.306 121.275 268.183 121.336 268.03 121.428C267.785 121.581 267.54 121.734 267.264 121.888L267.234 121.918C266.866 122.163 266.499 122.408 266.131 122.684C264.876 123.603 263.926 124.736 263.344 125.838C261.017 129.544 261.691 133.066 261.691 133.066C261.691 133.066 264.386 141.273 268.367 139.834C272.348 138.394 274.4 132.729 274.4 132.729L273.359 128.625C274.553 128.503 275.594 129.023 277.003 130.616C277.463 131.136 277.983 131.779 278.596 132.545C278.657 132.637 279.423 133.586 279.484 133.648C280.403 134.658 281.444 135.148 282.699 135.056C284.323 134.964 285.701 133.403 286.466 132.79C285.884 132.055 285.119 130.493 284.353 129.421V129.421Z" fill="url(#paint10_linear)"/>
<path d="M286.16 138.884L281.199 134.811L278.565 131.81L275.135 128.809L273.941 129.329L274.676 133.249L272.103 137.108L270.48 138.486L278.902 144.458L286.16 138.884Z" fill="url(#paint11_radial)"/>
<path d="M285.824 136.649C285.915 138.547 287.753 139.589 287.63 139.619C287.11 139.834 284.537 139.191 281.689 136.006C279.484 133.525 277.371 130.309 274.799 129.544C275.687 133.892 273.757 137.231 270.205 138.548C272.93 136.006 275.135 131.718 272.655 128.288C274.676 127.063 277.034 129.084 278.229 130.554C279.607 132.208 280.832 134.781 283.374 134.444C285.119 134.229 285.762 133.127 285.15 131.473C283.619 127.431 280.035 123.296 276.36 120.999C275.013 120.172 272.257 119.958 268.704 120.662C271.307 118.641 275.748 119.284 277.432 120.081C278.872 120.754 278.504 120.479 279.79 119.652C280.434 119.223 281.077 118.794 281.689 118.396C281.169 119.254 280.25 120.295 280.097 121.306C279.913 122.561 281.107 123.633 281.842 124.521C283.741 126.787 285.395 124.827 287.355 123.602C286.038 125.164 285.732 125.654 285.058 126.757C284.17 128.257 285.517 129.482 286.497 130.646C288.488 133.035 292.592 128.166 292.867 128.472C293.174 128.839 285.732 134.566 285.824 136.649V136.649Z" fill="#EDBD82"/>
<defs>
<radialGradient id="paint0_radial" cx="0" cy="0" r="1" gradientUnits="userSpaceOnUse" gradientTransform="translate(111.896 57.8798) rotate(159.854) scale(76.7476 44.1697)">
<stop offset="0.562" stop-color="#454140" stop-opacity="0"/>
<stop offset="1" stop-color="#454140"/>
</radialGradient>
<radialGradient id="paint1_radial" cx="0" cy="0" r="1" gradientUnits="userSpaceOnUse" gradientTransform="translate(155.843 58.3676) rotate(-136.426) scale(40.4318 52.1113)">
<stop offset="0.58" stop-color="#454140" stop-opacity="0"/>
<stop offset="1" stop-color="#454140"/>
</radialGradient>
<radialGradient id="paint2_radial" cx="0" cy="0" r="1" gradientUnits="userSpaceOnUse" gradientTransform="translate(107.872 65.3916) rotate(51.4431) scale(38.7718 59.3953)">
<stop stop-color="#454140"/>
<stop offset="0.526" stop-color="#454140" stop-opacity="0"/>
</radialGradient>
<linearGradient id="paint3_linear" x1="268.272" y1="150.212" x2="232.284" y2="150.212" gradientUnits="userSpaceOnUse">
<stop offset="0.598" stop-color="#F9DDBD"/>
<stop offset="1" stop-color="#FFD29C"/>
</linearGradient>
<radialGradient id="paint4_radial" cx="0" cy="0" r="1" gradientUnits="userSpaceOnUse" gradientTransform="translate(208.832 48.3839) rotate(176.887) scale(38.9244)">
<stop offset="0.526" stop-color="#454140" stop-opacity="0"/>
<stop offset="1" stop-color="#454140"/>
</radialGradient>
<linearGradient id="paint5_linear" x1="183.753" y1="204.872" x2="163.669" y2="144.617" gradientUnits="userSpaceOnUse">
<stop offset="0.598" stop-color="#F9DDBD"/>
<stop offset="1" stop-color="#FFD29C"/>
</linearGradient>
<linearGradient id="paint6_linear" x1="172.407" y1="208.654" x2="152.32" y2="148.403" gradientUnits="userSpaceOnUse">
<stop offset="0.598" stop-color="#F9DDBD"/>
<stop offset="1" stop-color="#FFD29C"/>
</linearGradient>
<linearGradient id="paint7_linear" x1="283.559" y1="125.602" x2="289.701" y2="131.803" gradientUnits="userSpaceOnUse">
<stop offset="0.5" stop-color="#F9DDBD"/>
<stop offset="1" stop-color="#FFD29C"/>
</linearGradient>
<linearGradient id="paint8_linear" x1="287.394" y1="142.422" x2="268.243" y2="120.909" gradientUnits="userSpaceOnUse">
<stop stop-color="#FFD29C"/>
<stop offset="0.138" stop-color="#F9DDBD"/>
<stop offset="0.831" stop-color="#F9DDBD"/>
</linearGradient>
<linearGradient id="paint9_linear" x1="278.816" y1="120.569" x2="284.805" y2="126.35" gradientUnits="userSpaceOnUse">
<stop offset="0.5" stop-color="#F9DDBD"/>
<stop offset="1" stop-color="#FFD29C"/>
</linearGradient>
<linearGradient id="paint10_linear" x1="278.779" y1="125.867" x2="263.594" y2="137.445" gradientUnits="userSpaceOnUse">
<stop offset="0.5" stop-color="#F9DDBD"/>
<stop offset="1" stop-color="#FFD29C"/>
</linearGradient>
<radialGradient id="paint11_radial" cx="0" cy="0" r="1" gradientUnits="userSpaceOnUse" gradientTransform="translate(277.662 133.341) rotate(180) scale(9.51519)">
<stop stop-color="#FFD29C"/>
<stop offset="1" stop-color="#F9DDBD"/>
</radialGradient>
</defs>
</svg>
