<svg width="50" height="49" viewBox="0 0 50 49" fill="none" xmlns="http://www.w3.org/2000/svg">
<path fill-rule="evenodd" clip-rule="evenodd" d="M25 49C11.1925 49 0 38.0314 0 24.5C0 10.9687 11.1925 0 25 0C38.8075 0 50 10.9687 50 24.5C50 38.0314 38.8075 49 25 49ZM25 44.1C30.3043 44.1 35.3914 42.035 39.1421 38.3593C42.8929 34.6836 45 29.6982 45 24.5C45 19.3018 42.8929 14.3164 39.1421 10.6407C35.3914 6.96499 30.3043 4.9 25 4.9C19.6957 4.9 14.6086 6.96499 10.8579 10.6407C7.10714 14.3164 5 19.3018 5 24.5C5 29.6982 7.10714 34.6836 10.8579 38.3593C14.6086 42.035 19.6957 44.1 25 44.1ZM22.5 34.3H27.5V39.2H22.5V34.3ZM22.5 29.4196C22.5 29.4196 27.5 29.4 27.5 29.4196C27.5 26.9647 35 24.5 35 19.6C35 14.1855 30.5675 9.8 25.0225 9.8C23.7074 9.7971 22.4046 10.0484 21.1888 10.5396C19.9729 11.0308 18.8679 11.7522 17.9369 12.6625C17.0059 13.5728 16.2673 14.6542 15.7634 15.8446C15.2594 17.035 15 18.3112 15 19.6H20C20 16.905 22.25 14.7 25 14.7C27.75 14.7 30 16.905 30 19.6C30 21.805 22.5 25.3992 22.5 29.4196Z" fill="white"/>
</svg>
