<svg width="169" height="168" viewBox="0 0 169 168" fill="none" xmlns="http://www.w3.org/2000/svg">
<path d="M84.5385 126.276C50.8573 126.368 15.9219 135.896 15.9219 159.167V163.157H153.155V159.167C153.155 135.896 118.22 126.368 84.5385 126.276Z" fill="url(#paint0_radial)"/>
<path d="M72.5137 118.636V146.146C72.5137 153.05 77.3988 158.655 83.4195 158.655H85.598C91.6186 158.655 96.5037 153.063 96.5037 146.146V118.636H72.5137Z" fill="#C48E6A"/>
<path d="M69.5273 134.256L74.6106 163.131H94.9302L99.4721 134.256H69.5273Z" fill="#81D4FA"/>
<path d="M96.4873 126.604C104.304 127.168 108 127.838 108 127.838L112.133 137.419L105.201 143.181L108.938 151.279L101.571 163.078H92.5L96.4873 126.604V126.604Z" fill="url(#paint1_linear)"/>
<path d="M72.4987 126.604C64.6824 127.168 61.0252 127.838 61.0252 127.838L56.8926 137.419L63.8242 143.181L60.0877 151.279L67.4551 163.078H76.5256L72.4987 126.604V126.604Z" fill="url(#paint2_linear)"/>
<path d="M43.4912 137.314C45.5641 136.238 47.9803 134.663 49.1025 133.691C51.6375 131.499 57.645 125.856 62.1208 129.833C66.9532 134.046 61.9888 140.687 60.0743 143.443C59.1237 144.821 58.3975 146.344 57.8034 147.893" stroke="#03A9F4" stroke-width="3" stroke-miterlimit="10"/>
<path d="M39.3314 146.527C38.6844 146.632 37.9846 146.908 37.2981 146.252C36.8492 145.819 36.2814 144.585 36.4399 143.522C36.5983 142.445 37.7998 141.999 40.3612 140.91C42.3549 140.07 44.1901 139.217 45.8537 138.101L43.3715 135.03C43.3715 135.03 40.5064 136.631 38.9485 137.235C36.189 138.285 33.0467 139.479 32.5318 142.944C31.9772 146.672 34.0369 149.323 35.6213 150.517C36.9152 151.502 38.1563 151.974 39.3578 152.053C41.2194 152.171 42.4605 150.964 42.4605 149.1C42.4605 147.236 40.6253 146.304 39.3314 146.527V146.527Z" fill="url(#paint3_linear)"/>
<path d="M48.8922 153.654C48.879 154.311 48.7074 155.033 49.46 155.61C49.9617 155.991 51.2688 156.371 52.2986 156.069C53.3417 155.754 53.619 154.521 54.3319 151.843C54.8865 149.769 55.4674 147.827 56.3388 146.029L59.7452 148.024C59.7452 148.024 58.5569 151.069 58.1872 152.696C57.5403 155.571 56.8009 158.826 53.4209 159.823C49.79 160.913 46.8457 159.246 45.433 157.868C44.2711 156.726 43.6242 155.584 43.3733 154.403C42.9904 152.591 44.0203 151.187 45.8687 150.924C47.7304 150.675 48.9186 152.355 48.8922 153.654V153.654Z" fill="url(#paint4_linear)"/>
<path d="M72.5112 123.44C66.517 123.624 62.2524 126.669 60.6152 128.559L63.6123 131.132C63.652 131.092 66.8339 127.627 72.5905 127.378L72.5112 123.44Z" fill="#03A9F4"/>
<path d="M113.888 134.885C110.68 127.706 105.715 124.976 103.048 123.991C100.606 123.086 98.2291 122.718 96.4863 122.574V126.603C97.9123 126.735 99.7739 126.971 101.675 127.68C103.761 128.454 107.656 130.62 110.27 136.486C113.941 144.703 114.865 146.842 114.878 146.842L118.509 145.28C118.509 145.28 117.585 143.141 113.888 134.885V134.885Z" fill="#03A9F4"/>
<path d="M119.092 159.272C124.196 159.272 128.334 155.158 128.334 150.084C128.334 145.01 124.196 140.897 119.092 140.897C113.987 140.897 109.85 145.01 109.85 150.084C109.85 155.158 113.987 159.272 119.092 159.272Z" fill="url(#paint5_linear)"/>
<path d="M119.092 155.334C122.009 155.334 124.373 152.984 124.373 150.084C124.373 147.185 122.009 144.834 119.092 144.834C116.175 144.834 113.811 147.185 113.811 150.084C113.811 152.984 116.175 155.334 119.092 155.334Z" fill="#9E9E9E"/>
<path d="M120.583 66.189H48.415C40.6383 66.189 34.2744 72.9352 34.2744 81.1646C34.2744 89.394 40.6383 96.1402 48.415 96.1402H120.57C128.347 96.1402 134.711 89.394 134.711 81.1646C134.711 72.9352 128.36 66.189 120.583 66.189V66.189Z" fill="#C48E6A"/>
<path d="M84.501 14.5298C61.5276 14.5298 40.2441 38.9554 40.2441 74.1173C40.2441 109.082 62.1745 126.368 84.501 126.368C106.827 126.368 128.758 109.069 128.758 74.1042C128.758 38.9554 107.474 14.5298 84.501 14.5298V14.5298Z" fill="#E0BB95"/>
<path d="M52.7853 66.5838C56.733 61.0319 65.698 60.5069 70.834 64.6413C71.6526 65.2975 72.7352 66.2163 73.0521 67.24C73.5802 68.9069 71.9695 70.2063 70.3983 69.8125C69.3948 69.5631 68.4574 69.025 67.4672 68.7231C65.6584 68.1588 64.3512 68.0013 62.7273 68.0013C60.3243 67.9881 58.7795 68.29 56.4954 69.2088C55.558 69.5894 54.7922 70.1931 53.7227 69.7469C52.508 69.235 52.0459 67.6731 52.7853 66.5838V66.5838Z" fill="#AB872F"/>
<path d="M113.6 69.7336C113.217 69.5629 112.848 69.3529 112.465 69.1954C110.115 68.2242 108.781 67.9748 106.233 67.9879C103.988 68.0011 102.655 68.3029 100.899 68.8936C99.8293 69.2611 98.4694 70.1798 97.2811 69.8254C95.5383 69.3004 95.5911 67.4104 96.5418 66.2029C97.6772 64.7854 99.2352 63.7092 100.886 63.0004C104.715 61.3467 109.388 61.5829 112.993 63.7223C114.168 64.4179 115.449 65.3761 116.162 66.5836C117.205 68.2898 115.633 70.5604 113.6 69.7336V69.7336Z" fill="#AB872F"/>
<path d="M62.7953 83.8819C66.3902 83.8819 69.3044 80.885 69.3044 77.1881C69.3044 73.4913 66.3902 70.4944 62.7953 70.4944C59.2004 70.4944 56.2861 73.4913 56.2861 77.1881C56.2861 80.885 59.2004 83.8819 62.7953 83.8819Z" fill="#5D4037"/>
<path d="M106.208 83.8819C109.803 83.8819 112.717 80.885 112.717 77.1881C112.717 73.4913 109.803 70.4944 106.208 70.4944C102.613 70.4944 99.6992 73.4913 99.6992 77.1881C99.6992 80.885 102.613 83.8819 106.208 83.8819Z" fill="#5D4037"/>
<path d="M95.6172 99.9333C91.4186 102.414 77.6213 102.414 73.4227 99.9333C71.0066 98.5027 68.5376 100.695 69.541 102.873C70.5312 105.013 78.0438 109.987 84.553 109.987C91.0621 109.987 98.4823 105.013 99.4725 102.873C100.463 100.695 98.0334 98.5027 95.6172 99.9333Z" fill="#6D4C41"/>
<path d="M89.5951 89.3294C89.4498 89.2769 89.3178 89.2375 89.1726 89.2244H79.8248C79.6795 89.2375 79.5343 89.2769 79.4023 89.3294C78.5573 89.6706 78.0952 90.5369 78.4913 91.4687C78.8873 92.4006 80.749 94.9994 84.4987 94.9994C88.2483 94.9994 90.11 92.3875 90.5061 91.4687C90.9022 90.5369 90.4401 89.6706 89.5951 89.3294V89.3294Z" fill="#C48E6A"/>
<path d="M84.504 5.28906H84.4512C24.4694 5.60406 36.7615 73.7228 36.7615 73.7228C36.7615 73.7228 39.4549 80.7447 40.6828 83.8422C40.8545 84.2884 41.5146 84.2359 41.6202 83.7766C42.9009 78.0803 47.5088 57.8809 49.8326 51.7384C50.4965 49.9883 51.7582 48.5259 53.397 47.607C55.0358 46.6881 56.9474 46.3711 58.7975 46.7116C64.6729 47.7747 74.0471 49.0872 84.372 49.0872H84.5832C94.9081 49.0872 104.282 47.7747 110.158 46.7116C113.987 46.0159 117.763 48.1291 119.123 51.7384C121.433 57.8547 126.015 77.9359 127.309 83.7109C127.414 84.1834 128.074 84.2228 128.246 83.7766L132.18 73.7097C132.207 73.7228 144.499 5.60406 84.504 5.28906V5.28906Z" fill="#AB872F"/>
<path d="M132.203 73.7228C132.203 73.7228 144.495 5.60406 84.5004 5.28906H84.4476C83.5102 5.28906 82.5992 5.31531 81.7014 5.35469C79.9189 5.43344 78.1893 5.56469 76.5257 5.76156H76.4729C76.3541 5.77469 76.2485 5.80094 76.1296 5.81406C25.6409 12.1272 36.7579 73.7228 36.7579 73.7228L40.6924 83.8028C40.8641 84.2491 41.511 84.2097 41.6167 83.7372C42.9106 77.9753 47.5053 57.8678 49.829 51.7516C50.4929 50.0015 51.7546 48.5391 53.3934 47.6201C55.0322 46.7012 56.9438 46.3842 58.7939 46.7247C64.6693 47.7878 74.0435 49.1003 84.3684 49.1003H84.5796C94.9045 49.1003 104.279 47.7878 110.154 46.7247C113.983 46.0291 117.759 48.1422 119.119 51.7516C121.443 57.8941 126.051 78.1328 127.318 83.8028C127.424 84.2753 128.071 84.3147 128.242 83.8684C129.497 80.7709 132.203 73.7228 132.203 73.7228V73.7228Z" fill="url(#paint6_radial)"/>
<defs>
<radialGradient id="paint0_radial" cx="0" cy="0" r="1" gradientUnits="userSpaceOnUse" gradientTransform="translate(84.689 162.521) rotate(179.763) scale(99.0436 53.2676)">
<stop offset="0.559" stop-color="#F5F5F5"/>
<stop offset="1" stop-color="#C6C6C6"/>
</radialGradient>
<linearGradient id="paint1_linear" x1="102.327" y1="153.606" x2="102.327" y2="127.089" gradientUnits="userSpaceOnUse">
<stop offset="0.335" stop-color="#E0E0E0"/>
<stop offset="0.668" stop-color="#D0D0D0"/>
<stop offset="0.987" stop-color="#BDBDBD"/>
</linearGradient>
<linearGradient id="paint2_linear" x1="66.7157" y1="153.606" x2="66.7157" y2="127.089" gradientUnits="userSpaceOnUse">
<stop offset="0.335" stop-color="#E0E0E0"/>
<stop offset="0.668" stop-color="#D0D0D0"/>
<stop offset="0.987" stop-color="#BDBDBD"/>
</linearGradient>
<linearGradient id="paint3_linear" x1="44.8991" y1="137.52" x2="32.5629" y2="151.809" gradientUnits="userSpaceOnUse">
<stop stop-color="#757575"/>
<stop offset="1"/>
</linearGradient>
<linearGradient id="paint4_linear" x1="56.5276" y1="147.558" x2="44.1914" y2="161.846" gradientUnits="userSpaceOnUse">
<stop stop-color="#757575"/>
<stop offset="1"/>
</linearGradient>
<linearGradient id="paint5_linear" x1="115.997" y1="143.582" x2="123.025" y2="158.544" gradientUnits="userSpaceOnUse">
<stop stop-color="#757575"/>
<stop offset="1"/>
</linearGradient>
<radialGradient id="paint6_radial" cx="0" cy="0" r="1" gradientUnits="userSpaceOnUse" gradientTransform="translate(84.478 61.8151) scale(50.2947 56.4067)">
<stop offset="0.794" stop-color="#BFA055" stop-opacity="0"/>
<stop offset="1" stop-color="#BFA055"/>
</radialGradient>
</defs>
</svg>
