<svg width="70" height="78" viewBox="0 0 70 78" fill="none" xmlns="http://www.w3.org/2000/svg">
<path fill-rule="evenodd" clip-rule="evenodd" d="M3.88889 0C2.85749 0 1.86834 0.410892 1.13903 1.14228C0.409721 1.87368 0 2.86566 0 3.9V74.1C0 75.1343 0.409721 76.1263 1.13903 76.8577C1.86834 77.5891 2.85749 78 3.88889 78C4.92029 78 5.90944 77.5891 6.63875 76.8577C7.36806 76.1263 7.77778 75.1343 7.77778 74.1V7.8H42.7778V23.4C42.7778 24.4343 43.1875 25.4263 43.9168 26.1577C44.6461 26.8891 45.6353 27.3 46.6667 27.3H66.1111C66.8436 27.2995 67.561 27.0916 68.1808 26.7002C68.8006 26.3089 69.2976 25.7499 69.6146 25.0877C69.9316 24.4254 70.0556 23.6869 69.9724 22.9571C69.8892 22.2273 69.6022 21.5359 69.1444 20.9625L53.5889 1.4625C53.2248 1.00645 52.7632 0.638253 52.2382 0.385115C51.7131 0.131978 51.1381 0.00036508 50.5556 0H3.88889ZM50.5556 19.5V10.14L58.0222 19.5H50.5556ZM28.3306 29.9598H24.0722C23.6884 29.9556 23.3076 30.0283 22.9521 30.1736C22.5966 30.3189 22.2736 30.5338 22.0019 30.8058C21.7303 31.0779 21.5156 31.4015 21.3702 31.7578C21.2249 32.1141 21.1519 32.4959 21.1556 32.8809C21.1556 34.5111 22.4428 35.802 24.0722 35.802H28.3306C30.7937 35.8082 33.1542 36.7922 34.8959 38.5389C36.6376 40.2856 37.6188 42.6528 37.625 45.123C37.625 49.8459 33.9967 53.7888 29.3922 54.3153V56.1171C29.3922 56.9565 29.0597 57.7615 28.4679 58.355C27.8761 58.9485 27.0734 59.282 26.2364 59.282C25.3994 59.282 24.5967 58.9485 24.0049 58.355C23.413 57.7615 23.0806 56.9565 23.0806 56.1171V54.3153C21.2632 54.1124 19.5463 53.375 18.1458 52.196C16.7452 51.017 15.7236 49.449 15.2094 47.6892C15.0873 47.2751 15.0755 46.8361 15.1751 46.416C15.2747 45.9959 15.4823 45.6093 15.7772 45.2946C16.0629 44.9899 16.4084 44.7478 16.7918 44.5833C17.1753 44.4189 17.5885 44.3358 18.0056 44.3391C18.9039 44.3391 19.6544 44.7447 20.2494 45.2361C20.8406 45.7236 21.3383 46.3437 21.735 46.878C22.0062 47.2412 22.3586 47.5355 22.7638 47.7374C23.1691 47.9392 23.6159 48.0429 24.0683 48.0402H28.3306C29.9561 48.0402 31.2433 46.7532 31.2433 45.1191C31.247 44.7342 31.174 44.3523 31.0287 43.996C30.8833 43.6397 30.6686 43.3161 30.3969 43.044C30.1253 42.772 29.8023 42.5571 29.4468 42.4118C29.0913 42.2665 28.7105 42.1938 28.3267 42.198H24.0722C21.6091 42.1918 19.2486 41.2078 17.5069 39.4611C15.7652 37.7144 14.7839 35.3472 14.7778 32.877C14.7778 28.1541 18.4061 24.2112 23.0106 23.6847V21.8829C23.0106 21.0435 23.343 20.2385 23.9349 19.645C24.5267 19.0515 25.3294 18.7181 26.1664 18.7181C27.0034 18.7181 27.8061 19.0515 28.3979 19.645C28.9897 20.2385 29.3222 21.0435 29.3222 21.8829V23.6847C33.0633 24.1059 36.1667 26.7501 37.1894 30.3108C37.312 30.7249 37.324 31.1639 37.2244 31.5841C37.1247 32.0043 36.9169 32.3909 36.6217 32.7054C36.3364 33.0096 35.9916 33.2515 35.6088 33.4159C35.2261 33.5803 34.8136 33.6637 34.3972 33.6609C33.566 33.6367 32.77 33.319 32.1494 32.7639C31.5927 32.2757 31.0954 31.7232 30.6678 31.1181C30.3957 30.7551 30.0426 30.4612 29.6366 30.26C29.2307 30.0588 28.7833 29.956 28.3306 29.9598V29.9598ZM19.4444 66.3C20.4758 66.3 21.465 66.7109 22.1943 67.4423C22.9236 68.1737 23.3333 69.1657 23.3333 70.2V74.1C23.3333 75.1343 22.9236 76.1263 22.1943 76.8577C21.465 77.5891 20.4758 78 19.4444 78C18.413 78 17.4239 77.5891 16.6946 76.8577C15.9653 76.1263 15.5556 75.1343 15.5556 74.1V70.2C15.5556 69.1657 15.9653 68.1737 16.6946 67.4423C17.4239 66.7109 18.413 66.3 19.4444 66.3ZM38.8889 70.2C38.8889 69.1657 38.4792 68.1737 37.7499 67.4423C37.0206 66.7109 36.0314 66.3 35 66.3C33.9686 66.3 32.9794 66.7109 32.2501 67.4423C31.5208 68.1737 31.1111 69.1657 31.1111 70.2V74.1C31.1111 75.1343 31.5208 76.1263 32.2501 76.8577C32.9794 77.5891 33.9686 78 35 78C36.0314 78 37.0206 77.5891 37.7499 76.8577C38.4792 76.1263 38.8889 75.1343 38.8889 74.1V70.2ZM50.5556 66.3C51.587 66.3 52.5761 66.7109 53.3054 67.4423C54.0347 68.1737 54.4444 69.1657 54.4444 70.2V74.1C54.4444 75.1343 54.0347 76.1263 53.3054 76.8577C52.5761 77.5891 51.587 78 50.5556 78C49.5242 78 48.535 77.5891 47.8057 76.8577C47.0764 76.1263 46.6667 75.1343 46.6667 74.1V70.2C46.6667 69.1657 47.0764 68.1737 47.8057 67.4423C48.535 66.7109 49.5242 66.3 50.5556 66.3V66.3ZM70 39C70 37.9657 69.5903 36.9737 68.861 36.2423C68.1317 35.5109 67.1425 35.1 66.1111 35.1C65.0797 35.1 64.0906 35.5109 63.3612 36.2423C62.6319 36.9737 62.2222 37.9657 62.2222 39V74.1C62.2222 75.1343 62.6319 76.1263 63.3612 76.8577C64.0906 77.5891 65.0797 78 66.1111 78C67.1425 78 68.1317 77.5891 68.861 76.8577C69.5903 76.1263 70 75.1343 70 74.1V39Z" fill="#BDBDBD"/>
</svg>
