<svg width="246" height="379" viewBox="0 0 246 379" fill="none" xmlns="http://www.w3.org/2000/svg">
<path d="M187.953 34.369C181.063 22.9471 167.988 16.3635 153.871 17.1902C139.755 18.017 127.537 26.1318 122.055 38.3192C118.687 45.7296 117.309 54.7324 117.829 65.8174C118.319 76.29 117.738 78.9847 110.48 83.9148C99.7627 91.2333 95.1082 101.737 98.2929 111.29C101.324 120.416 110.664 126.234 122.576 126.724C123.739 126.785 124.903 126.754 126.128 126.724C151.36 125.56 170.254 114.904 182.319 95.0304C182.625 94.5098 182.87 94.1424 183.054 93.8668C193.526 78.4641 198.824 52.3745 187.953 34.369V34.369Z" fill="#312D2D"/>
<path d="M192.791 69.645C191.505 79.4439 185.656 90.0696 183.053 93.836C182.87 94.1116 182.655 94.5097 182.318 94.9997C170.254 114.873 151.36 125.56 126.128 126.724C124.934 126.785 123.77 126.785 122.606 126.754C110.695 126.264 100.987 120.538 98.3234 111.29C94.71 98.7049 102.978 89.1203 107.939 85.8132C115.563 80.73 118.626 78.2496 118.013 67.6852C122.361 107.8 190.678 79.6582 192.485 71.421C192.577 70.8392 192.699 70.2574 192.791 69.645V69.645Z" fill="url(#paint0_radial)"/>
<path d="M196.742 91.9066C198.579 90.7736 200.968 91.2329 202.193 93.009C208.623 102.318 225.741 133.338 219.249 192.437C215.023 230.806 193.282 286.201 185.902 304.145C185.655 304.751 185.265 305.287 184.766 305.709C184.266 306.131 183.672 306.425 183.033 306.567C182.395 306.708 181.732 306.693 181.101 306.522C180.47 306.35 179.89 306.029 179.41 305.584C172 298.817 153.902 287.395 120.953 295.05C110.511 297.47 77.9301 330.112 51.7486 300.715C35.5804 282.557 47.3697 271.901 47.5228 245.78C47.6759 212.158 13.839 201.838 2.78464 196.326C-0.0325517 194.918 -0.246906 191.029 2.38655 189.314C15.217 180.985 33.2225 177.065 55.8519 159.06C84.575 136.247 84.82 114.873 90.6993 107.462C93.6696 103.727 117.065 93.2233 117.065 93.2233C117.065 93.2233 133.416 97.5716 134.213 97.8778L163.395 110.77C164.559 111.198 165.875 111.076 166.947 110.402L196.742 91.9066V91.9066Z" fill="url(#paint1_linear)"/>
<path d="M204.122 219.415C220.689 168.124 208.685 125.989 208.685 125.989C208.685 125.989 160.058 143.168 159.935 145.158C159.813 147.148 128.334 222.049 128.334 222.049C128.334 222.049 105.398 284.058 76.3076 312.934C97.1609 310.668 114.033 296.674 120.954 295.081C142.665 290.029 157.884 293.275 167.897 298.021C173.378 289.294 192.486 255.457 204.122 219.415Z" fill="url(#paint2_radial)"/>
<path d="M135.314 127.336L119.789 120.293C119.789 120.293 95.1695 176.484 82.7065 195.867C70.2129 215.25 47.4917 245.78 47.4917 245.78C47.5223 271.9 35.5492 282.587 51.7481 300.746C52.8198 301.971 53.9528 303.043 55.0552 304.053C65.4359 291.59 82.5841 267.246 95.4451 248.996C130.201 199.664 135.314 127.336 135.314 127.336Z" fill="url(#paint3_linear)"/>
<path d="M244.236 68.3583C241.143 59.9373 226.016 35.7769 226.016 35.7769L208.439 44.1978L215.421 74.3907L183.972 100.572C170.97 97.5666 157.519 97.0265 144.317 98.9799C135.314 98.3062 109.715 98.6124 100.038 122.16L86.0136 155.538L74.653 159.488C71.4989 166.072 81.8491 172.012 88.4327 175.136C95.0164 178.29 100.681 175.84 106.071 168.889C109.286 164.725 116.758 153.058 122.208 144.392C123.433 153.67 124.291 165 124.352 178.78L149.86 191.059L180.91 192.376C192.24 166.746 198.089 147.24 201.059 133.429C211.317 121.854 237.897 91.7838 241.326 87.0068C245.552 81.1275 247.328 76.7792 244.236 68.3583V68.3583Z" fill="#5C3ECA"/>
<path d="M54.5961 112.025C56.4028 108.718 62.0678 106.452 66.1405 105.196C68.6208 104.431 71.2543 105.717 72.2341 108.075L78.2666 122.528C79.0015 124.304 78.6647 126.356 77.3786 127.826L71.7136 134.195C73.7959 137.012 76.3987 139.278 79.3996 141.085C84.5134 144.178 89.6272 144.055 90.1478 144.484C96.6396 149.72 101.478 155.845 97.6807 165.888C93.9143 175.871 80.9307 172.809 80.9307 172.809C80.9307 172.809 67.6103 163.439 59.0362 143.106C56.2497 136.584 50.8296 118.854 54.5961 112.025Z" fill="url(#paint4_linear)"/>
<path d="M88.4946 247.434C88.4946 247.434 71.5302 263.204 70.2747 270.278C68.1924 282.006 78.1138 292.846 83.2583 288.651C94.4352 279.587 97.4667 268.349 103.009 260.203C108.521 252.058 95.8437 239.993 88.4946 247.434Z" fill="url(#paint5_linear)"/>
<path d="M145.817 198.195L145.051 200.277C143.673 195.194 140.427 190.539 136.018 188.181C136.018 188.181 118.318 182.333 113.878 190.57C113.878 190.57 92.6575 224.009 89.2892 233.318C85.8902 242.627 86.0126 250.221 93.9743 255.151C100.405 259.101 109.04 257.202 116.94 248.23C120.493 244.188 128.699 231.848 134.946 222.263C135.926 220.732 138.284 221.926 137.641 223.641L100.527 321.355L117.094 331.889C117.094 331.889 166.394 253.099 173.652 238.033C180.909 222.906 183.481 200.828 183.481 200.828L145.817 198.195Z" fill="#5C3ECA"/>
<path opacity="0.4" d="M114.707 189.375L120.831 179.392C121.688 177.463 123.893 176.667 125.669 177.678C145.941 189.283 156.719 192.315 179.777 190.967C181.89 190.845 183.636 192.743 183.483 195.04L182.687 205.788C182.687 205.788 174.235 210.565 148.421 205.084C130.109 201.226 114.707 189.375 114.707 189.375Z" fill="#212121"/>
<path d="M181.583 204.87C155.615 206.248 139.355 201.563 116.695 189.528C114.919 188.579 114.215 186.405 115.072 184.568L118.716 176.851C119.635 174.922 121.993 174.126 123.891 175.136C145.602 186.711 157.147 189.773 181.889 188.426C184.155 188.304 186.053 190.233 185.839 192.499L185.135 201.379C184.982 203.277 183.45 204.778 181.583 204.87Z" fill="url(#paint6_linear)"/>
<path d="M158.587 198.868L151.513 203.553C150.105 204.472 148.237 204.104 147.318 202.696L142.633 195.622C142.412 195.291 142.259 194.919 142.183 194.528C142.107 194.138 142.108 193.736 142.188 193.346C142.268 192.956 142.424 192.585 142.647 192.256C142.871 191.927 143.157 191.645 143.49 191.427L150.564 186.742C150.895 186.521 151.267 186.368 151.657 186.292C152.048 186.215 152.45 186.217 152.84 186.297C153.23 186.377 153.6 186.533 153.93 186.756C154.259 186.98 154.541 187.266 154.759 187.599L159.444 194.673C160.363 196.051 159.995 197.949 158.587 198.868Z" fill="#7C7C7C"/>
<path d="M104.356 292.631C104.356 292.631 99.4255 322.212 87.2687 341.565C81.3281 349.435 71.6517 355.896 66.6298 369.4C64.3331 375.616 77.7454 381.526 88.1874 375.8C94.4648 372.34 103.958 351.211 103.958 351.211C112.348 335.961 137.335 311.648 137.335 311.648C132.527 289.294 104.356 292.631 104.356 292.631V292.631Z" fill="url(#paint7_linear)"/>
<path d="M90.6987 107.431C90.6987 107.431 108.122 85.4451 139.234 91.7225C162.353 96.377 157.484 111.229 157.484 111.229C157.484 111.229 145.818 111.32 135.314 108.901C124.689 106.452 115.227 101.521 109.592 102.103L90.6987 107.431Z" fill="#ED4132"/>
<path d="M157.484 111.229C157.484 111.229 158.924 96.1933 169.09 92.5493C179.256 88.9054 202.039 85.537 202.039 85.537C202.039 85.537 194.904 99.5004 189.392 103.91C177.756 113.219 157.484 111.229 157.484 111.229V111.229Z" fill="#ED4132"/>
<path opacity="0.4" d="M102.121 117.843C102.121 117.843 112.103 108.84 127.292 112.484C149.155 117.72 157.484 111.229 157.484 111.229C157.484 111.229 173.561 117.016 188.78 109.697C199.222 104.675 202.07 85.537 202.07 85.537L198.487 89.579C198.487 89.579 185.075 104.186 171.724 108.136C161.955 111.045 157.515 111.229 157.515 111.229C157.515 111.229 121.504 98.888 113.297 102.318C105.03 105.747 102.121 117.843 102.121 117.843V117.843Z" fill="#212121"/>
<path d="M156.872 88.9365L146.767 89.2121L147.073 97.0512C147.073 106.942 157.638 111.168 157.638 111.168C157.638 111.168 167.284 105.993 167.284 96.8981L166.977 88.6609L156.872 88.9365V88.9365Z" fill="#EDC391"/>
<path d="M156.934 98.4293C171.969 98.0312 185.443 81.5568 184.8 58.4374C184.157 35.4406 169.52 24.4474 154.913 24.8455C140.307 25.2436 126.282 37.0023 126.894 59.9991C127.537 83.1491 141.899 98.8273 156.934 98.4293V98.4293Z" fill="#F9DDBD"/>
<path d="M142.112 72.5838C144.462 72.5197 146.313 70.4942 146.247 68.0598C146.18 65.6254 144.221 63.7039 141.872 63.7681C139.522 63.8323 137.671 65.8577 137.737 68.2921C137.804 70.7265 139.762 72.648 142.112 72.5838Z" fill="#312D2D"/>
<path d="M170.497 71.7879C172.847 71.7238 174.698 69.6983 174.631 67.2639C174.565 64.8295 172.606 62.908 170.256 62.9722C167.906 63.0364 166.055 65.0618 166.122 67.4962C166.188 69.9306 168.147 71.8521 170.497 71.7879Z" fill="#312D2D"/>
<path d="M163.702 83.333C161.007 85.0478 151.973 85.2928 149.187 83.7311C147.595 82.843 146.002 84.3129 146.707 85.7215C147.38 87.0995 152.402 90.2535 156.659 90.131C160.915 90.0085 165.692 86.6095 166.274 85.1703C166.886 83.7617 165.263 82.3531 163.702 83.333V83.333Z" fill="#444444"/>
<path d="M159.169 75.5245C159.081 75.4896 158.988 75.4689 158.893 75.4633L152.769 75.647C152.677 75.647 152.585 75.6776 152.493 75.7389C151.942 75.9838 151.667 76.5656 151.942 77.1781C152.218 77.7905 153.473 79.4747 155.923 79.3828C158.373 79.3216 159.536 77.5761 159.781 76.9637C160.026 76.29 159.72 75.7082 159.169 75.5245V75.5245Z" fill="#DBA689"/>
<path d="M148.298 59.9686C147.472 58.9274 145.542 57.3963 141.898 57.4882C138.255 57.5801 136.417 59.203 135.652 60.3054C135.315 60.7953 135.407 61.3465 135.682 61.6527C135.927 61.959 136.601 62.2346 137.366 61.959C138.132 61.6834 139.571 60.8872 142.021 60.7953C144.471 60.7341 145.971 61.469 146.737 61.714C147.502 61.959 148.176 61.6527 148.39 61.3159C148.517 61.1097 148.576 60.869 148.56 60.6275C148.543 60.386 148.452 60.1557 148.298 59.9686V59.9686Z" fill="#454140"/>
<path d="M176.715 59.2031C175.888 58.1619 173.959 56.6308 170.315 56.7227C166.671 56.8146 164.834 58.4375 164.068 59.5399C163.731 60.0298 163.823 60.581 164.099 60.8872C164.344 61.1935 165.017 61.4691 165.783 61.1935C166.549 60.9179 167.988 60.1217 170.437 60.0298C172.887 59.9686 174.388 60.7035 175.153 60.9485C175.919 61.1935 176.592 60.8872 176.807 60.5504C176.99 60.2136 177.082 59.6624 176.715 59.2031V59.2031Z" fill="#454140"/>
<path d="M117.34 77.3922C117.83 65.8173 117.616 57.7944 118.198 52.8643C118.688 48.6692 123.587 18.5987 153.872 17.1901C188.474 15.5978 193.435 50.2921 193.435 50.2921L193.649 63.7656C193.649 63.7656 192.884 70.3493 189.577 78.3721C186.208 86.4256 180.819 88.5691 181.799 84.4965C182.871 79.9951 183.942 73.8401 183.667 67.8995C183.544 65.2967 183.942 55.6203 178.43 54.671C158.312 51.1189 146.553 41.0444 146.553 41.0444C143.92 47.5668 135.04 54.2729 131.855 56.7533C129.222 58.8355 129.987 66.8278 130.201 70.2574L132.131 85.8132C128.762 83.884 119.239 80.9137 117.34 77.3922V77.3922Z" fill="#312D2D"/>
<path d="M210.981 70.043C210.552 67.1952 205.132 23.6819 194.966 21.4159C194.966 21.4159 189.577 21.4771 184.065 21.9671C179.747 22.1202 176.869 20.9872 176.042 18.2312C175.031 16.149 176.072 11.4945 177.818 6.2888C179.563 1.0525 182.687 0.409445 185.167 0.348202C189.975 0.225715 198.181 5.09455 209.45 14.8322C231.13 33.5727 242.981 61.8364 242.981 61.8364C242.552 61.867 228.589 80.9443 210.981 70.043Z" fill="url(#paint8_linear)"/>
<path d="M177.998 142.527C177.844 140.18 177.329 138.274 175.653 136.312C172.298 132.386 164.588 131.733 161.134 135.512C160.533 136.068 159.965 136.737 159.394 137.537L158.103 139.347L156.812 137.537C156.239 136.738 155.669 136.068 155.068 135.512C151.616 131.733 143.905 132.385 140.55 136.312C138.873 138.275 138.357 140.181 138.203 142.527C137.985 149.504 143.175 155.091 143.816 155.907C147.338 159.939 151.181 163.751 155.083 167.263C155.789 167.867 156.399 168.366 157.009 168.865C157.376 169.158 157.737 169.452 158.102 169.743C158.465 169.452 158.827 169.158 159.191 168.865C159.803 168.366 160.413 167.867 161.117 167.263C165.021 163.751 168.863 159.939 172.386 155.907C173.028 155.088 178.219 149.501 177.998 142.527" fill="#D13852"/>
<path d="M169.086 140.076C169.082 139.695 169.018 139.317 168.894 138.953C168.781 138.62 168.615 138.305 168.401 138.018C167.146 136.33 164.414 135.722 162.131 136.15C161.241 136.346 160.349 136.653 159.938 137.431C159.798 137.765 160.093 137.926 160.546 137.905C162.188 137.737 164.006 137.888 165.459 138.535C165.82 138.697 166.158 138.889 166.468 139.115C167.51 139.854 167.96 141.003 168.166 142.142C168.671 142.049 168.948 141.492 169.013 140.997C169.076 140.694 169.1 140.385 169.086 140.076" fill="#F1A5B1"/>
<path d="M178.081 135.602C179.381 137.312 179.978 139.454 179.75 141.59C181.349 139.392 181.453 136.368 179.757 134.129C177.951 131.735 174.716 131.032 172.049 132.287C173.232 132.381 174.381 132.726 175.421 133.297C176.461 133.869 177.367 134.655 178.081 135.603" fill="#FAAE40"/>
<path d="M181.53 132.552C183.727 135.449 184.736 139.076 184.352 142.692C187.067 138.968 187.235 133.847 184.367 130.054C181.295 125.992 175.822 124.808 171.308 126.933C173.311 127.095 175.258 127.68 177.02 128.648C178.782 129.616 180.319 130.947 181.53 132.552" fill="#FAAE40"/>
<path d="M137.515 135.602C136.217 137.313 135.619 139.454 135.844 141.59C134.248 139.392 134.143 136.368 135.839 134.129C137.648 131.735 140.879 131.032 143.548 132.287C142.365 132.381 141.216 132.726 140.176 133.298C139.136 133.869 138.229 134.655 137.515 135.603" fill="#FAAE40"/>
<path d="M134.071 132.552C131.871 135.448 130.862 139.075 131.25 142.692C128.536 138.968 128.36 133.847 131.233 130.054C134.307 125.992 139.781 124.808 144.295 126.933C140.415 127.254 136.646 129.145 134.071 132.552" fill="#FAAE40"/>
<defs>
<radialGradient id="paint0_radial" cx="0" cy="0" r="1" gradientUnits="userSpaceOnUse" gradientTransform="translate(152.329 73.8096) rotate(119.788) scale(51.3693 41.0521)">
<stop offset="0.782" stop-color="#454140" stop-opacity="0"/>
<stop offset="1" stop-color="#454140"/>
</radialGradient>
<linearGradient id="paint1_linear" x1="170.827" y1="143.914" x2="83.6134" y2="260.727" gradientUnits="userSpaceOnUse">
<stop stop-color="#A52714"/>
<stop offset="0.529" stop-color="#D23F31"/>
<stop offset="1" stop-color="#ED4132"/>
</linearGradient>
<radialGradient id="paint2_radial" cx="0" cy="0" r="1" gradientUnits="userSpaceOnUse" gradientTransform="translate(156.462 187.802) rotate(20.5788) scale(56.8926 110.247)">
<stop stop-color="#212121"/>
<stop offset="0.999" stop-color="#212121" stop-opacity="0"/>
</radialGradient>
<linearGradient id="paint3_linear" x1="63.1577" y1="162.48" x2="108.153" y2="240.161" gradientUnits="userSpaceOnUse">
<stop stop-color="#212121"/>
<stop offset="0.999" stop-color="#212121" stop-opacity="0"/>
</linearGradient>
<linearGradient id="paint4_linear" x1="81.4084" y1="154.898" x2="61.3267" y2="111.315" gradientUnits="userSpaceOnUse">
<stop stop-color="#A52714"/>
<stop offset="0.529" stop-color="#D23F31"/>
<stop offset="1" stop-color="#DB4437"/>
</linearGradient>
<linearGradient id="paint5_linear" x1="95.9938" y1="251.057" x2="80.683" y2="274.789" gradientUnits="userSpaceOnUse">
<stop offset="0.001" stop-color="#851F10"/>
<stop offset="0.841" stop-color="#A52714"/>
</linearGradient>
<linearGradient id="paint6_linear" x1="119.179" y1="184.981" x2="185.383" y2="199.45" gradientUnits="userSpaceOnUse">
<stop stop-color="#D32F2F"/>
<stop offset="0.23" stop-color="#F44336"/>
<stop offset="0.742" stop-color="#F44336"/>
<stop offset="1" stop-color="#D32F2F"/>
</linearGradient>
<linearGradient id="paint7_linear" x1="129.582" y1="301.12" x2="61.2526" y2="369.449" gradientUnits="userSpaceOnUse">
<stop stop-color="#A52714"/>
<stop offset="0.529" stop-color="#D23F31"/>
<stop offset="1" stop-color="#ED4132"/>
</linearGradient>
<linearGradient id="paint8_linear" x1="228.399" y1="66.9839" x2="186.113" y2="3.02759" gradientUnits="userSpaceOnUse">
<stop stop-color="#A52714"/>
<stop offset="0.529" stop-color="#D23F31"/>
<stop offset="1" stop-color="#DB4437"/>
</linearGradient>
</defs>
</svg>
