<svg width="70" height="55" viewBox="0 0 70 55" fill="none" xmlns="http://www.w3.org/2000/svg">
<path fill-rule="evenodd" clip-rule="evenodd" d="M14 0C10.287 0 6.72601 1.44866 4.10051 4.02728C1.475 6.60591 0 10.1033 0 13.75V41.25C0 44.8967 1.475 48.3941 4.10051 50.9727C6.72601 53.5513 10.287 55 14 55H38.5C39.4283 55 40.3185 54.6378 40.9749 53.9932C41.6313 53.3485 42 52.4742 42 51.5625C42 50.6508 41.6313 49.7765 40.9749 49.1318C40.3185 48.4872 39.4283 48.125 38.5 48.125H14C12.1435 48.125 10.363 47.4007 9.05025 46.1114C7.7375 44.822 7 43.0734 7 41.25V24.0625H63V41.25C63 43.0734 62.2625 44.822 60.9497 46.1114C59.637 47.4007 57.8565 48.125 56 48.125H52.5C51.5717 48.125 50.6815 48.4872 50.0251 49.1318C49.3687 49.7765 49 50.6508 49 51.5625C49 52.4742 49.3687 53.3485 50.0251 53.9932C50.6815 54.6378 51.5717 55 52.5 55H56C59.713 55 63.274 53.5513 65.8995 50.9727C68.525 48.3941 70 44.8967 70 41.25V13.75C70 10.1033 68.525 6.60591 65.8995 4.02728C63.274 1.44866 59.713 0 56 0H14ZM63 17.1875V13.75C63 11.9266 62.2625 10.178 60.9497 8.88864C59.637 7.59933 57.8565 6.875 56 6.875H14C12.1435 6.875 10.363 7.59933 9.05025 8.88864C7.7375 10.178 7 11.9266 7 13.75V17.1875H63ZM42 41.25C42.9283 41.25 43.8185 40.8878 44.4749 40.2432C45.1313 39.5985 45.5 38.7242 45.5 37.8125C45.5 36.9008 45.1313 36.0265 44.4749 35.3818C43.8185 34.7372 42.9283 34.375 42 34.375C41.0717 34.375 40.1815 34.7372 39.5251 35.3818C38.8687 36.0265 38.5 36.9008 38.5 37.8125C38.5 38.7242 38.8687 39.5985 39.5251 40.2432C40.1815 40.8878 41.0717 41.25 42 41.25V41.25ZM14 37.8125C14 36.9008 14.3687 36.0265 15.0251 35.3818C15.6815 34.7372 16.5717 34.375 17.5 34.375H31.5C32.4283 34.375 33.3185 34.7372 33.9749 35.3818C34.6313 36.0265 35 36.9008 35 37.8125C35 38.7242 34.6313 39.5985 33.9749 40.2432C33.3185 40.8878 32.4283 41.25 31.5 41.25H17.5C16.5717 41.25 15.6815 40.8878 15.0251 40.2432C14.3687 39.5985 14 38.7242 14 37.8125Z" fill="#BDBDBD"/>
</svg>
