<svg width="168" height="168" viewBox="0 0 168 168" fill="none" xmlns="http://www.w3.org/2000/svg">
<path d="M131.25 10.7625C131.25 5.5125 125.737 0 119.962 0H48.0375C42.2625 0 36.75 5.5125 36.75 10.7625V156.975C36.75 162.488 42.2625 167.738 48.0375 167.738H120.225C125.737 167.738 131.512 162.225 131.512 156.975V10.7625H131.25Z" fill="#5C6D6D"/>
<path d="M128.625 154.875C128.625 160.125 123.375 165.375 118.125 165.375H49.875C44.625 165.375 39.375 160.125 39.375 154.875V13.125C39.375 7.875 44.625 2.625 49.875 2.625H118.125C123.375 2.625 128.625 7.875 128.625 13.125V154.875Z" fill="#212528"/>
<path d="M114.188 14.4375C115.637 14.4375 116.812 13.2622 116.812 11.8125C116.812 10.3628 115.637 9.1875 114.188 9.1875C112.738 9.1875 111.562 10.3628 111.562 11.8125C111.562 13.2622 112.738 14.4375 114.188 14.4375Z" fill="#94989B"/>
<path d="M91.875 11.8125C91.875 12.6 91.6125 13.125 91.0875 13.125H76.9125C76.3875 13.125 76.125 12.6 76.125 11.8125C76.125 11.2875 76.3875 10.5 76.9125 10.5H91.0875C91.6125 10.5 91.875 11.2875 91.875 11.8125Z" fill="#94989B"/>
<path d="M44.625 21H123.375V147H44.625V21Z" fill="#3E4347"/>
<path d="M93.9754 158.025C93.9754 159.075 93.1879 160.125 91.8754 160.125H76.1254C75.0754 160.125 74.0254 159.337 74.0254 158.025V154.087C74.0254 153.037 74.8129 151.987 76.1254 151.987H91.8754C92.9254 151.987 93.9754 152.775 93.9754 154.087V158.025Z" fill="#94989B"/>
<path d="M63.0007 38.5877C63.0007 39.9002 61.9507 40.6877 60.9007 40.6877H52.2382C50.9257 40.6877 50.1382 39.6377 50.1382 38.5877V29.9252C50.1382 28.6127 51.1882 27.8252 52.2382 27.8252H60.9007C62.2132 27.8252 63.0007 28.8752 63.0007 29.9252V38.5877Z" fill="#42ADE2"/>
<path d="M81.3757 38.5877C81.3757 39.9002 80.3257 40.6877 79.2757 40.6877H70.6132C69.3007 40.6877 68.5132 39.6377 68.5132 38.5877V29.9252C68.5132 28.6127 69.5632 27.8252 70.6132 27.8252H79.2757C80.5882 27.8252 81.3757 28.8752 81.3757 29.9252V38.5877Z" fill="#C7E755"/>
<path d="M99.7497 38.5877C99.7497 39.9002 98.6997 40.6877 97.6497 40.6877H88.9872C87.6747 40.6877 86.8872 39.6377 86.8872 38.5877V29.9252C86.8872 28.6127 87.9372 27.8252 88.9872 27.8252H97.6497C98.9622 27.8252 99.7497 28.8752 99.7497 29.9252V38.5877Z" fill="#F2B200"/>
<path d="M118.126 38.5877C118.126 39.9002 117.076 40.6877 116.026 40.6877H107.363C106.051 40.6877 105.263 39.6377 105.263 38.5877V29.9252C105.263 28.6127 106.313 27.8252 107.363 27.8252H116.026C117.338 27.8252 118.126 28.8752 118.126 29.9252V38.5877Z" fill="#42ADE2"/>
<path d="M63.0007 139.65C63.0007 140.963 61.9507 141.75 60.9007 141.75H52.2382C50.9257 141.75 50.1382 140.7 50.1382 139.65V130.988C50.1382 129.675 51.1882 128.888 52.2382 128.888H60.9007C62.2132 128.888 63.0007 129.938 63.0007 130.988V139.65Z" fill="#C7E755"/>
<path d="M81.3757 139.65C81.3757 140.963 80.3257 141.75 79.2757 141.75H70.6132C69.3007 141.75 68.5132 140.7 68.5132 139.65V130.988C68.5132 129.675 69.5632 128.888 70.6132 128.888H79.2757C80.5882 128.888 81.3757 129.938 81.3757 130.988V139.65Z" fill="#FF435E"/>
<path d="M99.7497 139.65C99.7497 140.963 98.6997 141.75 97.6497 141.75H88.9872C87.6747 141.75 86.8872 140.7 86.8872 139.65V130.988C86.8872 129.675 87.9372 128.888 88.9872 128.888H97.6497C98.9622 128.888 99.7497 129.938 99.7497 130.988V139.65Z" fill="#42ADE2"/>
<path d="M118.126 139.65C118.126 140.963 117.076 141.75 116.026 141.75H107.363C106.051 141.75 105.263 140.7 105.263 139.65V130.988C105.263 129.675 106.313 128.888 107.363 128.888H116.026C117.338 128.888 118.126 129.938 118.126 130.988V139.65Z" fill="#C28FEF"/>
<path d="M63.0007 88.9879C63.0007 90.3004 61.9507 91.0879 60.9007 91.0879H52.2382C50.9257 91.0879 50.1382 90.0379 50.1382 88.9879V80.3253C50.1382 79.0128 51.1882 78.2253 52.2382 78.2253H60.9007C62.2132 78.2253 63.0007 79.2753 63.0007 80.3253V88.9879Z" fill="#C7E755"/>
<path d="M81.3757 88.9879C81.3757 90.3004 80.3257 91.0879 79.2757 91.0879H70.6132C69.3007 91.0879 68.5132 90.0379 68.5132 88.9879V80.3253C68.5132 79.0128 69.5632 78.2253 70.6132 78.2253H79.2757C80.5882 78.2253 81.3757 79.2753 81.3757 80.3253V88.9879Z" fill="#C28FEF"/>
<path d="M99.7497 88.9879C99.7497 90.3004 98.6997 91.0879 97.6497 91.0879H88.9872C87.6747 91.0879 86.8872 90.0379 86.8872 88.9879V80.3253C86.8872 79.0128 87.9372 78.2253 88.9872 78.2253H97.6497C98.9622 78.2253 99.7497 79.2753 99.7497 80.3253V88.9879Z" fill="#42ADE2"/>
<path d="M63.0007 72.1873C63.0007 73.4998 61.9507 74.2873 60.9007 74.2873H52.2382C50.9257 74.2873 50.1382 73.2373 50.1382 72.1873V63.5248C50.1382 62.2123 51.1882 61.4248 52.2382 61.4248H60.9007C62.2132 61.4248 63.0007 62.4748 63.0007 63.5248V72.1873Z" fill="#FF435E"/>
<path d="M81.3757 72.1873C81.3757 73.4998 80.3257 74.2873 79.2757 74.2873H70.6132C69.3007 74.2873 68.5132 73.2373 68.5132 72.1873V63.5248C68.5132 62.2123 69.5632 61.4248 70.6132 61.4248H79.2757C80.5882 61.4248 81.3757 62.4748 81.3757 63.5248V72.1873Z" fill="#F2B200"/>
<path d="M99.7497 72.1873C99.7497 73.4998 98.6997 74.2873 97.6497 74.2873H88.9872C87.6747 74.2873 86.8872 73.2373 86.8872 72.1873V63.5248C86.8872 62.2123 87.9372 61.4248 88.9872 61.4248H97.6497C98.9622 61.4248 99.7497 62.4748 99.7497 63.5248V72.1873Z" fill="#C7E755"/>
<path d="M118.126 72.1873C118.126 73.4998 117.076 74.2873 116.026 74.2873H107.363C106.051 74.2873 105.263 73.2373 105.263 72.1873V63.5248C105.263 62.2123 106.313 61.4248 107.363 61.4248H116.026C117.338 61.4248 118.126 62.4748 118.126 63.5248V72.1873Z" fill="#F2B200"/>
<path d="M63.0007 55.3875C63.0007 56.7 61.9507 57.4875 60.9007 57.4875H52.2382C50.9257 57.4875 50.1382 56.4375 50.1382 55.3875V46.725C50.1382 45.4125 51.1882 44.625 52.2382 44.625H60.9007C62.2132 44.625 63.0007 45.675 63.0007 46.725V55.3875Z" fill="#C28FEF"/>
<path d="M81.3757 55.3875C81.3757 56.7 80.3257 57.4875 79.2757 57.4875H70.6132C69.3007 57.4875 68.5132 56.4375 68.5132 55.3875V46.725C68.5132 45.4125 69.5632 44.625 70.6132 44.625H79.2757C80.5882 44.625 81.3757 45.675 81.3757 46.725V55.3875Z" fill="#42ADE2"/>
<path d="M99.7497 55.3875C99.7497 56.7 98.6997 57.4875 97.6497 57.4875H88.9872C87.6747 57.4875 86.8872 56.4375 86.8872 55.3875V46.725C86.8872 45.4125 87.9372 44.625 88.9872 44.625H97.6497C98.9622 44.625 99.7497 45.675 99.7497 46.725V55.3875Z" fill="#FF435E"/>
<path d="M118.126 55.3875C118.126 56.7 117.076 57.4875 116.026 57.4875H107.363C106.051 57.4875 105.263 56.4375 105.263 55.3875V46.725C105.263 45.4125 106.313 44.625 107.363 44.625H116.026C117.338 44.625 118.126 45.675 118.126 46.725V55.3875Z" fill="#C28FEF"/>
</svg>
