<svg width="68" height="61" viewBox="0 0 68 61" fill="none" xmlns="http://www.w3.org/2000/svg">
<path fill-rule="evenodd" clip-rule="evenodd" d="M48.5965 0.992244C49.2341 0.35691 50.0988 0 51.0004 0C51.9019 0 52.7666 0.35691 53.4042 0.992244L67.0045 14.5481C67.6419 15.1836 68 16.0455 68 16.9441C68 17.8428 67.6419 18.7046 67.0045 19.3401L53.4042 32.896C52.763 33.5133 51.9041 33.8549 51.0126 33.8472C50.1211 33.8395 49.2683 33.4831 48.6379 32.8547C48.0075 32.2264 47.6499 31.3764 47.6422 30.4878C47.6344 29.5992 47.9772 28.7432 48.5965 28.104L56.3929 20.3331H30.5999C29.6982 20.3331 28.8334 19.976 28.1957 19.3405C27.5581 18.7049 27.1999 17.8429 27.1999 16.9441C27.1999 16.0453 27.5581 15.1833 28.1957 14.5478C28.8334 13.9122 29.6982 13.5552 30.5999 13.5552H56.3929L48.5965 5.78425C47.9591 5.14872 47.601 4.28688 47.601 3.38825C47.601 2.48961 47.9591 1.62777 48.5965 0.992244V0.992244ZM19.4035 60.0078C18.7659 60.6431 17.9012 61 16.9996 61C16.0981 61 15.2334 60.6431 14.5958 60.0078L0.995495 46.4519C0.35808 45.8164 0 44.9545 0 44.0559C0 43.1572 0.35808 42.2954 0.995495 41.6599L14.5958 28.104C15.237 27.4867 16.0959 27.1451 16.9874 27.1528C17.8789 27.1605 18.7317 27.5169 19.3621 28.1453C19.9925 28.7736 20.3501 29.6236 20.3578 30.5122C20.3655 31.4008 20.0228 32.2568 19.4035 32.896L11.6071 40.6669H37.4001C38.3018 40.6669 39.1666 41.024 39.8043 41.6595C40.4419 42.2951 40.8001 43.1571 40.8001 44.0559C40.8001 44.9547 40.4419 45.8167 39.8043 46.4522C39.1666 47.0878 38.3018 47.4448 37.4001 47.4448H11.6071L19.4035 55.2158C20.0409 55.8513 20.399 56.7131 20.399 57.6118C20.399 58.5104 20.0409 59.3722 19.4035 60.0078Z" fill="#BDBDBD"/>
</svg>
