<svg width="32" height="40" viewBox="0 0 32 40" fill="none" xmlns="http://www.w3.org/2000/svg">
<path fill-rule="evenodd" clip-rule="evenodd" d="M12 2C12 1.46957 12.2107 0.960859 12.5858 0.585786C12.9609 0.210714 13.4696 0 14 0H16C18.6522 0 21.1957 1.05357 23.0711 2.92893C24.9464 4.8043 26 7.34784 26 10V12C27.5913 12 29.1174 12.6321 30.2426 13.7574C31.3679 14.8826 32 16.4087 32 18V24C32 24.5304 31.7893 25.0391 31.4142 25.4142C31.0391 25.7893 30.5304 26 30 26C29.4696 26 28.9609 25.7893 28.5858 25.4142C28.2107 25.0391 28 24.5304 28 24V18C28 17.4696 27.7893 16.9609 27.4142 16.5858C27.0391 16.2107 26.5304 16 26 16H6C5.46957 16 4.96086 16.2107 4.58579 16.5858C4.21071 16.9609 4 17.4696 4 18V34C4 34.5304 4.21071 35.0391 4.58579 35.4142C4.96086 35.7893 5.46957 36 6 36H26C26.5304 36 27.0391 35.7893 27.4142 35.4142C27.7893 35.0391 28 34.5304 28 34V32C28 31.4696 28.2107 30.9609 28.5858 30.5858C28.9609 30.2107 29.4696 30 30 30C30.5304 30 31.0391 30.2107 31.4142 30.5858C31.7893 30.9609 32 31.4696 32 32V34C32 35.5913 31.3679 37.1174 30.2426 38.2426C29.1174 39.3679 27.5913 40 26 40H6C4.4087 40 2.88258 39.3679 1.75736 38.2426C0.632141 37.1174 0 35.5913 0 34V18C0 16.4087 0.632141 14.8826 1.75736 13.7574C2.88258 12.6321 4.4087 12 6 12H22V10C22 8.4087 21.3679 6.88258 20.2426 5.75736C19.1174 4.63214 17.5913 4 16 4H14C13.4696 4 12.9609 3.78929 12.5858 3.41421C12.2107 3.03914 12 2.53043 12 2ZM12 24C12 23.2978 12.1848 22.6081 12.5359 22C12.8869 21.3919 13.3919 20.8869 13.9999 20.5358C14.608 20.1847 15.2978 19.9999 15.9999 19.9999C16.7021 19.9999 17.3919 20.1847 18 20.5358C18.608 20.8868 19.113 21.3918 19.4641 21.9999C19.8152 22.6079 20 23.2977 20 23.9999C20 24.702 19.8152 25.3918 19.4641 25.9999C19.113 26.608 18.6081 27.1129 18 27.464V30C18 30.5304 17.7893 31.0391 17.4142 31.4142C17.0391 31.7893 16.5304 32 16 32C15.4696 32 14.9609 31.7893 14.5858 31.4142C14.2107 31.0391 14 30.5304 14 30V27.464C13.3919 27.1129 12.887 26.608 12.5359 25.9999C12.1849 25.3919 12 24.7021 12 24V24Z" fill="#6200EE"/>
</svg>
