<svg width="169" height="168" viewBox="0 0 169 168" fill="none" xmlns="http://www.w3.org/2000/svg">
<path d="M43.3598 43.2607C42.8317 42.7619 42.0395 42.6701 41.3134 42.6438C39.9798 42.6176 38.6199 42.7619 37.3392 42.4338C36.0453 42.1057 34.791 41.1607 34.6326 39.8482C34.5534 39.2444 34.6986 38.5619 34.3157 38.0894C33.9064 37.5907 33.167 37.6169 32.5333 37.5251C31.1469 37.3282 29.9059 36.3176 29.4305 35.0051C29.1665 34.2963 29.1137 33.4826 28.6119 32.9051C27.6745 31.8026 25.8261 32.2226 24.5586 31.5138C23.2779 30.7919 22.9346 29.1382 22.2876 27.8257C21.8649 26.972 21.2763 26.2099 20.5556 25.5837C19.835 24.9574 18.9966 24.4793 18.0891 24.1769C17.7326 24.0588 17.3497 23.9801 16.9932 24.1113C16.4651 24.3082 16.1614 24.9513 15.6069 25.0038C14.5374 25.1088 14.0357 23.0351 13.0455 23.4419C12.8342 23.5207 12.7022 23.7044 12.5437 23.8619C11.3555 25.0301 8.9921 24.4657 8.47718 22.8907C8.38476 22.6282 8.34515 22.3263 8.46398 22.0769C8.79406 21.3288 10.0352 21.4994 10.5105 20.83C10.9858 20.1475 10.2068 19.1894 9.37499 19.0582C8.5432 18.9269 7.6982 19.2288 6.8664 19.2157C5.86296 19.1894 4.83312 18.5988 4.48984 17.6538C4.14656 16.7088 4.72749 15.4882 5.71773 15.3044C6.35148 15.1863 7.01163 15.475 7.63218 15.3044C8.39796 15.1075 8.82046 14.3069 9.04492 13.5588C9.25617 12.8107 9.37499 11.9969 9.85031 11.38C10.7349 10.2644 12.7682 10.435 13.4548 11.6688C13.9037 12.4957 13.9169 13.7032 14.8015 14.0444C15.4088 14.2807 16.0954 13.9132 16.5575 13.4538C17.0196 12.9944 17.4025 12.43 17.9834 12.1282C19.2641 11.4588 20.8485 12.4038 21.6407 13.5982C22.4329 14.7925 22.8026 16.2494 23.6872 17.3913C24.6378 18.6119 26.1562 19.36 27.7009 19.36C29.1929 19.3732 30.8037 18.7432 32.124 19.4388C34.4609 20.6725 33.5631 24.6363 35.636 26.2901C36.8639 27.2744 38.6463 27.0382 40.2043 27.3794C42.0395 27.7863 43.6371 29.0988 44.4821 30.7657C45.3403 32.4326 45.4723 34.4276 44.9838 36.2388C44.5481 37.8401 43.6899 39.6776 44.667 41.0163C45.6308 42.3419 47.8225 42.2632 48.7995 43.5757C50.001 45.1901 49.4069 49.5738 46.7266 49.1013C43.3334 48.5238 45.0894 44.9013 43.3598 43.2607V43.2607Z" fill="url(#paint0_linear)"/>
<path d="M36.8621 47.1061C36.5848 46.358 35.951 45.4392 35.2249 45.7673C34.8948 45.9117 34.7099 46.2792 34.3931 46.4498C33.7329 46.8042 32.9935 46.1611 32.5578 45.5573C32.1221 44.9536 31.5016 44.258 30.7754 44.4548C29.8776 44.7042 29.7984 46.1348 28.9138 46.4236C27.9896 46.7255 27.3294 45.5705 26.6164 44.9142C25.8374 44.1923 24.6096 43.9823 23.6325 44.4155C22.6555 44.8486 22.0085 45.8986 22.0349 46.9617C22.0482 47.2373 22.101 47.5261 22.3122 47.7098C22.5895 47.9723 23.0252 47.9198 23.4081 47.9198C24.5039 47.9067 25.7846 48.7992 25.481 49.8492C25.1377 51.0042 23.3289 50.8861 22.4707 50.033C21.6124 49.1798 21.2164 47.933 20.3317 47.1192C19.4471 46.3055 17.5855 46.3317 17.3874 47.5261C17.295 48.038 17.5459 48.668 17.1498 49.0223C16.4368 49.6655 15.2749 48.0905 14.4696 48.6155C13.6774 49.1405 14.7864 50.4923 14.2715 51.2798C14.0999 51.5423 13.7962 51.6605 13.5321 51.818C12.1986 52.6055 11.7365 54.5611 12.5815 55.8473C13.4265 57.1336 15.4202 57.5011 16.6745 56.5955C17.361 56.1098 17.7967 55.3355 18.4569 54.8105C19.1171 54.2855 20.2261 54.1017 20.7146 54.7842C21.1503 55.3748 20.8599 56.1886 20.8863 56.9105C20.9259 58.1311 22.4707 59.2205 23.4213 58.4592C24.0286 57.9736 24.1871 56.9761 24.9264 56.753C25.4678 56.5955 26.0355 56.9761 26.3392 57.4486C26.6428 57.9211 26.7749 58.4855 27.0389 58.9842C27.9632 60.7036 30.6434 61.1367 32.0825 59.798C33.5085 58.4592 33.2312 55.7686 31.5544 54.7448C30.5378 54.128 29.0326 53.8917 28.7817 52.7367C27.9103 48.7336 38.9482 52.8417 36.8621 47.1061V47.1061Z" fill="url(#paint1_linear)"/>
<path d="M24.9134 38.5739C26.1941 38.0357 27.3692 39.2957 28.0161 37.6813C29.2968 34.5182 22.9461 33.5338 21.3617 35.2663C21.1241 35.5288 20.9524 35.8307 20.8336 36.1588C20.4639 37.0907 20.4507 38.2064 21.0317 39.0332C22.4708 41.107 23.5931 39.1251 24.9134 38.5739V38.5739Z" fill="url(#paint2_linear)"/>
<path d="M15.6183 32.7073C15.407 32.681 15.2222 32.9566 15.341 33.1404C16.6085 33.416 17.9156 33.4816 19.2095 33.3635C19.7244 33.311 20.2526 33.2323 20.6751 32.9304C21.0976 32.6285 21.3748 32.0773 21.1768 31.5916C20.9523 31.0273 20.2394 30.8435 19.6188 30.8173C18.1401 30.7648 16.6613 31.1979 15.4466 32.0248L15.6183 32.7073V32.7073Z" fill="url(#paint3_linear)"/>
<path d="M13.3096 37.8136C13.6528 37.1836 13.2435 36.3042 12.557 36.0811C11.8704 35.858 11.065 36.2911 10.8142 36.9605C10.6293 37.4592 10.7878 38.1286 11.2763 38.3255C11.2895 38.3386 12.9795 38.4436 13.3096 37.8136V37.8136Z" fill="url(#paint4_linear)"/>
<path d="M42.7001 52.028C42.3172 51.608 39.5842 51.5423 38.9636 51.7917C38.2507 52.0673 37.6565 52.5398 37.0624 53.0123C36.6135 53.3667 36.1382 53.7473 35.8741 54.2723C35.61 54.7973 35.6232 55.493 36.0457 55.8736C36.5343 56.3198 37.3529 56.1755 37.881 55.7686C38.4091 55.3617 38.7524 54.7711 39.1881 54.2723C39.6238 53.7736 40.2179 53.3142 40.8913 53.3798C41.5118 53.4455 44.0336 53.5242 42.7001 52.028Z" fill="url(#paint5_linear)"/>
<path d="M56.9859 40.2681C57.963 39.8087 58.6627 38.8506 59.4285 37.9844C60.63 36.6063 61.8843 35.0838 61.9767 33.2725C61.9899 32.905 61.9371 32.485 61.6466 32.2619C61.5014 32.1438 61.3166 32.1044 61.1317 32.0781C59.3361 31.8288 57.9366 33.6138 57.3028 35.3069C56.7747 36.7375 55.9957 38.9556 56.9859 40.2681V40.2681Z" fill="url(#paint6_linear)"/>
<path d="M56.9182 30.0174C57.5123 29.0987 58.9382 28.8231 59.2683 27.7862C58.6214 27.4318 57.7104 27.6812 57.3275 28.3112C57.1558 28.5868 57.0634 28.9412 56.7729 29.0987C56.4957 29.2431 56.1128 29.1381 55.8487 29.2956C54.9113 29.8599 54.2908 32.5768 55.4262 33.2987C56.8258 34.1912 56.4693 30.7131 56.9182 30.0174Z" fill="url(#paint7_linear)"/>
<path d="M58.3969 23.1131C58.7006 23.3363 59.1099 23.4281 59.44 23.2837C59.7701 23.1525 59.9813 22.8244 60.1398 22.4962C60.5226 21.6956 60.6943 20.7769 60.5226 19.9106C60.3378 19.0444 59.7833 18.2306 58.9779 17.85C58.8237 17.7668 58.6516 17.7218 58.4762 17.7188C58.0405 17.7319 57.7368 18.1519 57.5783 18.5456C57.037 19.8581 57.1426 22.2075 58.3969 23.1131V23.1131Z" fill="url(#paint8_linear)"/>
<path d="M54.1206 18.3353C55.0712 17.9941 55.4013 16.1697 54.5167 15.6184C54.1734 15.4084 53.6981 15.6316 53.5132 15.9728C53.1964 16.5766 52.9851 18.7422 54.1206 18.3353Z" fill="url(#paint9_linear)"/>
<path d="M45.9335 14.0954C45.9203 13.4654 45.775 12.8485 45.709 12.2185C45.5242 10.5122 45.9203 8.77975 46.5804 7.1785C46.8181 6.58787 47.1085 5.95787 46.9501 5.341C46.7125 4.46162 45.6958 4.05475 44.798 3.88412C44.4151 3.8185 44.0058 3.766 43.6493 3.93662C43.24 4.1335 43.0288 4.57975 42.8439 4.98662C42.4743 5.80037 42.1046 6.706 42.3422 7.55912C42.5007 8.16287 42.9496 8.66162 43.174 9.23912C43.9134 11.1685 42.329 13.1897 43.1608 15.1454C44.0454 17.2322 45.9599 15.9197 45.9335 14.0954V14.0954Z" fill="url(#paint10_linear)"/>
<path d="M54.2115 37.6684C54.2511 37.2353 54.2247 36.789 54.0002 36.4215C53.7758 36.054 53.2873 35.8178 52.9044 35.9884C52.6271 36.1065 52.4687 36.3953 52.3499 36.6709C51.9802 37.5634 51.7029 39.1253 52.6931 39.7815C53.8682 40.569 54.1455 38.4297 54.2115 37.6684V37.6684Z" fill="url(#paint11_linear)"/>
<path d="M36.8496 21.6305C36.9684 21.8537 37.1797 22.0505 37.4306 22.103C37.9455 22.2212 38.3944 21.7618 38.6848 21.3287C39.3582 20.3312 39.8203 19.1893 39.9259 17.9949C40.0316 16.8005 39.7543 15.5537 39.0545 14.5824C38.4604 13.7555 37.5494 13.073 37.4041 12.0755C37.2853 11.2749 37.6946 10.5005 38.0247 9.76554C38.3548 9.03054 38.6188 8.13804 38.2095 7.42929C38.0379 7.11429 37.7474 6.87804 37.4702 6.66804C37.3241 6.54531 37.1529 6.45573 36.9684 6.40554C36.4667 6.28741 35.9914 6.68116 35.6877 7.10116C34.7239 8.49241 34.8031 10.3693 35.3445 11.9705C35.5425 12.5743 35.8066 13.178 35.7141 13.808C35.5689 14.7137 35.0672 15.4355 35.7802 16.2624C36.2423 16.7874 37.0477 16.7349 37.4834 17.2074C38.5132 18.3493 36.0838 20.2262 36.8496 21.6305V21.6305Z" fill="url(#paint12_linear)"/>
<path d="M25.745 13.2559C26.6956 12.1665 25.3357 10.9984 24.9396 10.0403C24.8208 9.73841 24.768 9.42341 24.6888 9.12154C24.4822 8.30413 24.1042 7.53931 23.5797 6.87716C23.1968 6.39154 22.6423 5.93216 22.0349 6.01091C21.8765 6.02404 21.7313 6.07654 21.5728 6.07654C20.8202 6.07654 20.4374 4.96091 19.6716 4.94778C19.2095 4.93466 18.8398 5.39403 18.787 5.85341C18.7342 6.31279 18.919 6.75904 19.117 7.17904C19.5395 8.07154 20.0677 8.95091 20.9259 9.44966C21.7049 9.90904 22.7611 10.0665 23.2364 10.8278C23.4873 11.2215 23.5269 11.694 23.6061 12.1534C23.7645 13.1378 24.8208 14.3322 25.745 13.2559Z" fill="url(#paint13_linear)"/>
<path d="M19.3441 43.5356C19.4101 42.9843 19.0008 42.4987 18.5651 42.1706C18.1162 41.8293 17.5881 41.5537 17.0204 41.5143C15.6076 41.4093 14.5118 43.2468 15.8453 44.1131C16.7035 44.6512 19.1725 44.9268 19.3441 43.5356Z" fill="url(#paint14_linear)"/>
<path d="M52.166 59.2585C51.9944 59.4423 51.9019 59.7048 51.8755 59.9542C51.8359 60.3348 51.9548 60.7679 52.2584 61.0041C52.5357 61.2141 52.9714 61.201 53.2091 60.9648C53.658 60.7548 53.6316 60.1904 53.5127 59.7573C53.4599 59.521 53.3807 59.2716 53.1959 59.1273C52.945 58.9304 52.5621 58.9567 52.298 59.1404C52.2584 59.1667 52.2188 59.2192 52.166 59.2585V59.2585Z" fill="url(#paint15_linear)"/>
<path opacity="0.2" d="M52.786 58.9838C52.6693 58.9826 52.5539 59.0079 52.4486 59.058C52.3433 59.1081 52.251 59.1815 52.1787 59.2726C52.0071 59.4563 51.9146 59.7188 51.8882 59.9682C51.8486 60.3488 51.9675 60.7819 52.2711 61.0182C52.4032 61.1232 52.5748 61.1626 52.7332 61.1626C52.9181 61.1626 53.0897 61.0969 53.2218 60.9788C53.6707 60.7688 53.6443 60.2044 53.5254 59.7713C53.4726 59.5351 53.3934 59.2857 53.2085 59.1413C53.1521 59.0886 53.0857 59.0475 53.0132 59.0204C52.9407 58.9934 52.8635 58.9809 52.786 58.9838Z" fill="#424242"/>
<path d="M48.7455 37.551C49.0756 36.816 49.6433 36.2253 50.1186 35.5822C50.8844 34.5322 51.4125 33.2328 51.3729 31.9203C51.3465 30.9885 51.0429 30.0435 51.2937 29.151C51.5578 28.1928 52.3632 27.5497 52.9309 26.7753C53.6175 25.8435 54.0004 24.636 53.9739 23.4416C53.9607 22.6147 53.6967 21.7091 53.0233 21.3285C52.6536 21.1053 52.1915 21.0791 51.8086 20.8822C51.1089 20.5147 50.7656 19.596 50.7392 18.7428C50.7128 17.8897 50.9372 17.0235 51.0825 16.1703C51.1485 15.7503 51.2013 15.3041 51.0561 14.9235C50.8976 14.5297 50.5543 14.2804 50.2243 14.0441C49.6565 13.6241 49.0624 13.2041 48.389 13.0204C47.7157 12.8366 46.9367 12.9154 46.4086 13.4272C45.5372 14.2672 45.6956 15.7635 46.0785 16.9185C46.4614 18.0735 47.0027 19.3203 46.6462 20.5016C46.3822 21.381 45.6956 22.011 45.2467 22.7985C44.5733 23.9928 44.5205 25.4891 44.877 26.8016C45.2335 28.1141 45.9597 29.256 46.7915 30.2797C47.2668 30.8703 47.7949 31.4347 48.0854 32.1435C48.904 34.1778 47.6629 36.501 47.4252 38.7322C47.2668 40.281 47.8609 40.7928 48.8511 41.4622C49.5773 41.9478 49.2868 41.541 49.5113 42.4728C49.6169 42.8666 49.4189 43.1685 49.7093 43.4835C51.637 41.2785 47.7685 39.7035 48.7455 37.551V37.551Z" fill="url(#paint16_linear)"/>
<path d="M33.3368 15.0151C34.6043 15.0414 35.687 14.0701 35.7794 12.797L35.9642 10.1064C36.0566 8.79387 35.0532 7.65199 33.7329 7.57324L24.8472 6.96949C23.5269 6.87762 22.3782 7.87512 22.2858 9.18762L22.1009 11.8782C22.0085 13.1514 22.9591 14.2539 24.2134 14.3982L23.8702 19.3332C23.7777 20.6326 24.7812 21.7745 26.0883 21.8532L30.4453 22.142C31.7524 22.2339 32.9011 21.2364 32.9803 19.937L33.3368 15.0151V15.0151Z" fill="#A87A2F"/>
<path opacity="0.2" d="M32.6506 15.0013C32.0829 15.4082 31.3963 15.6051 30.7362 15.7232C30.0628 15.8413 29.3763 15.8544 28.7029 15.8151C28.0264 15.7606 27.3579 15.633 26.7092 15.4344C26.0623 15.2244 25.4153 14.9488 24.9004 14.4763L28.7821 14.7126C30.0628 14.8044 31.2907 14.9226 32.6506 15.0013V15.0013Z" fill="#424242"/>
<path d="M121.628 88.5276C114.908 82.1488 106.167 80.1407 98.4038 75.9932C90.6403 71.8326 75.8529 62.1988 68.3799 55.6626C60.9069 49.1263 62.7686 48.9294 61.6463 47.5119C60.524 46.1076 58.3323 47.0919 58.3323 46.1994C58.3323 45.3069 56.4046 44.9919 56.4046 44.9919C56.299 44.9919 51.9552 49.4151 51.9552 49.4151C51.9552 49.4151 47.585 53.6413 47.585 53.7594C47.585 53.7594 47.9414 55.6363 48.8393 55.6363C49.7371 55.6363 48.76 57.8019 50.1728 58.9176C51.5855 60.0332 51.81 58.1826 58.3851 65.5982C64.9603 73.027 74.6646 87.7138 78.8368 95.4445C83.0221 103.162 85.029 111.851 91.4589 118.531C97.8757 125.212 132.93 159.691 132.93 159.691C132.93 159.691 136.706 165.742 152.827 149.703C168.948 133.664 162.954 129.845 162.954 129.845C162.954 129.845 128.348 94.9195 121.628 88.5276Z" fill="url(#paint17_radial)"/>
<path d="M99.5103 126.997L123.249 150.596C123.249 150.596 128.319 146.435 139.608 135.227C150.897 124.018 153.419 120.015 153.419 120.015L129.983 96.7178C129.983 96.7178 127.937 96.9672 113.849 111.116C99.9988 125.042 99.5103 126.997 99.5103 126.997V126.997Z" fill="url(#paint18_linear)"/>
<g opacity="0.59">
<path opacity="0.59" d="M129.616 104.107L146.767 121.157C145.671 122.574 142.872 125.934 136.574 132.195C130.039 138.692 126.17 142.157 124.546 143.574L107.25 126.38C108.121 125.199 110.656 122.167 117.931 114.857C125.391 107.402 128.454 104.921 129.616 104.107ZM129.854 102.48C129.854 102.48 128.415 102.493 117.007 113.951C105.798 125.212 105.6 126.59 105.6 126.59L124.493 145.372C124.493 145.372 128.388 142.209 137.525 133.127C146.648 124.057 148.51 121.025 148.51 121.025L129.854 102.48V102.48Z" fill="url(#paint19_linear)"/>
</g>
<path d="M83.0458 80.3515C85.1451 78.2646 88.3271 78.2646 88.3271 78.2646L92.4068 71.9515C87.9574 69.274 82.9534 66.1371 79.0717 63.394C70.054 57.0284 64.8519 51.5946 64.9179 49.0615C64.984 46.5284 60.9966 43.864 60.9966 43.864C58.4616 45.5178 62.6338 48.2871 62.0661 50.3346C61.4983 52.3821 52.6919 51.5028 52.6919 51.5028L51.6224 53.2221C51.6224 53.2221 55.0552 58.8003 52.9955 59.3646C50.9358 59.929 48.1104 55.8078 46.4468 58.3278C46.4468 58.3278 49.1138 62.2915 51.6752 62.2259C54.2366 62.1603 59.6895 67.3315 66.093 76.2959C68.8393 80.1546 71.9948 85.1159 74.6883 89.5259L81.0654 85.4965C81.0654 85.5096 81.0786 82.3071 83.0458 80.3515V80.3515Z" fill="url(#paint20_linear)"/>
<path d="M86.1786 98.5945C90.0207 98.2401 89.3738 98.1351 89.3738 98.1351C89.3738 98.1351 88.7664 96.757 91.3146 97.1901C93.8496 97.6363 96.3054 97.6626 98.5104 95.4838C100.715 93.3051 100.61 90.9294 100.161 88.3963C99.7118 85.8763 101.045 86.5326 101.045 86.5326C101.045 86.5326 101.164 87.1626 101.507 83.3563C101.864 79.5369 103.171 78.2376 103.171 78.2376C103.171 78.2376 98.2859 75.4813 92.4105 71.9507L88.3307 78.2638C88.3307 78.2638 85.1356 78.2638 83.0495 80.3507C81.0822 82.3063 81.069 85.4957 81.069 85.4957L74.6919 89.5251C78.2567 95.3788 81.0426 100.248 81.0426 100.248C81.0426 100.248 82.3497 98.9488 86.1786 98.5945Z" fill="url(#paint21_linear)"/>
<path d="M94.2048 84.0262C96.951 86.7562 97.5452 90.5888 95.5251 92.5969C93.5182 94.5919 89.6497 94.0144 86.9034 91.2844C84.1572 88.5544 83.563 84.7219 85.5831 82.7137C87.6032 80.7056 91.4585 81.2962 94.2048 84.0262Z" fill="url(#paint22_linear)"/>
<path d="M93.3471 72.489L88.7128 79.7603C88.7128 79.7603 86.0194 79.7603 84.2369 81.519C82.5734 83.1728 82.5601 85.8765 82.5601 85.8765L75.2324 90.4965" stroke="url(#paint23_linear)" stroke-width="0.41" stroke-miterlimit="10"/>
<path d="M80.3945 99.3432C80.3945 99.3432 83.6425 97.2563 86.8905 96.9675C90.1384 96.6656 89.0822 95.4057 91.2343 95.7863C93.3864 96.1538 95.4593 96.18 97.3209 94.3425C99.1826 92.505 99.0902 90.4838 98.7205 88.3575C98.3508 86.2181 99.5655 87.3206 99.8559 84.0919C100.16 80.8631 102.18 77.7131 102.18 77.7131" stroke="url(#paint24_linear)" stroke-width="0.41" stroke-miterlimit="10"/>
<defs>
<linearGradient id="paint0_linear" x1="49.2154" y1="46.0878" x2="2.11919" y2="5.263" gradientUnits="userSpaceOnUse">
<stop stop-color="#AE9869"/>
<stop offset="0.025" stop-color="#B6A274"/>
<stop offset="0.115" stop-color="#CFC099"/>
<stop offset="0.199" stop-color="#E1D6B3"/>
<stop offset="0.273" stop-color="#ECE3C3"/>
<stop offset="0.332" stop-color="#F0E8C9"/>
<stop offset="0.566" stop-color="#EFE7C7"/>
<stop offset="0.687" stop-color="#ECE2BF"/>
<stop offset="0.782" stop-color="#E7D9B2"/>
<stop offset="0.864" stop-color="#E0CD9F"/>
<stop offset="0.936" stop-color="#D8BE86"/>
<stop offset="0.995" stop-color="#CEAD6C"/>
</linearGradient>
<linearGradient id="paint1_linear" x1="32.9209" y1="58.3043" x2="14.9978" y2="42.7668" gradientUnits="userSpaceOnUse">
<stop stop-color="#AE9869"/>
<stop offset="0.025" stop-color="#B6A274"/>
<stop offset="0.115" stop-color="#CFC099"/>
<stop offset="0.199" stop-color="#E1D6B3"/>
<stop offset="0.273" stop-color="#ECE3C3"/>
<stop offset="0.332" stop-color="#F0E8C9"/>
<stop offset="0.566" stop-color="#EFE7C7"/>
<stop offset="0.687" stop-color="#ECE2BF"/>
<stop offset="0.782" stop-color="#E7D9B2"/>
<stop offset="0.864" stop-color="#E0CD9F"/>
<stop offset="0.936" stop-color="#D8BE86"/>
<stop offset="0.995" stop-color="#CEAD6C"/>
</linearGradient>
<linearGradient id="paint2_linear" x1="26.5809" y1="39.3167" x2="20.7629" y2="34.2728" gradientUnits="userSpaceOnUse">
<stop stop-color="#AE9869"/>
<stop offset="0.025" stop-color="#B6A274"/>
<stop offset="0.115" stop-color="#CFC099"/>
<stop offset="0.199" stop-color="#E1D6B3"/>
<stop offset="0.273" stop-color="#ECE3C3"/>
<stop offset="0.332" stop-color="#F0E8C9"/>
<stop offset="0.566" stop-color="#EFE7C7"/>
<stop offset="0.687" stop-color="#ECE2BF"/>
<stop offset="0.782" stop-color="#E7D9B2"/>
<stop offset="0.864" stop-color="#E0CD9F"/>
<stop offset="0.936" stop-color="#D8BE86"/>
<stop offset="0.995" stop-color="#CEAD6C"/>
</linearGradient>
<linearGradient id="paint3_linear" x1="19.9291" y1="33.7271" x2="15.9659" y2="30.2913" gradientUnits="userSpaceOnUse">
<stop stop-color="#AE9869"/>
<stop offset="0.025" stop-color="#B6A274"/>
<stop offset="0.115" stop-color="#CFC099"/>
<stop offset="0.199" stop-color="#E1D6B3"/>
<stop offset="0.273" stop-color="#ECE3C3"/>
<stop offset="0.332" stop-color="#F0E8C9"/>
<stop offset="0.566" stop-color="#EFE7C7"/>
<stop offset="0.687" stop-color="#ECE2BF"/>
<stop offset="0.782" stop-color="#E7D9B2"/>
<stop offset="0.864" stop-color="#E0CD9F"/>
<stop offset="0.936" stop-color="#D8BE86"/>
<stop offset="0.995" stop-color="#CEAD6C"/>
</linearGradient>
<linearGradient id="paint4_linear" x1="13.0138" y1="38.1116" x2="10.8201" y2="36.2087" gradientUnits="userSpaceOnUse">
<stop stop-color="#AE9869"/>
<stop offset="0.025" stop-color="#B6A274"/>
<stop offset="0.115" stop-color="#CFC099"/>
<stop offset="0.199" stop-color="#E1D6B3"/>
<stop offset="0.273" stop-color="#ECE3C3"/>
<stop offset="0.332" stop-color="#F0E8C9"/>
<stop offset="0.566" stop-color="#EFE7C7"/>
<stop offset="0.687" stop-color="#ECE2BF"/>
<stop offset="0.782" stop-color="#E7D9B2"/>
<stop offset="0.864" stop-color="#E0CD9F"/>
<stop offset="0.936" stop-color="#D8BE86"/>
<stop offset="0.995" stop-color="#CEAD6C"/>
</linearGradient>
<linearGradient id="paint5_linear" x1="40.9243" y1="55.279" x2="36.9085" y2="51.7983" gradientUnits="userSpaceOnUse">
<stop stop-color="#AE9869"/>
<stop offset="0.025" stop-color="#B6A274"/>
<stop offset="0.115" stop-color="#CFC099"/>
<stop offset="0.199" stop-color="#E1D6B3"/>
<stop offset="0.273" stop-color="#ECE3C3"/>
<stop offset="0.332" stop-color="#F0E8C9"/>
<stop offset="0.566" stop-color="#EFE7C7"/>
<stop offset="0.687" stop-color="#ECE2BF"/>
<stop offset="0.782" stop-color="#E7D9B2"/>
<stop offset="0.864" stop-color="#E0CD9F"/>
<stop offset="0.936" stop-color="#D8BE86"/>
<stop offset="0.995" stop-color="#CEAD6C"/>
</linearGradient>
<linearGradient id="paint6_linear" x1="60.4475" y1="38.0599" x2="57.2098" y2="32.7542" gradientUnits="userSpaceOnUse">
<stop stop-color="#AE9869"/>
<stop offset="0.025" stop-color="#B6A274"/>
<stop offset="0.115" stop-color="#CFC099"/>
<stop offset="0.199" stop-color="#E1D6B3"/>
<stop offset="0.273" stop-color="#ECE3C3"/>
<stop offset="0.332" stop-color="#F0E8C9"/>
<stop offset="0.566" stop-color="#EFE7C7"/>
<stop offset="0.687" stop-color="#ECE2BF"/>
<stop offset="0.782" stop-color="#E7D9B2"/>
<stop offset="0.864" stop-color="#E0CD9F"/>
<stop offset="0.936" stop-color="#D8BE86"/>
<stop offset="0.995" stop-color="#CEAD6C"/>
</linearGradient>
<linearGradient id="paint7_linear" x1="57.9863" y1="31.0963" x2="55.4681" y2="28.9133" gradientUnits="userSpaceOnUse">
<stop stop-color="#AE9869"/>
<stop offset="0.025" stop-color="#B6A274"/>
<stop offset="0.115" stop-color="#CFC099"/>
<stop offset="0.199" stop-color="#E1D6B3"/>
<stop offset="0.273" stop-color="#ECE3C3"/>
<stop offset="0.332" stop-color="#F0E8C9"/>
<stop offset="0.566" stop-color="#EFE7C7"/>
<stop offset="0.687" stop-color="#ECE2BF"/>
<stop offset="0.782" stop-color="#E7D9B2"/>
<stop offset="0.864" stop-color="#E0CD9F"/>
<stop offset="0.936" stop-color="#D8BE86"/>
<stop offset="0.995" stop-color="#CEAD6C"/>
</linearGradient>
<linearGradient id="paint8_linear" x1="60.5557" y1="22.029" x2="56.4808" y2="18.4955" gradientUnits="userSpaceOnUse">
<stop stop-color="#AE9869"/>
<stop offset="0.025" stop-color="#B6A274"/>
<stop offset="0.115" stop-color="#CFC099"/>
<stop offset="0.199" stop-color="#E1D6B3"/>
<stop offset="0.273" stop-color="#ECE3C3"/>
<stop offset="0.332" stop-color="#F0E8C9"/>
<stop offset="0.566" stop-color="#EFE7C7"/>
<stop offset="0.687" stop-color="#ECE2BF"/>
<stop offset="0.782" stop-color="#E7D9B2"/>
<stop offset="0.864" stop-color="#E0CD9F"/>
<stop offset="0.936" stop-color="#D8BE86"/>
<stop offset="0.995" stop-color="#CEAD6C"/>
</linearGradient>
<linearGradient id="paint9_linear" x1="54.852" y1="17.6384" x2="52.9867" y2="16.0209" gradientUnits="userSpaceOnUse">
<stop stop-color="#AE9869"/>
<stop offset="0.025" stop-color="#B6A274"/>
<stop offset="0.115" stop-color="#CFC099"/>
<stop offset="0.199" stop-color="#E1D6B3"/>
<stop offset="0.273" stop-color="#ECE3C3"/>
<stop offset="0.332" stop-color="#F0E8C9"/>
<stop offset="0.566" stop-color="#EFE7C7"/>
<stop offset="0.687" stop-color="#ECE2BF"/>
<stop offset="0.782" stop-color="#E7D9B2"/>
<stop offset="0.864" stop-color="#E0CD9F"/>
<stop offset="0.936" stop-color="#D8BE86"/>
<stop offset="0.995" stop-color="#CEAD6C"/>
</linearGradient>
<linearGradient id="paint10_linear" x1="47.8189" y1="12.6109" x2="39.9292" y2="5.77113" gradientUnits="userSpaceOnUse">
<stop stop-color="#AE9869"/>
<stop offset="0.025" stop-color="#B6A274"/>
<stop offset="0.115" stop-color="#CFC099"/>
<stop offset="0.199" stop-color="#E1D6B3"/>
<stop offset="0.273" stop-color="#ECE3C3"/>
<stop offset="0.332" stop-color="#F0E8C9"/>
<stop offset="0.566" stop-color="#EFE7C7"/>
<stop offset="0.687" stop-color="#ECE2BF"/>
<stop offset="0.782" stop-color="#E7D9B2"/>
<stop offset="0.864" stop-color="#E0CD9F"/>
<stop offset="0.936" stop-color="#D8BE86"/>
<stop offset="0.995" stop-color="#CEAD6C"/>
</linearGradient>
<linearGradient id="paint11_linear" x1="54.2775" y1="38.8733" x2="51.6319" y2="36.5793" gradientUnits="userSpaceOnUse">
<stop stop-color="#AE9869"/>
<stop offset="0.025" stop-color="#B6A274"/>
<stop offset="0.115" stop-color="#CFC099"/>
<stop offset="0.199" stop-color="#E1D6B3"/>
<stop offset="0.273" stop-color="#ECE3C3"/>
<stop offset="0.332" stop-color="#F0E8C9"/>
<stop offset="0.566" stop-color="#EFE7C7"/>
<stop offset="0.687" stop-color="#ECE2BF"/>
<stop offset="0.782" stop-color="#E7D9B2"/>
<stop offset="0.864" stop-color="#E0CD9F"/>
<stop offset="0.936" stop-color="#D8BE86"/>
<stop offset="0.995" stop-color="#CEAD6C"/>
</linearGradient>
<linearGradient id="paint12_linear" x1="41.0761" y1="19.5689" x2="32.1115" y2="6.67122" gradientUnits="userSpaceOnUse">
<stop stop-color="#AE9869"/>
<stop offset="0.025" stop-color="#B6A274"/>
<stop offset="0.115" stop-color="#CFC099"/>
<stop offset="0.199" stop-color="#E1D6B3"/>
<stop offset="0.273" stop-color="#ECE3C3"/>
<stop offset="0.332" stop-color="#F0E8C9"/>
<stop offset="0.566" stop-color="#EFE7C7"/>
<stop offset="0.687" stop-color="#ECE2BF"/>
<stop offset="0.782" stop-color="#E7D9B2"/>
<stop offset="0.864" stop-color="#E0CD9F"/>
<stop offset="0.936" stop-color="#D8BE86"/>
<stop offset="0.995" stop-color="#CEAD6C"/>
</linearGradient>
<linearGradient id="paint13_linear" x1="26.4038" y1="12.2112" x2="17.483" y2="4.47937" gradientUnits="userSpaceOnUse">
<stop stop-color="#AE9869"/>
<stop offset="0.025" stop-color="#B6A274"/>
<stop offset="0.115" stop-color="#CFC099"/>
<stop offset="0.199" stop-color="#E1D6B3"/>
<stop offset="0.273" stop-color="#ECE3C3"/>
<stop offset="0.332" stop-color="#F0E8C9"/>
<stop offset="0.566" stop-color="#EFE7C7"/>
<stop offset="0.687" stop-color="#ECE2BF"/>
<stop offset="0.782" stop-color="#E7D9B2"/>
<stop offset="0.864" stop-color="#E0CD9F"/>
<stop offset="0.936" stop-color="#D8BE86"/>
<stop offset="0.995" stop-color="#CEAD6C"/>
</linearGradient>
<linearGradient id="paint14_linear" x1="18.7011" y1="44.4281" x2="15.3146" y2="41.4932" gradientUnits="userSpaceOnUse">
<stop stop-color="#AE9869"/>
<stop offset="0.025" stop-color="#B6A274"/>
<stop offset="0.115" stop-color="#CFC099"/>
<stop offset="0.199" stop-color="#E1D6B3"/>
<stop offset="0.273" stop-color="#ECE3C3"/>
<stop offset="0.332" stop-color="#F0E8C9"/>
<stop offset="0.566" stop-color="#EFE7C7"/>
<stop offset="0.687" stop-color="#ECE2BF"/>
<stop offset="0.782" stop-color="#E7D9B2"/>
<stop offset="0.864" stop-color="#E0CD9F"/>
<stop offset="0.936" stop-color="#D8BE86"/>
<stop offset="0.995" stop-color="#CEAD6C"/>
</linearGradient>
<linearGradient id="paint15_linear" x1="53.4718" y1="60.7036" x2="51.7706" y2="59.2302" gradientUnits="userSpaceOnUse">
<stop stop-color="#AE9869"/>
<stop offset="0.025" stop-color="#B6A274"/>
<stop offset="0.115" stop-color="#CFC099"/>
<stop offset="0.199" stop-color="#E1D6B3"/>
<stop offset="0.273" stop-color="#ECE3C3"/>
<stop offset="0.332" stop-color="#F0E8C9"/>
<stop offset="0.566" stop-color="#EFE7C7"/>
<stop offset="0.687" stop-color="#ECE2BF"/>
<stop offset="0.782" stop-color="#E7D9B2"/>
<stop offset="0.864" stop-color="#E0CD9F"/>
<stop offset="0.936" stop-color="#D8BE86"/>
<stop offset="0.995" stop-color="#CEAD6C"/>
</linearGradient>
<linearGradient id="paint16_linear" x1="56.249" y1="34.623" x2="37.1215" y2="19.4468" gradientUnits="userSpaceOnUse">
<stop stop-color="#AE9869"/>
<stop offset="0.025" stop-color="#B6A274"/>
<stop offset="0.115" stop-color="#CFC099"/>
<stop offset="0.199" stop-color="#E1D6B3"/>
<stop offset="0.273" stop-color="#ECE3C3"/>
<stop offset="0.332" stop-color="#F0E8C9"/>
<stop offset="0.566" stop-color="#EFE7C7"/>
<stop offset="0.687" stop-color="#ECE2BF"/>
<stop offset="0.782" stop-color="#E7D9B2"/>
<stop offset="0.864" stop-color="#E0CD9F"/>
<stop offset="0.936" stop-color="#D8BE86"/>
<stop offset="0.995" stop-color="#CEAD6C"/>
</linearGradient>
<radialGradient id="paint17_radial" cx="0" cy="0" r="1" gradientUnits="userSpaceOnUse" gradientTransform="translate(94.7373 99.9774) rotate(-44.83) scale(87.4282 87.4267)">
<stop stop-color="#8EB80C"/>
<stop offset="0.204" stop-color="#638A12"/>
<stop offset="0.422" stop-color="#3C5F17"/>
<stop offset="0.593" stop-color="#23441B"/>
<stop offset="0.694" stop-color="#1A3A1C"/>
<stop offset="0.799" stop-color="#1C3C1C"/>
<stop offset="0.85" stop-color="#23441B"/>
<stop offset="0.889" stop-color="#2F5119"/>
<stop offset="0.922" stop-color="#406317"/>
<stop offset="0.951" stop-color="#567B14"/>
<stop offset="0.978" stop-color="#719810"/>
<stop offset="1" stop-color="#8EB80C"/>
</radialGradient>
<linearGradient id="paint18_linear" x1="111.194" y1="138.612" x2="141.48" y2="108.146" gradientUnits="userSpaceOnUse">
<stop stop-color="#A4884C"/>
<stop offset="0.74" stop-color="#F0E8C9"/>
</linearGradient>
<linearGradient id="paint19_linear" x1="114.896" y1="135.832" x2="139.006" y2="111.578" gradientUnits="userSpaceOnUse">
<stop offset="0.138" stop-color="#CCB482"/>
<stop offset="0.699" stop-color="#F0E8C9"/>
<stop offset="0.75" stop-color="#EDE4C2"/>
<stop offset="0.825" stop-color="#E6D7AF"/>
<stop offset="0.914" stop-color="#DBC38F"/>
<stop offset="0.995" stop-color="#CEAD6C"/>
</linearGradient>
<linearGradient id="paint20_linear" x1="61.138" y1="74.2073" x2="76.3767" y2="58.8779" gradientUnits="userSpaceOnUse">
<stop stop-color="#A4884C"/>
<stop offset="0.27" stop-color="#AE9869"/>
<stop offset="0.74" stop-color="#F0E8C9"/>
<stop offset="0.995" stop-color="#CEAD6C"/>
</linearGradient>
<linearGradient id="paint21_linear" x1="101.676" y1="76.4631" x2="80.4397" y2="99.0537" gradientUnits="userSpaceOnUse">
<stop stop-color="#616161"/>
<stop offset="0.503" stop-color="#212121"/>
<stop offset="1" stop-color="#616161"/>
</linearGradient>
<linearGradient id="paint22_linear" x1="86.9142" y1="91.2754" x2="94.1624" y2="83.9841" gradientUnits="userSpaceOnUse">
<stop stop-color="#A4884C"/>
<stop offset="0.699" stop-color="#F0E8C9"/>
<stop offset="0.75" stop-color="#EDE4C2"/>
<stop offset="0.825" stop-color="#E6D7AF"/>
<stop offset="0.914" stop-color="#DBC38F"/>
<stop offset="0.995" stop-color="#CEAD6C"/>
</linearGradient>
<linearGradient id="paint23_linear" x1="75.8637" y1="91.2072" x2="93.9544" y2="73.0089" gradientUnits="userSpaceOnUse">
<stop stop-color="#A4884C"/>
<stop offset="0.699" stop-color="#F0E8C9"/>
<stop offset="0.75" stop-color="#EDE4C2"/>
<stop offset="0.825" stop-color="#E6D7AF"/>
<stop offset="0.914" stop-color="#DBC38F"/>
<stop offset="0.995" stop-color="#CEAD6C"/>
</linearGradient>
<linearGradient id="paint24_linear" x1="83.3313" y1="102.342" x2="105.055" y2="80.4884" gradientUnits="userSpaceOnUse">
<stop stop-color="#A4884C"/>
<stop offset="0.699" stop-color="#F0E8C9"/>
<stop offset="0.75" stop-color="#EDE4C2"/>
<stop offset="0.825" stop-color="#E6D7AF"/>
<stop offset="0.914" stop-color="#DBC38F"/>
<stop offset="0.995" stop-color="#CEAD6C"/>
</linearGradient>
</defs>
</svg>
