<svg width="392" height="392" viewBox="0 0 392 392" fill="none" xmlns="http://www.w3.org/2000/svg">
<g filter="url(#filter0_d)">
<path d="M154.503 82.6875C153.707 60.1475 140.6 46.5194 155.024 29.0938C164.548 17.6094 183.505 22.4175 186.843 26.8275C193.305 35.3719 182.28 43.0588 179.738 47.3156C176.002 53.5938 182.893 79.1962 171.592 97.51C156.28 122.255 140.6 118.396 140.6 118.396C140.6 118.396 155.269 104.37 154.503 82.6875Z" fill="#312D2D"/>
<path d="M153.278 72.1831C150.124 55.5537 142.988 43.6406 155.024 29.0938C164.548 17.6094 183.505 22.4175 186.843 26.8275C193.305 35.3719 182.28 43.0588 179.738 47.3156C175.972 53.5938 153.278 72.1831 153.278 72.1831Z" fill="url(#paint0_radial)"/>
<path d="M154.503 82.6875C154.289 77.0525 153.278 71.54 151.931 66.0582C150.736 61.2194 149.511 57.0851 152.635 52.6138C157.596 45.6007 167.488 42.5382 175.543 45.5088C177.962 46.3969 179.463 47.6526 179.126 50.1332C178.881 51.9401 178.513 53.5632 178.483 55.4313C178.421 59.6576 178.575 63.8532 178.513 68.0794C178.33 78.1857 177.013 88.69 171.623 97.4488C156.31 122.194 140.63 118.335 140.63 118.335C140.63 118.335 155.269 104.37 154.503 82.6875Z" fill="url(#paint1_radial)"/>
<path d="M155.116 114.936C155.116 114.936 172.939 104.278 176.982 83.4226C178.605 75.0926 178.728 68.0489 178.513 63.302C178.329 59.1983 175.757 45.7233 179.156 41.1295" fill="url(#paint2_radial)"/>
<path d="M186.291 40.8537C193.978 28.42 211.404 18.7425 225.828 21.1312C241.998 23.7956 250.665 35.4331 252.962 50.1944C253.789 55.5537 253.636 60.8825 252.717 64.6494C252.595 65.1087 251.706 68.3856 251.645 69.4269C251.033 73.4081 258.75 77.3587 259.638 81.7381C260.312 85.0456 253.421 87.1587 252.87 87.7406C250.175 90.7112 254.432 104.829 235.536 106.238C228.278 106.789 229.687 106.33 227.543 107.157C224.205 108.443 224.511 117.324 224.511 117.324C224.511 117.324 222.643 131.963 210.148 128.074C195.877 123.664 195.326 113.557 195.326 113.557C195.326 113.557 200.624 99.47 192.11 84.8312C185.342 73.1325 181.33 48.8469 186.291 40.8537V40.8537Z" fill="#F9DDBD"/>
<path d="M250.972 95.6419C248.338 95.795 245.766 95.1825 243.53 93.5288C241.111 91.7219 242.765 89.7313 245.552 90.895C247.236 91.5994 249.594 91.9669 251.738 91.5688L250.972 95.6419V95.6419Z" fill="#444444"/>
<path d="M239.779 76.9574C237.869 76.897 236.395 74.4634 236.488 71.5219C236.581 68.5804 238.206 66.2448 240.116 66.3052C242.026 66.3657 243.499 68.7992 243.406 71.7408C243.313 74.6823 241.689 77.0178 239.779 76.9574Z" fill="#312D2D"/>
<path d="M242.642 63.7613C246.072 64.5576 246.746 62.2913 245.521 60.5763C244.633 59.2901 242.519 58.3101 238.63 59.2901C234.955 60.2088 233.546 62.4444 232.597 63.7919C231.648 65.1394 231.862 66.4257 232.719 66.5176C233.883 66.5788 238.416 62.7813 242.642 63.7613Z" fill="#454140"/>
<path d="M130.891 332.832L173.981 283.679C176.676 280.617 178.268 276.758 178.513 272.685L182.739 203.901L230.208 209.138L215.263 280.096C212.844 291.58 206.382 301.809 197.072 308.945L146.571 347.532L130.891 332.832V332.832Z" fill="#616161"/>
<path d="M183.29 192.57L237.129 197.501L251.002 259.945C253.544 271.46 254.432 283.312 253.605 295.072L248.614 366.244H228.187L219.152 289.59C219.152 289.59 203.809 248.798 203.319 248.553C190.855 242.642 180.075 233.485 180.626 218.448C180.902 209.812 182.31 201.114 183.29 192.57V192.57Z" fill="#7C7C7C"/>
<path d="M193.274 225.124H229.718C236.67 225.124 242.335 218.448 242.335 210.241L235.751 141.334C234.404 128.748 228.003 116.559 221.572 111.965C215.539 107.647 206.81 106.943 206.81 106.943C202.125 106.575 195.173 107.708 190.732 114.201C188.068 118.09 186.077 125.685 185.649 132.208L180.687 210.241C180.687 218.479 186.322 225.124 193.274 225.124Z" fill="#5C3ECA"/>
<path d="M187.425 184.638L194.316 142.284L215.661 145.744L209.077 186.139L220.01 216.274C220.714 217.652 230.606 222.123 231.219 222.429C233.117 223.348 234.434 225.155 235.414 228.738C235.996 230.943 237.466 237.252 234.373 238.354C235.414 241.264 234.741 244.908 233.944 245.766C232.107 247.756 229.871 246.868 229.871 246.868C229.871 246.868 229.565 249.41 227.544 250.114C225.032 251.002 223.287 249.624 223.287 249.624C222.399 250.298 221.327 250.666 220.194 250.666C218.846 250.666 217.652 250.145 216.733 249.471C216.151 249.716 214.559 250.666 212.537 249.226C211.251 248.307 207.209 243.009 205.953 239.61C205.096 237.282 205.218 225.584 204.146 223.532C203.074 221.48 188.405 192.294 188.405 192.294H188.436C187.119 189.875 186.812 187.149 187.425 184.638V184.638Z" fill="url(#paint3_linear)"/>
<path d="M211.68 241.019C212.385 239.181 212.844 239.059 214.13 239.396C215.876 239.855 217.775 239.794 218.847 237.65C219.092 237.13 219.459 236.946 220.01 237.13C221.878 237.742 224.206 237.773 225.002 234.955C225.308 233.914 225.737 233.791 226.87 233.791C227.238 233.791 228.31 234.251 229.412 233.087C230.637 231.77 228.983 229.136 230.545 228.891C231.005 228.83 233.21 229.075 233.883 226.717C234.312 225.186 232.536 223.348 232.505 223.318C233.73 224.39 234.68 226.074 235.384 228.769C235.966 230.974 237.436 237.283 234.343 238.385C235.384 241.294 234.71 244.939 233.914 245.796C232.077 247.787 229.841 246.899 229.841 246.899C229.841 246.899 229.535 249.441 227.513 250.145C225.002 251.033 223.257 249.655 223.257 249.655C222.368 250.329 221.297 250.696 220.163 250.696C218.816 250.696 217.622 250.176 216.703 249.502C216.121 249.747 214.528 250.696 212.507 249.257C211.435 248.491 208.403 244.602 206.719 241.356C208.22 242.55 211.16 242.397 211.68 241.019V241.019Z" fill="url(#paint4_linear)"/>
<path d="M224.788 379.689C222.858 379.689 221.266 378.127 221.266 376.167V367.592C221.266 361.773 227.177 355.127 227.177 355.127H248.553L267.785 361.467C272.44 363.304 275.533 367.776 275.564 372.767L275.595 376.626C275.595 378.311 274.217 379.689 272.532 379.689H224.788Z" fill="#4568AD"/>
<path d="M117.447 342.51C116.069 341.132 116.069 338.927 117.447 337.549L123.511 331.485C127.645 327.351 136.496 326.83 136.496 326.83L151.594 341.928L160.689 360.027C162.68 364.621 161.7 369.95 158.178 373.533L155.452 376.289C154.258 377.484 152.298 377.484 151.104 376.289L117.447 342.51V342.51Z" fill="#325599"/>
<path d="M213.242 243.132C213.028 244.633 213.426 245.766 213.977 246.868C214.59 247.909 215.325 248.859 216.703 249.502C216.917 248.001 216.519 246.868 215.968 245.766C215.386 244.724 214.62 243.775 213.242 243.132Z" fill="#EDBD82"/>
<path d="M219.428 240.345C219.213 242.274 219.642 243.989 220.255 245.612C220.928 247.205 221.725 248.767 223.225 250.022C223.44 248.062 223.011 246.378 222.398 244.755C221.725 243.193 220.898 241.631 219.428 240.345Z" fill="#EDBD82"/>
<path d="M226.778 237.282C226.41 239.181 226.716 240.896 227.176 242.55C227.696 244.173 228.401 245.766 229.779 247.144C230.146 245.245 229.84 243.53 229.381 241.876C228.829 240.253 228.125 238.661 226.778 237.282Z" fill="#EDBD82"/>
<path d="M227.238 226.258C228.187 227.084 229.106 227.942 229.872 228.861C230.699 229.779 231.097 230.606 231.372 231.801C232.077 234.067 232.781 236.425 234.435 238.599C234.925 235.935 234.435 233.424 233.424 231.035C232.904 229.871 231.893 228.524 230.79 227.85C229.657 227.084 228.463 226.564 227.238 226.258V226.258Z" fill="#EDBD82"/>
<path d="M219.275 162.313L185.894 156.249L191.284 126.573C191.681 124.381 192.507 122.289 193.713 120.416C194.92 118.543 196.484 116.926 198.315 115.658C200.147 114.39 202.21 113.494 204.388 113.024C206.565 112.553 208.814 112.516 211.006 112.914C213.198 113.312 215.29 114.138 217.163 115.344C219.036 116.551 220.653 118.115 221.921 119.946C223.19 121.778 224.085 123.841 224.556 126.019C225.026 128.196 225.063 130.445 224.665 132.637L219.275 162.313Z" fill="#590DE5"/>
<path d="M184.73 31.2375C191.866 22.5706 203.442 17.0275 215.753 16.4456C226.441 15.925 241.111 18.5587 250.114 27.4706C255.535 32.83 258.751 39.8737 257.863 47.6831C257.342 52.3994 253.453 54.7881 253.453 54.7881C253.453 54.7881 249.012 44.0694 238.079 46.795C226.595 49.6431 221.603 47.3156 221.603 47.3156C225.461 56.4419 222.062 61.4337 219.061 64.2819C217.346 65.905 215.753 67.8344 214.865 68.9675C214.406 69.5494 214.008 69.5187 213.824 68.9062C213.364 67.4362 212.538 64.7719 211.894 63.5469C209.781 59.3512 206.351 60.8519 206.351 60.8519C201.727 62.475 200.073 71.9994 207.668 77.6037C207.852 77.7262 208.373 78.0937 208.066 79.0431C205.065 88.69 193.642 89.0269 192.938 88.69C192.938 88.69 192.907 88.69 192.907 88.6594C192.846 88.6287 192.785 88.5981 192.754 88.5675C191.223 87.8631 190.334 86.6075 190.059 84.8312C189.109 78.4306 186.323 76.5625 184.301 73.7756C181.974 70.56 179.34 66.9156 177.839 56.84C176.431 47.285 178.819 38.4344 184.73 31.2375V31.2375Z" fill="#312D2D"/>
<path d="M184.73 31.2375C191.866 22.5706 203.442 17.0275 215.753 16.4456C226.441 15.925 241.111 18.5587 250.114 27.4706C255.535 32.83 258.751 39.8737 257.863 47.6831C257.342 52.3994 253.453 54.7881 253.453 54.7881C253.453 54.7881 249.012 44.0694 238.079 46.795C226.595 49.6431 221.603 47.3156 221.603 47.3156C225.461 56.4419 222.062 61.4337 219.061 64.2819C217.346 65.905 215.753 67.8344 214.865 68.9675C214.406 69.5494 214.008 69.5187 213.824 68.9062C213.364 67.4362 212.538 64.7719 211.894 63.5469C209.781 59.3512 206.351 60.8519 206.351 60.8519C201.727 62.475 200.073 71.9994 207.668 77.6037C207.852 77.7262 208.373 78.0937 208.066 79.0431C205.065 88.69 193.642 89.0269 192.938 88.69C192.938 88.69 192.907 88.69 192.907 88.6594C192.846 88.6287 192.785 88.5981 192.754 88.5675C191.223 87.8631 190.334 86.6075 190.059 84.8312C189.109 78.4306 186.323 76.5625 184.301 73.7756C181.974 70.56 179.34 66.9156 177.839 56.84C176.431 47.285 178.819 38.4344 184.73 31.2375V31.2375Z" fill="url(#paint5_radial)"/>
</g>
<defs>
<filter id="filter0_d" x="-4" y="0" width="400" height="400" filterUnits="userSpaceOnUse" color-interpolation-filters="sRGB">
<feFlood flood-opacity="0" result="BackgroundImageFix"/>
<feColorMatrix in="SourceAlpha" type="matrix" values="0 0 0 0 0 0 0 0 0 0 0 0 0 0 0 0 0 0 127 0"/>
<feOffset dy="4"/>
<feGaussianBlur stdDeviation="2"/>
<feColorMatrix type="matrix" values="0 0 0 0 0 0 0 0 0 0 0 0 0 0 0 0 0 0 0.25 0"/>
<feBlend mode="normal" in2="BackgroundImageFix" result="effect1_dropShadow"/>
<feBlend mode="normal" in="SourceGraphic" in2="effect1_dropShadow" result="shape"/>
</filter>
<radialGradient id="paint0_radial" cx="0" cy="0" r="1" gradientUnits="userSpaceOnUse" gradientTransform="translate(176.513 65.8494) rotate(-173.581) scale(41.3517 49.9991)">
<stop offset="0.526" stop-color="#454140" stop-opacity="0"/>
<stop offset="1" stop-color="#454140"/>
</radialGradient>
<radialGradient id="paint1_radial" cx="0" cy="0" r="1" gradientUnits="userSpaceOnUse" gradientTransform="translate(138.645 98.1574) rotate(9.77033) scale(44.2227 54.5566)">
<stop stop-color="#454140"/>
<stop offset="0.526" stop-color="#454140" stop-opacity="0"/>
</radialGradient>
<radialGradient id="paint2_radial" cx="0" cy="0" r="1" gradientUnits="userSpaceOnUse" gradientTransform="translate(157.428 72.0664) rotate(9.95687) scale(24.251 77.3526)">
<stop offset="0.526" stop-color="#454140" stop-opacity="0"/>
<stop offset="1" stop-color="#454140"/>
</radialGradient>
<linearGradient id="paint3_linear" x1="210.703" y1="215.548" x2="220.485" y2="158.203" gradientUnits="userSpaceOnUse">
<stop offset="0.461" stop-color="#F9DDBD"/>
<stop offset="1" stop-color="#FFD29C"/>
</linearGradient>
<linearGradient id="paint4_linear" x1="228.665" y1="254.681" x2="221.783" y2="236.756" gradientUnits="userSpaceOnUse">
<stop offset="0.456" stop-color="#F9DDBD"/>
<stop offset="1" stop-color="#FFD29C"/>
</linearGradient>
<radialGradient id="paint5_radial" cx="0" cy="0" r="1" gradientUnits="userSpaceOnUse" gradientTransform="translate(217.741 52.5463) rotate(180) scale(38.2843)">
<stop offset="0.526" stop-color="#454140" stop-opacity="0"/>
<stop offset="1" stop-color="#454140"/>
</radialGradient>
</defs>
</svg>
