<svg width="186" height="186" viewBox="0 0 186 186" fill="none" xmlns="http://www.w3.org/2000/svg">
<g id="twemoji:wrapped-gift">
<path id="Vector" d="M170.5 160.166C170.5 171.533 161.2 180.833 149.833 180.833H36.1667C24.8 180.833 15.5 171.533 15.5 160.166V72.3332C15.5 60.9665 24.8 51.6665 36.1667 51.6665H149.833C161.2 51.6665 170.5 60.9665 170.5 72.3332V160.166Z" fill="#FDD888"/>
<path id="Vector_2" d="M186 56.8332C186 68.1998 176.7 77.4998 165.333 77.4998H20.6667C9.3 77.4998 0 68.1998 0 56.8332C0 45.4665 9.3 36.1665 20.6667 36.1665H165.333C176.7 36.1665 186 45.4665 186 56.8332Z" fill="#FDD888"/>
<path id="Vector_3" d="M15.5 77.5H170.5V87.8333H15.5V77.5Z" fill="#FCAB40"/>
<path id="Vector_4" d="M98.1666 15.5H87.8333C83.7225 15.5 79.78 17.133 76.8732 20.0398C73.9663 22.9467 72.3333 26.8891 72.3333 31V180.833H113.667V31C113.667 26.8891 112.034 22.9467 109.127 20.0398C106.22 17.133 102.277 15.5 98.1666 15.5Z" fill="#DA2F47"/>
<path id="Vector_5" d="M82.6671 36.1672C88.3504 36.1672 89.1926 33.5012 84.5323 30.2411L49.8019 5.92675C48.7363 5.15085 47.5176 4.61102 46.2269 4.34326C44.9362 4.0755 43.6033 4.08595 42.3169 4.37392C41.0306 4.66188 39.8204 5.22075 38.7671 6.01327C37.7138 6.80578 36.8415 7.81373 36.2085 8.96991L25.7925 27.1979C22.9715 32.1321 25.3171 36.1672 31.0005 36.1672H82.6671ZM103.334 36.1672C97.6504 36.1672 96.8083 33.5012 101.469 30.2411L136.204 5.92675C137.27 5.15167 138.489 4.61254 139.779 4.34524C141.07 4.07793 142.402 4.08859 143.689 4.37651C144.975 4.66442 146.185 5.22298 147.238 6.01501C148.291 6.80703 149.164 7.81435 149.798 8.96991L160.214 27.1927C163.029 32.1321 160.684 36.1672 155 36.1672H103.334Z" fill="#DA2F47"/>
</g>
</svg>
